<?xml version="1.0" encoding="utf-8"?>
<!-- Generator: Adobe Illustrator 23.0.3, SVG Export Plug-In . SVG Version: 6.00 Build 0)  -->
<svg version="1.1" id="Layer_1" xmlns="http://www.w3.org/2000/svg" xmlns:xlink="http://www.w3.org/1999/xlink" x="0px" y="0px"
	 viewBox="0 0 70 70" style="enable-background:new 0 0 70 70;" xml:space="preserve">
<style type="text/css">
	.st0{fill:none;stroke:#00A3B9;stroke-width:1.9541;stroke-miterlimit:10;}
</style>
<title>EAR, NOSE AND THROAT (ENT) CENTER</title>
<g>
	<path class="st0" d="M31.9,32.9c-2.8,0.8-7.1,1.6-7.1,1.6c-8.5,0-9.8,6.2-9.8,6.2H1.8v12.7h12.9c2.6,2.7,6.3,3.9,10,3.3V41.4
		l7.5-3.4c1.2-0.5,2.1-1.4,2.4-2.6c0.2-1.2-0.5-2.4-1.8-2.7C32.6,32.8,32.2,32.8,31.9,32.9z"/>
	<rect x="1.8" y="38.1" class="st0" width="10.4" height="17.9"/>
	<path class="st0" d="M7.2,41.7c0,0.7-0.6,1.2-1.2,1.2c-0.7,0-1.2-0.6-1.2-1.2c0-0.7,0.6-1.2,1.2-1.2c0,0,0,0,0,0
		C6.6,40.4,7.2,41,7.2,41.7C7.2,41.7,7.2,41.7,7.2,41.7z"/>
	<path class="st0" d="M62,14.8h-4.9c1.3-5.5-1.3-12.5-8.3-13.2c-4.6-0.4-9,2.1-11.1,6.3c-2.7,5.7,0.2,9.9,3.7,13.9
		c1.1,1.2,1.8,2.6,2,4.2c0.1,0.6-0.7,10,6.6,8.5c2.4-0.5,4-2,3.1-4.8h2.2c0,0-2.4,24.1,13.5,29.5"/>
	<path class="st0" d="M50.5,26.8c1.4-3.1-4.1-4.5-5.1-5.1c-2.8-1.6-3.7-4.7-3.3-7.5C42.8,8.9,45.7,7.3,48,8c2.5,0.7,4.2,4.1,1.3,6.9
		c-1.1,1.1-2.3,2-1.8,3.8c0.3,1.1,1.6,1.8,3.6,1.3"/>
	<polygon class="st0" points="42.1,18.9 30.9,23.8 30.9,10.6 42.1,15.5 	"/>
	<path class="st0" d="M47.3,18.9h-5.2v-3.4h5.2c1,0,1.7,0.8,1.7,1.7C49,18.2,48.2,18.9,47.3,18.9z"/>
	<path class="st0" d="M28.6,64.4L28.6,64.4c1.3,0,2.3-1,2.3-2.3c0,0,0,0,0,0V10.6h-5.2c-2.9,0-5.2,1-5.2,5.2l5.9,46.7
		C26.5,63.6,27.5,64.4,28.6,64.4z"/>
	<path class="st0" d="M31.6,42h-7.9c-1.2,0-2.1,1-2.1,2.1c0,1.2,1,2.1,2.1,2.1c0,0,0,0,0,0h7.9c1.2,0,2.1-1,2.1-2.1
		C33.7,43,32.8,42,31.6,42C31.6,42,31.6,42,31.6,42z"/>
	<path class="st0" d="M31.6,37.7h-7.9c-1.2,0-2.1,1-2.1,2.1c0,1.2,1,2.1,2.1,2.1h7.9c1.2,0,2.1-1,2.1-2.1
		C33.7,38.7,32.8,37.7,31.6,37.7C31.6,37.7,31.6,37.7,31.6,37.7z"/>
	<path class="st0" d="M31.6,46.3h-7.9c-1.2,0-2.1,1-2.1,2.1c0,1.2,1,2.1,2.1,2.1h7.9c1.2,0,2.1-1,2.1-2.1
		C33.7,47.3,32.8,46.3,31.6,46.3C31.6,46.3,31.6,46.3,31.6,46.3z"/>
	<path class="st0" d="M31.6,50.6h-7.9c-1.2,0-2.1,1-2.1,2.1c0,1.2,1,2.1,2.1,2.1c0,0,0,0,0,0h7.9c1.2,0,2.1-1,2.1-2.1
		C33.7,51.5,32.8,50.6,31.6,50.6C31.6,50.6,31.6,50.6,31.6,50.6z"/>
</g>
</svg>
