<svg id="Layer_1" data-name="Layer 1" xmlns="http://www.w3.org/2000/svg" viewBox="0 0 69 69">
  <defs>
    <style>
      .cls-1 {
        fill: #00a3b9;
      }
    </style>
  </defs>
  <title>ENDOCRINOLOGY AND DIABETES CENTER </title>
  <g>
    <path class="cls-1" d="M63.07235,70V56.98953l1.27458-.63835a5.76379,5.76379,0,0,0,3.20228-5.18232V17.59063a2.43683,2.43683,0,1,0-4.87365,0V30.82369H60.834V11.99255a2.43682,2.43682,0,0,0-4.87364,0V30.82369H54.11878V9.75624a2.43792,2.43792,0,1,0-4.87583,0V30.82369H47.40151V11.99255a2.42973,2.42973,0,0,0-4.53568-1.2179l-.1743.29817h2.0747v6.31836H42.52774V40.89863H40.10662l-2.78011-2.78017V31.58174a2.99645,2.99645,0,1,0-5.99289,0V41.98l5.5961,10.2576a5.77412,5.77412,0,0,0,2.49456,2.40641l3.10346,1.55385V70H40.68617V57.336L38.60109,56.2945a7.61765,7.61765,0,0,1-3.29045-3.177L29.49205,42.45039V31.58174a4.838,4.838,0,1,1,9.676,0v5.77451l1.51809,1.51606V17.39118h-7.511l-.03781.14909a13.28131,13.28131,0,0,1-2.87251,5.41542l-.0273.03149h-.00218l-.06087.06719A13.24372,13.24372,0,0,1,20.3411,27.464H5.78938a5.4033,5.4033,0,0,1-5.3986-5.39654V6.39652A5.40329,5.40329,0,0,1,5.78938,1H20.3411a13.24711,13.24711,0,0,1,9.83342,4.4096l.06087.06511h.00218l.0273.03357a13.25467,13.25467,0,0,1,2.87251,5.41546l.03781.14908h7.6244l.03781-.14908a4.2646,4.2646,0,0,1,6.52207-2.47569l.21211.14489.086-.24149a4.25024,4.25024,0,0,1,8.04439,0l.08613.24149.21416-.14489a4.27869,4.27869,0,0,1,6.6733,3.5445v2.08719l.29811-.17426a4.23882,4.23882,0,0,1,2.1398-.59426,4.28317,4.28317,0,0,1,4.27731,4.27941V51.16886a7.59349,7.59349,0,0,1-4.22066,6.83069l-.2562.12809V70ZM5.78938,2.84154a3.55822,3.55822,0,0,0-3.55716,3.555V22.06746a3.55961,3.55961,0,0,0,3.55716,3.555H20.3411a11.281,11.281,0,0,0,6.80544-2.27832l.47459-.357H25.93707A3.16214,3.16214,0,0,1,22.77683,19.827V8.63491a3.16349,3.16349,0,0,1,3.16024-3.1602h1.68406l-.47664-.35489A11.27082,11.27082,0,0,0,20.3411,2.84154Zm20.14769,4.4747a1.31959,1.31959,0,0,0-1.31866,1.31867V19.827a1.31825,1.31825,0,0,0,1.31866,1.31869H29.3703l.06087-.07978a11.305,11.305,0,0,0,0-13.66772l-.06087-.0819Zm7.58044,5.81228c.02717.32758.05447.71816.05447,1.10242,0,.38638-.02512.758-.05447,1.10451l-.019.21419h9.42393V12.91225H33.49855Z" transform="translate(-0.39078 -1)"/>
    <path class="cls-1" d="M51.87875,55.44888v-4.313a12.436,12.436,0,0,0-3.6643-8.84656l-2.64156-2.63945,1.30187-1.30611,2.64169,2.64368a14.26068,14.26068,0,0,1,4.20374,10.14844v4.313Z" transform="translate(-0.39078 -1)"/>
    <path class="cls-1" d="M4.869,5.47573H20.141V22.98821H4.869ZM6.71048,21.14667h11.591V7.31727H6.71048Z" transform="translate(-0.39078 -1)"/>
    <rect class="cls-1" x="8.95499" y="15.66985" width="1.84157" height="1.84154"/>
    <rect class="cls-1" x="13.42979" y="15.66985" width="1.84157" height="1.84154"/>
  </g>
</svg>
