<svg id="Layer_1" data-name="Layer 1" xmlns="http://www.w3.org/2000/svg" viewBox="0 0 70 70">
  <defs>
    <style>
      .cls-1 {
        fill: #00a3b9;
      }
    </style>
  </defs>
  <title>GASTROENTEROLOG AND OBESITY MANAGEMENT CENTER</title>
  <g>
    <path class="cls-1" d="M42.06154,17.00012c-.01871-.01594-.03743-.03458-.05337-.03458-5.11658-3.70346-6.22579-12.33416-6.24451-12.45946a1.41378,1.41378,0,0,0-2.80752.33588c.05338.38935,1.19986,9.56391,7.00692,14.11791a14.92514,14.92514,0,0,1-1.09586,2.31166c-.19463.35192-.35183.63459-.45859.86389a.25619.25619,0,0,0-.03466.088c-.28251.79456-.54647,1.58911-.81043,2.365a30.284,30.284,0,0,1-3.42624,7.78284,30.15081,30.15081,0,0,1-6.45768,6.91359,25.5314,25.5314,0,0,1-4.26873,2.22371,33.1648,33.1648,0,0,0-4.2339,2.15429,20.7459,20.7459,0,0,0-2.1198,1.57049c-1.3411,1.09317-2.61028,2.117-4.18068,2.27431-.264.01864-.51181.056-.75721.072a11.15823,11.15823,0,0,0-5.06581,1.32508C.80637,52.59217.94762,61.07885,1.017,65.15555a1.41288,1.41288,0,0,0,1.41319,1.3918H2.4487a1.425,1.425,0,0,0,1.39448-1.42646v-.01864c-.12531-5.70047.37071-11.29167,4.60461-13.78194A8.55845,8.55845,0,0,1,12.33,50.3845c.264-.016.52792-.05069.79187-.06933,2.40231-.22929,4.12991-1.63981,5.68176-2.87692a17.96046,17.96046,0,0,1,1.85568-1.37577,27.40158,27.40158,0,0,1,3.88207-1.95975,28.33483,28.33483,0,0,0,4.72731-2.48758A33.9244,33.9244,0,0,0,36.433,33.99227a33.17178,33.17178,0,0,0,3.794-8.5027c.24541-.74387.512-1.50116.77593-2.261.07193-.12271.19463-.37063.33588-.59993,1.00262-1.81573,2.381-4.30339.72271-5.62855"/>
    <path class="cls-1" d="M66.13067,21.5883A17.43605,17.43605,0,0,0,52.6659,12.14978h-.06932a9.40631,9.40631,0,0,0-1.00506-.03735,3.76481,3.76481,0,0,1-1.60783-.22929c-.016,0-.016-.016-.03466-.016-1.12776-.63719-5.57517-5.73514-5.82318-9.35056a1.407,1.407,0,1,0-2.80752.19195c.304,4.69533,5.27915,10.49711,7.23621,11.62764a5.8162,5.8162,0,0,0,2.99955.61856,5.83673,5.83673,0,0,1,.79464.03466,14.41029,14.41029,0,0,1,11.29159,7.99342,28.68065,28.68065,0,0,1,2.91151,14.29383c-.54663,13.478-7.2149,23.2552-18.79176,27.54256-3.28222,1.23712-14.69652,3.7221-23.8924-1.03988a.01668.01668,0,0,1-.01611-.01863,14.71369,14.71369,0,0,1-4.9405-4.46336l-.01871-.03466C17.57,57.479,15.77026,55.026,12.22408,56.42045c-3.93544,1.48245-3.93544,7.18292-3.93544,9.59849a1.41182,1.41182,0,0,0,2.82363,0c0-1.693,0-6.15906,2.117-6.96957h.01855c1.39188-.54663,1.9224-.104,3.38881,1.87171l.03206.03466.01872.016a17.20133,17.20133,0,0,0,5.91105,5.27647A29.82282,29.82282,0,0,0,36.431,69.35446c.72532,0,1.44787-.01863,2.19173-.05061a37.063,37.063,0,0,0,10.1238-1.89042A30.15869,30.15869,0,0,0,63.731,55.85788,35.32493,35.32493,0,0,0,69.35951,37.3273a31.66641,31.66641,0,0,0-3.22884-15.739"/>
    <path class="cls-1" d="M61.89531,35.05266a3.659,3.659,0,0,0-2.55707-2.277h-.056c-.75721-.06932-2.22363.12262-3.47669,2.32761a22.23312,22.23312,0,0,1-10.81446,8.26015c-5.25783,2.04771-10.58776,2.39694-16.23485,2.75154a15.17258,15.17258,0,0,0-4.762.91718,7.63054,7.63054,0,0,0-4.92455,5.32993A7.71,7.71,0,0,0,21.08,59.35035a13.76329,13.76329,0,0,0,5.43652,3.29817,26.22038,26.22038,0,0,0,9.1054,1.589,28.7608,28.7608,0,0,0,6.72164-.81319,30.75556,30.75556,0,0,0,13.81661-7.70815,22.73735,22.73735,0,0,0,6.15906-9.29994,14.8036,14.8036,0,0,0-.42392-11.36361M59.637,45.48037a.065.065,0,0,1-.01871.03735,19.91285,19.91285,0,0,1-5.43392,8.1481,27.91468,27.91468,0,0,1-12.52871,7.02564,24.45527,24.45527,0,0,1-14.18455-.69057,11.23542,11.23542,0,0,1-4.32731-2.57562,4.58665,4.58665,0,0,1,1.85568-7.76413c.01871,0,.01871,0,.03206-.016a12.49761,12.49761,0,0,1,3.90061-.72523c5.59389-.35192,11.401-.71987,17.04545-2.92754a24.34992,24.34992,0,0,0,12.19282-9.38791.35554.35554,0,0,0,.056-.088,2.68416,2.68416,0,0,1,.68788-.87983,2.00647,2.00647,0,0,1,.368.57861c0,.01863.01871.03726.03742.056a11.95073,11.95073,0,0,1,.31734,9.20922"/>
  </g>
</svg>
