<?xml version="1.0" encoding="utf-8"?>
<!-- Generator: Adobe Illustrator 23.0.3, SVG Export Plug-In . SVG Version: 6.00 Build 0)  -->
<svg version="1.1" id="Layer_1" xmlns="http://www.w3.org/2000/svg" xmlns:xlink="http://www.w3.org/1999/xlink" x="0px" y="0px"
	 viewBox="0 0 70 70" style="enable-background:new 0 0 70 70;" xml:space="preserve">
<style type="text/css">
	.st0{fill:#00A3B9;}
</style>
<title>INFECTIOUS DISEASES</title>
<path class="st0" d="M39.8,69.5c-6.8,0-14.1-5.6-21.7-16.7c-3.5-5.1-6.6-10.6-9.3-16.2l0-0.1c-1-1.6-1.4-3.6-1-5.5
	c0.6-3,3.3-5.1,6.3-5.1c2.5,0,4.8,1.3,6.2,3.4l3.6,5v-22c0-3.2,2.6-5.8,5.8-5.8c0.6,0,1.2,0.1,1.7,0.3l1.3,0.4l0.1-1.4
	c0.3-3.2,3.1-5.5,6.3-5.2c1.9,0.2,3.6,1.3,4.6,3l0.5,0.9L45.2,4c0.8-0.3,1.6-0.5,2.4-0.5c3.2,0,5.8,2.6,5.8,5.8v3.8l1.4-0.4
	c3.1-0.9,6.3,0.8,7.3,3.9c0.2,0.5,0.3,1.1,0.3,1.7v29.1C62.4,53.5,58.3,69.5,39.8,69.5 M14.1,28.6c-0.7,0-1.4,0.2-2,0.6
	c-0.9,0.6-1.5,1.4-1.7,2.4c-0.3,1.2,0,2.5,0.7,3.6c0,0.1,0.1,0.1,0.1,0.2c4,8.8,16.9,31.5,28.7,31.5c19.6,0,19.8-19.3,19.8-19.5
	V18.2c0-1.7-1.4-3.1-3.2-3.1c-1.7,0-3.1,1.4-3.1,3.1v15.7c0,0.7-0.6,1.3-1.3,1.3s-1.3-0.6-1.3-1.3c0,0,0,0,0,0V9.3
	c0-1.7-1.4-3.1-3.1-3.1c-1.7,0-3.1,1.4-3.1,3.1v21.6c0,0.7-0.6,1.3-1.3,1.3c-0.7,0-1.3-0.6-1.3-1.3V6.3c0-1.7-1.4-3.1-3.1-3.1
	c-1.7,0-3.1,1.4-3.1,3.1v24.6c0,0.7-0.6,1.3-1.3,1.3c-0.7,0-1.3-0.6-1.3-1.3V12.3c0-1.7-1.4-3.1-3.1-3.1c-1.7,0-3.1,1.4-3.1,3.1
	c0,0,0,0,0,0v26.1c0,0.6-0.4,1.1-0.9,1.3c-0.1,0-0.3,0.1-0.4,0.1c-0.4,0-0.8-0.2-1.1-0.5l-6-8.3l-0.1-0.1
	C17.2,29.4,15.7,28.6,14.1,28.6 M47.3,57.3c-1.1,0-2-0.9-2-2s0.9-2,2-2c1.1,0,2,0.9,2,2C49.3,56.4,48.4,57.3,47.3,57.3 M39.8,57.3
	c-1.1,0-2-0.9-2-2c0-1.1,0.9-2,2-2c1.1,0,2,0.9,2,2C41.8,56.4,40.9,57.3,39.8,57.3 M32.3,57.3c-1.1,0-2-0.9-2-2c0-1.1,0.9-2,2-2
	c1.1,0,2,0.9,2,2c0,0,0,0,0,0C34.3,56.4,33.4,57.3,32.3,57.3 M52,51.5c-1.1,0-2-0.9-2-2c0-1.1,0.9-2,2-2c1.1,0,2,0.9,2,2
	c0,0,0,0,0,0C54,50.6,53.1,51.5,52,51.5 M44.5,51.5c-1.1,0-2-0.9-2-2s0.9-2,2-2c1.1,0,2,0.9,2,2C46.5,50.6,45.6,51.5,44.5,51.5
	 M37.1,51.5c-1.1,0-2-0.9-2-2s0.9-2,2-2c1.1,0,2,0.9,2,2c0,0,0,0,0,0C39.1,50.6,38.2,51.5,37.1,51.5 M29.6,51.5c-1.1,0-2-0.9-2-2
	c0-1.1,0.9-2,2-2c1.1,0,2,0.9,2,2C31.6,50.6,30.7,51.5,29.6,51.5 M54.7,46c-1.1,0-2-0.9-2-2c0-1.1,0.9-2,2-2c1.1,0,2,0.9,2,2
	C56.7,45.1,55.8,46,54.7,46 M47.3,46c-1.1,0-2-0.9-2-2c0-1.1,0.9-2,2-2c1.1,0,2,0.9,2,2c0,0,0,0,0,0C49.3,45.1,48.4,46,47.3,46
	 M39.8,46c-1.1,0-2-0.9-2-2c0-1.1,0.9-2,2-2c1.1,0,2,0.9,2,2c0,0,0,0,0,0C41.8,45.1,40.9,46,39.8,46 M32.3,46c-1.1,0-2-0.9-2-2
	c0-1.1,0.9-2,2-2c1.1,0,2,0.9,2,2c0,0,0,0,0,0C34.3,45.1,33.4,46,32.3,46 M25.4,46c-1.1,0-2-0.9-2-2c0-1.1,0.9-2,2-2
	c1.1,0,2,0.9,2,2c0,0,0,0,0,0C27.4,45.1,26.5,46,25.4,46 M50,40.6c-1.1,0-2-0.9-2-2c0-1.1,0.9-2,2-2c1.1,0,2,0.9,2,2c0,0,0,0,0,0
	C52,39.6,51.1,40.5,50,40.6 M42.5,40.6c-1.1,0-2-0.9-2-2c0-1.1,0.9-2,2-2c1.1,0,2,0.9,2,2c0,0,0,0,0,0
	C44.5,39.6,43.6,40.5,42.5,40.6 M35,40.6c-1.1,0-2-0.9-2-2s0.9-2,2-2c1.1,0,2,0.9,2,2c0,0,0,0,0,0C37.1,39.6,36.2,40.5,35,40.6"/>
</svg>
