<?xml version="1.0" encoding="utf-8"?>
<!-- Generator: Adobe Illustrator 23.0.3, SVG Export Plug-In . SVG Version: 6.00 Build 0)  -->
<svg version="1.1" id="Layer_1" xmlns="http://www.w3.org/2000/svg" xmlns:xlink="http://www.w3.org/1999/xlink" x="0px" y="0px"
	 viewBox="0 0 70 70" style="enable-background:new 0 0 70 70;" xml:space="preserve">
<style type="text/css">
	.st0{fill:#00A3B9;}
</style>
<title>NEPHROLOGY CENTER</title>
<g>
	<path class="st0" d="M29.8,23.2c-0.4-2.7-1.8-5.1-4-6.8c0.7-1.4,1-2.8,1-4.4c0-2.8-1.1-5.4-3.1-7.3c-4.2-4-10.8-4-15.1,0
		C3.2,9.9,0.1,17.1,0,24.7v0.6c0,7.6,3.1,14.8,8.6,20c4.2,4,10.8,4,15.1,0c0.3-0.3,0.6-0.6,0.8-0.9v17.9h2.3V38
		c0-2.8-1.1-5.4-3.1-7.3c-3.1-3-3.2-7.9-0.3-11c0,0,0,0,0,0c0.1-0.1,0.2-0.2,0.3-0.3c0.3-0.3,0.6-0.6,0.9-1c1.6,1.3,2.6,3.1,2.9,5.2
		l0.9,5.7c0.5,3.5,0.8,7,0.8,10.5v22.6h2.3V39.7c0-3.6-0.3-7.3-0.8-10.9L29.8,23.2z M22.1,17.7c-0.7,0.7-1.3,1.5-1.8,2.3
		c-2-0.8-3.4-2.6-3.9-4.7L14,16c0.7,2.8,2.7,5.1,5.3,6.2c-0.5,1.9-0.5,3.8,0,5.7C16.7,29,14.7,31.3,14,34l2.3,0.6
		c0.5-2.1,2-3.8,3.9-4.7c0.5,0.9,1.1,1.6,1.8,2.3c3.1,2.9,3.3,7.9,0.3,11c-0.1,0.1-0.2,0.2-0.3,0.3c-3.3,3.1-8.5,3.1-11.8,0
		c-5-4.8-7.8-11.4-7.8-18.2v-0.6c0-6.9,2.8-13.6,7.9-18.3c3.3-3.1,8.5-3.1,11.8,0c3.1,2.9,3.3,7.9,0.3,11c0,0,0,0,0,0
		C22.3,17.4,22.2,17.5,22.1,17.7L22.1,17.7z"/>
	<path class="st0" d="M46.3,4.7c-2,1.9-3.1,4.6-3.1,7.3c0,1.5,0.3,3,1,4.4c-2.1,1.7-3.5,4.1-4,6.8l-0.9,5.7
		c-0.6,3.6-0.8,7.2-0.8,10.9v22.6h2.3V39.7c0-3.5,0.3-7,0.8-10.5l0.9-5.7c0.3-2,1.3-3.8,2.9-5.1c0.3,0.4,0.6,0.7,0.9,1
		c3.1,3,3.2,7.9,0.3,11c0,0,0,0,0,0c-0.1,0.1-0.2,0.2-0.3,0.3c-2,1.9-3.1,4.5-3.1,7.3v24.3h2.3V44.4c0.3,0.3,0.5,0.6,0.8,0.9
		c4.2,4,10.8,4,15.1,0c5.5-5.2,8.6-12.4,8.6-20v-0.6c0-7.6-3.1-14.8-8.6-20C57.1,0.7,50.5,0.7,46.3,4.7 M67.6,25.3
		c0,6.9-2.8,13.6-7.9,18.3c-3.3,3.1-8.5,3.1-11.8,0c-3.1-2.9-3.3-7.8-0.3-11c0,0,0,0,0,0c0.1-0.1,0.2-0.2,0.3-0.3
		c0.7-0.7,1.3-1.5,1.8-2.3c2,0.8,3.4,2.6,3.9,4.7L56,34c-0.7-2.8-2.6-5.1-5.3-6.2c0.5-1.9,0.5-3.8,0-5.7c2.6-1.1,4.6-3.4,5.3-6.2
		l-2.3-0.6c-0.5,2.1-2,3.8-3.9,4.7c-0.5-0.9-1.1-1.6-1.8-2.3c-3.1-2.9-3.3-7.9-0.3-11c0.1-0.1,0.2-0.2,0.3-0.3
		c3.3-3.1,8.5-3.1,11.8,0c5,4.7,7.9,11.3,7.9,18.2L67.6,25.3z"/>
</g>
</svg>
