<?xml version="1.0" encoding="utf-8"?>
<!-- Generator: Adobe Illustrator 23.0.3, SVG Export Plug-In . SVG Version: 6.00 Build 0)  -->
<svg version="1.1" id="Layer_1" xmlns="http://www.w3.org/2000/svg" xmlns:xlink="http://www.w3.org/1999/xlink" x="0px" y="0px"
	 viewBox="0 0 70 70" style="enable-background:new 0 0 70 70;" xml:space="preserve">
<style type="text/css">
	.st0{fill:#00B7CD;}
</style>
<title>NEUROSCIENCE CENTER</title>
<g id="U485Xz">
	<g>
		<path class="st0" d="M41.2,0.6c1.1,0.2,2.1,0.3,3.2,0.5C49.9,2.1,55,4.9,58.8,9c3.1,3.4,5,7.6,5.5,12.1c0.7,5.6-0.4,11.3-3.1,16.3
			c-1.3,2.5-2.8,4.9-3.8,7.5c-0.9,1.9-1.4,3.9-1.4,6c0.2,1.8,0.6,3.6,1.4,5.3c1.4,3,2.9,5.9,4.7,8.7c0.2,0.3,0.4,0.7,0.6,1.1
			c0.3,0.8,0,1.6-0.8,2c-0.7,0.4-1.6,0.2-2.1-0.4c-2.7-4.3-5.3-8.5-6.7-13.4c-0.8-3.3-0.5-6.7,0.9-9.8c1.2-2.7,2.6-5.4,4-8
			c1.8-3.3,2.8-6.9,3.1-10.7c0.5-5.8-1.7-11.4-6-15.4C51.7,7,47.5,4.9,42.9,4.3c-5.7-1-11.5,0.1-16.4,3.1
			c-4.6,2.6-8.3,6.7-10.3,11.7c-0.9,2.2-1.2,4.6-0.9,7c0.2,1.3,0,2.7-0.6,3.8c-1.3,2.8-3,5.5-4.5,8.1c-0.3,0.6-0.7,1.2-1,1.8
			c-0.4,0.7-0.3,0.8,0.4,1c1.2,0.3,2.3,0.5,3.5,0.7c1,0.1,1.7,0.9,1.6,1.9c0,0.2-0.1,0.4-0.2,0.6c-0.2,0.6-0.3,1.1-0.6,1.7
			c-0.2,0.5,0,0.7,0.5,0.8c0.7,0.1,1.4,0.2,2.1,0.3c0.7,0.1,1.3,0.7,1.4,1.5c0.1,0.9-0.6,1.7-1.5,1.8c0,0,0,0,0,0
			c-0.6,0.1-1.2,0-1.8-0.1c1.2,1.3,0.8,2.6,0.4,4c-0.1,0.4-0.2,0.9-0.3,1.3c-0.3,1.4,0,1.9,1.2,2.5c2,0.8,4.1,1.4,6.2,1.6
			c1.6,0.3,3.3,0.5,4.9,0.7c2.2,0.3,4.1,1.5,5.3,3.4c0.7,1.1,1.3,2.3,1.8,3.5c0.5,0.8,0.2,1.8-0.6,2.3c-0.8,0.5-1.8,0.2-2.3-0.6
			c-0.1-0.1-0.1-0.2-0.1-0.3c-0.5-1-1-2.1-1.6-3c-0.6-1-1.6-1.7-2.8-1.9c-3.1-0.4-6.1-0.9-9.2-1.6c-1.1-0.3-2.1-0.7-3.1-1.1
			c-2.7-1.3-3.7-3.4-3-6.3c0.1-0.4,0.2-0.8,0.3-1.2c0.1-0.4-0.1-0.9-0.5-1.1c0,0,0,0,0,0c-1.4-0.6-1.7-1.5-0.9-2.8
			c0.2-0.2,0.1-0.4-0.1-0.6c0,0,0,0,0,0c-0.5-0.5-0.7-1.3-0.3-2c0.2-0.5,0.4-1,0.6-1.5c0.2-0.4,0.1-0.6-0.3-0.7
			c-0.6-0.1-1.2-0.3-1.8-0.4c-2-0.4-3.3-2.2-2.9-4.2c0.1-0.5,0.3-0.9,0.5-1.3c1.6-2.7,3.2-5.4,4.7-8.1c0.2-0.4,0.4-0.8,0.6-1.1
			c0.6-0.9,0.8-2,0.6-3.1c-0.4-3.4,0.2-6.9,1.8-10c2.7-5.5,7.2-9.9,12.7-12.6C29.4,2,32.6,1,35.9,0.7c0.1,0,0.2-0.1,0.3-0.1
			L41.2,0.6z"/>
		<path class="st0" d="M45.2,54.7c0.1-3.5,0.5-6.9,1.4-10.3c0.1-0.7,0.2-1.4,0.3-2.1c0.3-1.8-0.3-3.6-1.6-4.8
			c-1.3-1.3-2.4-2.7-3.8-3.9c-0.2-0.2-0.6-0.3-0.9-0.3c-0.8,0.2-1.7,0-2.4-0.5c-0.2-0.2-0.5-0.2-0.7-0.1c-2.4,0.7-5,0.1-6.8-1.5
			c-0.4-0.3-0.7-0.8-0.9-1.3c-0.2-0.5-0.5-0.6-0.9-0.4c-1.4,0.5-2.8,0.3-4.1-0.3c-0.4-0.2-0.7-0.5-1-0.9c-0.4-0.7-0.9-1.3-1.5-1.9
			c-2.6-2.7-1.9-7.9,1-10c0.2-0.1,0.4-0.3,0.5-0.6c1.4-3,3.9-4.2,6.9-4.8c0.6-0.1,1.1-0.3,1.6-0.5c2.2-1.3,4.8-1.8,7.3-1.3
			c2.7,0.4,5.4,1.2,7.9,2.3c2.5,1,4.6,2.8,5.8,5.2c0.3,0.7,0.8,1.3,1.4,1.8c2,1.9,2,5,0.1,7c-0.3,0.3-0.4,0.5-0.1,0.8
			c0.4,0.7,0.6,1.5,0.4,2.3c-0.5,3.1-2.5,4.8-5.3,5.8c-0.5,0.2-0.7,0.4-0.8,0.9c-0.2,1.6-0.1,3.1,0.2,4.7c0.2,1.4,0.1,2.9-0.2,4.3
			c-0.5,2.4-1.1,4.8-1.3,7.3c-0.5,3.1-0.2,6.3,0.8,9.3c0.3,0.7,0.6,1.3,1,1.9c0.4,0.8,0.3,1.4-0.2,1.8c-0.6,0.4-1.3,0.1-1.7-0.6
			c-1.5-2.5-2.3-5.3-2.2-8.3C45.2,55.4,45.2,55,45.2,54.7z M46.6,35.5c0.1-0.5,0.3-0.8-0.3-1c-0.5-0.1-0.8-0.7-0.7-1.2c0,0,0,0,0,0
			c0.1-0.6,0.6-0.9,1.2-0.9c0.5,0,0.9,0,1.4,0c2.2-0.3,4-1.8,4.6-3.9c0.2-0.6,0-1.2-0.6-1.5c-0.1,0-0.2-0.1-0.3-0.1
			c-0.8-0.2-1.6-0.2-2.5-0.1c-2.1,0.4-4.2,1.1-6.1,2.2c-0.5,0.4-1.2,0.3-1.6-0.3c0,0-0.1-0.1-0.1-0.1c-0.3-0.6,0-1.3,0.5-1.5
			c0,0,0.1,0,0.1-0.1c1-0.6,2-1.1,3.1-1.5c2-0.9,4.2-1.3,6.4-1c0.2,0,0.3,0,0.5-0.1c0.7-0.4,1.4-0.8,1.5-1.7c0.2-1-0.1-2.1-1-2.7
			c-0.8-0.4-1.3-1.2-1.5-2.1c-0.1-0.2-0.1-0.3-0.2-0.5c-1-1.6-2.4-2.8-4-3.6c-2.4-1.1-4.9-1.9-7.5-2.3c-1.9-0.5-4-0.3-5.7,0.7
			c-1.1,0.6-2.3,1-3.5,1.2c-2.2,0.3-4.1,1.7-4.8,3.8c-0.1,0.4-0.4,0.7-0.7,0.8c-1.6,0.7-2.6,4-1.6,6c0.1,0.2,0.3,0.4,0.6,0.3
			c0,0,0,0,0.1,0c1.1-0.3,1.7,0.3,1.5,1.5c-0.2,0.6,0.1,1.3,0.7,1.6c0.1,0,0.1,0,0.2,0.1c0.8,0.2,1.6,0.1,2.4-0.2
			c0.5-0.1,0.8-0.4,1-0.9c1-1.8,2.3-3.2,4.5-3.1c0.3,0,0.5-0.1,0.6-0.3c1.1-1.2,2.6-1.9,4.2-2c0.3,0,0.5-0.1,0.7-0.3
			c1.7-2.1,4.4-3,7-2.3c0.6,0.1,1.1,0.6,1,1.2c0,0,0,0.1,0,0.1c-0.1,0.6-0.7,1-1.3,0.9c0,0-0.1,0-0.1,0c-0.6-0.1-1.2-0.2-1.9-0.1
			c-1.3,0-2.5,0.8-3.2,2c-0.2,0.5-0.7,0.8-1.3,0.7c-1.7-0.1-3.3,0.7-4.2,2.1c-0.3,0.5-0.8,0.7-1.3,0.5c-1.2-0.4-1.7-0.1-2.6,1.2
			c-0.5,0.8-0.4,1.8,0.2,2.5c1.4,1.4,3.6,1.6,5.4,0.6c0.4-0.4,1.1-0.5,1.5-0.1c0.1,0.1,0.2,0.3,0.3,0.4c0.1,0.5,0.7,0.8,1.2,0.7
			c0.1,0,0.2-0.1,0.2-0.1c0.6-0.2,1.3-0.1,1.7,0.4C43.8,32.6,45.2,34,46.6,35.5z"/>
	</g>
</g>
</svg>
