<svg id="Layer_1" data-name="Layer 1" xmlns="http://www.w3.org/2000/svg" viewBox="0 0 70 70">
  <defs>
    <style>
      .cls-1 {
        fill: #00a3b9;
      }
    </style>
  </defs>
  <title>PLASTIC SURGERY, DERMATOLOGY AND AESTHETIC CENTRE</title>
  <g>
    <path class="cls-1" d="M35.1378,57.343a16.89261,16.89261,0,0,1-12.02564-4.981l-1.78755-1.78756L9.60094,41.4535A20.72258,20.72258,0,0,1,1.58652,25.06611V2.46988a1.56573,1.56573,0,0,1,3.13146,0V25.06611a17.51815,17.51815,0,0,0,6.80465,13.91623l11.783,9.1623a10.18057,10.18057,0,0,1,.80734.79192c1.7619,1.852,5.02481,5.275,11.02212,5.275,5.99983,0,9.2629-3.42295,11.01693-5.26215a9.29642,9.29642,0,0,1,.81773-.80475l11.78051-9.1649a17.502,17.502,0,0,0,6.80465-13.91363V2.46988a1.567,1.567,0,0,1,3.134,0V25.06611A20.72258,20.72258,0,0,1,60.6745,41.4535L48.98956,50.54093,47.16328,52.362A16.89251,16.89251,0,0,1,35.1378,57.343"/>
    <path class="cls-1" d="M24.47464,36.0195a1.56573,1.56573,0,0,1,0-3.13145H45.79907a1.56573,1.56573,0,1,1,0,3.13145Z"/>
    <path class="cls-1" d="M30.8731,42.41757a1.567,1.567,0,0,1,0-3.134h8.53018a1.567,1.567,0,0,1,0,3.134Z"/>
    <path class="cls-1" d="M21.27816,17.5022a10.12432,10.12432,0,0,1-6.29392-2.2028,1.56531,1.56531,0,1,1,1.94484-2.45313,6.9301,6.9301,0,0,0,8.69549.0026,1.55049,1.55049,0,0,1,.98273-.34826,1.56426,1.56426,0,0,1,.96463,2.79879,10.1295,10.1295,0,0,1-6.29377,2.2028"/>
    <path class="cls-1" d="M48.99744,17.5022a10.12961,10.12961,0,0,1-6.29393-2.2028,1.56531,1.56531,0,1,1,1.94484-2.45313,6.9301,6.9301,0,0,0,8.69549.0026A1.56511,1.56511,0,1,1,55.2912,15.2994a10.1295,10.1295,0,0,1-6.29376,2.2028"/>
    <path class="cls-1" d="M26.61848,68.0034a28.601,28.601,0,0,1-16.09605-8.15107,29.14449,29.14449,0,0,1-4.43662-5.6981l-.4772-.79444-.97,2.91223a1.56647,1.56647,0,0,1-2.88632.20632,1.54516,1.54516,0,0,1-.08518-1.19685L3.79775,48.887a1.56628,1.56628,0,0,1,1.48575-1.0731,1.63635,1.63635,0,0,1,.498.08l6.39437,2.13322a1.544,1.544,0,0,1,.9081.7842,1.5664,1.5664,0,0,1-1.40073,2.26735,1.54429,1.54429,0,0,1-.4953-.08L8.477,52.0958l.63448,1.006A26.09118,26.09118,0,0,0,26.83512,64.88745a1.58355,1.58355,0,0,1,1.34122,1.55282,1.56758,1.56758,0,0,1-1.55786,1.56313"/>
    <path class="cls-1" d="M43.65728,68.0034a1.56531,1.56531,0,0,1-.22451-3.11335A26.10685,26.10685,0,0,0,61.16414,53.10183l.63195-1.006-2.70841.90283a1.54429,1.54429,0,0,1-.4953.08,1.56612,1.56612,0,0,1-.49531-3.05155l6.397-2.13322a1.6363,1.6363,0,0,1,.498-.08,1.56292,1.56292,0,0,1,1.48307,1.0731l2.13329,6.39453a1.56527,1.56527,0,0,1-.9906,1.98105,1.58562,1.58562,0,0,1-.49782.0825A1.56034,1.56034,0,0,1,65.637,56.272l-.97-2.91223-.4772.79444a29.14487,29.14487,0,0,1-4.43662,5.6981A28.60127,28.60127,0,0,1,43.65728,68.0034"/>
  </g>
</svg>
