<?xml version="1.0" encoding="utf-8"?>
<!-- Generator: Adobe Illustrator 23.0.3, SVG Export Plug-In . SVG Version: 6.00 Build 0)  -->
<svg version="1.1" id="Layer_1" xmlns="http://www.w3.org/2000/svg" xmlns:xlink="http://www.w3.org/1999/xlink" x="0px" y="0px"
	 viewBox="0 0 70 70" style="enable-background:new 0 0 70 70;" xml:space="preserve">
<style type="text/css">
	.st0{fill:#00A3B9;}
</style>
<title>UROLOGY CENTER</title>
<path class="st0" d="M58.4,0.5c-2.5,0-4.8,1.1-6.5,2.9c-1.8,1.9-2.7,4.6-2.5,7.2c-8.1,3.9-13.3,12.1-13.3,21.1v6.7h-2.2v-6.7
	c0-9-5.2-17.2-13.3-21.1c0.3-2.6-0.6-5.3-2.5-7.2c-1.7-1.8-4-2.8-6.5-2.9c-6.1,0-11.1,7-11.1,15.6c0,8.6,5,15.6,11.1,15.6
	c2.5,0,4.8-1.1,6.5-2.9c2.5-2.7,3.2-6.7,1.8-10.1c-0.1-0.3-0.2-0.7-0.3-1c4.7,3.1,7.6,8.3,7.6,14v7.1c-4.1,1.2-6.5,5.6-5.3,9.7
	c0.2,0.8,0.6,1.6,1.1,2.3l4.6,6.5c1.8,2.4,2.8,5.4,2.9,8.4v3.8h8.9v-3.8c0.1-3.1,1.1-6,2.9-8.5l4.4-6.3c0.8-1.1,1.3-2.5,1.5-3.8
	c0.4-3.8-1.9-7.3-5.5-8.4v-7c0-5.6,2.9-10.9,7.6-14c-0.1,0.3-0.2,0.7-0.3,1c-1.5,3.4-0.8,7.4,1.8,10.1c1.7,1.8,4,2.8,6.5,2.9
	c6.1,0,11.1-7,11.1-15.6C69.5,7.5,64.5,0.5,58.4,0.5 M16.5,27.2c-1.3,1.4-3,2.2-4.9,2.2c-4.9,0-8.9-6-8.9-13.4
	c0-7.4,4-13.4,8.9-13.4c1.9,0.1,3.6,0.9,4.9,2.2c1.9,2.1,2.4,5.1,1.3,7.7c-0.8,2.2-0.8,4.6,0,6.8C18.9,22.1,18.4,25.1,16.5,27.2
	 M19.5,15c0.1-0.5,0.2-1,0.4-1.5c0.1-0.2,0.1-0.4,0.2-0.7c7.1,3.6,11.6,10.9,11.6,18.8v6.7h-1.9c-0.1,0-0.2,0-0.3,0v-6.7
	C29.4,24.7,25.6,18.4,19.5,15 M44.7,42.4c1.1,1.2,1.6,2.8,1.4,4.4c-0.1,1-0.5,2-1.1,2.8L40.5,56c-2.1,2.8-3.2,6.2-3.3,9.7v1.6h-4.5
	v-1.6c-0.1-3.5-1.2-6.9-3.3-9.7l-4.5-6.5c-1.2-1.7-1.3-3.9-0.4-5.8c1-2,3.1-3.2,5.3-3.1h10.7C42.1,40.6,43.6,41.2,44.7,42.4
	 M40.6,31.7v6.7c0,0-0.1,0-0.1,0h-2.1v-6.7c0-8,4.5-15.2,11.6-18.8c0.1,0.2,0.1,0.4,0.2,0.7c0.2,0.5,0.3,1,0.4,1.5
	C44.4,18.4,40.6,24.7,40.6,31.7 M58.4,29.4c-1.9-0.1-3.6-0.9-4.9-2.2c-1.9-2.1-2.4-5.1-1.3-7.7c0.8-2.2,0.8-4.6,0-6.8
	c-1.1-2.6-0.6-5.6,1.3-7.7c1.3-1.4,3-2.2,4.9-2.2c4.9,0,8.9,6,8.9,13.4C67.3,23.4,63.3,29.4,58.4,29.4"/>
</svg>
