<svg id="Layer_1" data-name="Layer 1" xmlns="http://www.w3.org/2000/svg" viewBox="0 0 98.4925 90">
  <defs>
    <style>
      .cls-1 {
        fill: #93c8d2;
      }
    </style>
  </defs>
  <title>10</title>
  <path class="cls-1" d="M79.97152,43.98952H49.69916a2.88835,2.88835,0,0,0-2.8846,2.8846v4.81471a1.42118,1.42118,0,0,0,2.84235,0V46.87412a.04071.04071,0,0,1,.04225-.04225H79.97152a.04064.04064,0,0,1,.04224.04225v20.1112a.04354.04354,0,0,1-.04224.04568H69.7434V63.74141a4.90807,4.90807,0,0,0-9.81613,0V67.031H49.69916a.04361.04361,0,0,1-.04225-.04568v-8.6714a1.42118,1.42118,0,0,0-2.84235,0v8.6714a2.89062,2.89062,0,0,0,2.8846,2.88459H79.97152a2.89055,2.89055,0,0,0,2.88459-2.88459V46.87412a2.88827,2.88827,0,0,0-2.88459-2.8846M62.76619,67.031V63.74141a2.06921,2.06921,0,0,1,4.13841,0V67.031Z"/>
  <path class="cls-1" d="M67.77512,57.0946a4.2653,4.2653,0,0,0,0-8.53059H61.89329a4.2653,4.2653,0,0,0,0,8.53059Zm1.42644-4.26535a1.42644,1.42644,0,0,1-1.42644,1.423h-1.518V51.40281h1.518a1.42718,1.42718,0,0,1,1.42644,1.42644m-8.73116,0a1.42643,1.42643,0,0,1,1.42289-1.42644h1.52157v2.84944H61.89329a1.42569,1.42569,0,0,1-1.42289-1.423"/>
  <path class="cls-1" d="M42.50805,20.68739h2.88459V23.572a2.35846,2.35846,0,0,0,2.3563,2.3563H51.19a2.35839,2.35839,0,0,0,2.3563-2.3563V20.68739h2.88459a2.35836,2.35836,0,0,0,2.3563-2.35619V14.88661a2.36067,2.36067,0,0,0-2.3563-2.3563H53.54628V9.64915A2.35837,2.35837,0,0,0,51.19,7.293h-3.441a2.35844,2.35844,0,0,0-2.3563,2.35619v2.88116H42.50805a2.36074,2.36074,0,0,0-2.3563,2.3563V18.3312a2.35844,2.35844,0,0,0,2.3563,2.35619m.48261-5.31484h2.88448a2.35836,2.35836,0,0,0,2.3563-2.35619v-2.8846h2.47249v2.8846a2.36072,2.36072,0,0,0,2.3563,2.35619h2.88814v2.4726H53.06023a2.36376,2.36376,0,0,0-2.3563,2.35974v2.881H48.23144v-2.881a2.3614,2.3614,0,0,0-2.3563-2.35974H42.99066Z"/>
  <path class="cls-1" d="M96.51689,38.91878a1.41742,1.41742,0,0,0,1.41935-1.41935V16.60992a1.4197,1.4197,0,0,0-1.41935-1.41945H65.01532a15.6113,15.6113,0,0,0-31.093,0H2.42074a1.41979,1.41979,0,0,0-1.41945,1.41945V37.49943a1.4175,1.4175,0,0,0,1.41945,1.41935h1.4229V78.42953H2.42074A1.41986,1.41986,0,0,0,1.00129,79.849v6.69549a1.41977,1.41977,0,0,0,1.41945,1.41935H96.51689a1.41968,1.41968,0,0,0,1.41935-1.41935V79.849a1.41978,1.41978,0,0,0-1.41935-1.41946H95.094V38.91878ZM95.09743,36.08H88.52877V18.03282h6.56866ZM79.11776,18.03282h6.56866V36.08H79.11776Zm-9.411,0H76.279V36.08H69.70675ZM60.29917,36.08V27.84185a15.586,15.586,0,0,0,4.71615-9.809h1.85262V36.08Zm-9.411,0v-3.9271a15.45644,15.45644,0,0,0,6.57221-2.13445V36.08Zm-9.411,0V30.01843a15.45644,15.45644,0,0,0,6.57221,2.13445V36.08Zm-9.40746,0V18.03282h1.85262a15.58642,15.58642,0,0,0,4.716,9.809V36.08Zm-9.411-18.04716h6.57221V36.08H22.65867ZM49.46881,3.83526A12.77284,12.77284,0,1,1,36.69769,16.60992,12.78878,12.78878,0,0,1,49.46881,3.83526M3.84009,18.03282h6.57232v6.12485a1.4194,1.4194,0,1,0,2.8388,0V18.03282h6.56866V36.08H13.25121V30.78276a1.4194,1.4194,0,1,0-2.8388,0V36.08H3.84009Zm0,63.23906h7.57258v3.8567H3.84009ZM14.25491,46.8294H34.57743V58.61079H32.68257V50.14372a1.42276,1.42276,0,0,0-1.41946-1.423H17.56568a1.42274,1.42274,0,0,0-1.41935,1.423v31.6671a1.41968,1.41968,0,0,0,1.41935,1.41934H31.26311a1.4197,1.4197,0,0,0,1.41946-1.41934V73.34718h1.89486V85.125H14.25491ZM29.84377,80.39491H18.98514V51.56307H29.84377Zm2.8388-18.94177h1.76448v9.05169H32.68257ZM92.25519,78.42953h-42.723a1.42118,1.42118,0,1,0,0,2.84235h45.5652V85.125H37.41624V81.27188h5.48735a1.42118,1.42118,0,1,0,0-2.84235H37.41624V45.41a1.41744,1.41744,0,0,0-1.41946-1.41935H12.832A1.41967,1.41967,0,0,0,11.41267,45.41V78.42953H6.68244V38.91878H92.25519Z"/>
</svg>
