<svg id="Layer_1" data-name="Layer 1" xmlns="http://www.w3.org/2000/svg" viewBox="0 0 98.4925 90">
  <defs>
    <style>
      .cls-1 {
        fill: #93c8d2;
      }
    </style>
  </defs>
  <title>11</title>
  <path class="cls-1" d="M74.54625,53.13926h4.28526a12.43384,12.43384,0,1,0,0-24.86768H16.664a2.76316,2.76316,0,0,0-2.7627,2.76617V50.37309A27.589,27.589,0,0,0,25.02441,72.48154H8.3759v2.76271A14.17826,14.17826,0,0,0,22.18936,89.05776h44.21A14.17587,14.17587,0,0,0,80.21286,75.24425V72.48154H63.56435a27.6056,27.6056,0,0,0,10.9819-19.34228m11.192-12.43552a6.91332,6.91332,0,0,1-6.90676,6.91012h-4.144V33.797h4.144a6.91483,6.91483,0,0,1,6.90676,6.90676M74.11221,78.007a8.68482,8.68482,0,0,1-7.71283,5.5254h-44.21a8.69265,8.69265,0,0,1-7.71281-5.5254H74.11221ZM41.53169,72.48154a22.1323,22.1323,0,0,1-22.105-22.10845V33.797h49.7354V50.37309a22.1323,22.1323,0,0,1-22.105,22.10845Z"/>
  <rect class="cls-1" x="24.95485" y="6.16859" width="5.52538" height="16.57621"/>
  <rect class="cls-1" x="58.11064" y="6.16859" width="5.52538" height="16.57621"/>
  <rect class="cls-1" x="41.53101" y="0.64319" width="5.52538" height="22.10498"/>
</svg>
