<svg id="Layer_1" data-name="Layer 1" xmlns="http://www.w3.org/2000/svg" viewBox="0 0 98.4925 90">
  <defs>
    <style>
      .cls-1 {
        fill: #93c8d2;
      }
    </style>
  </defs>
  <title>12</title>
  <rect class="cls-1" x="48.20772" y="42.28294" width="2.90783" height="2.90388"/>
  <rect class="cls-1" x="45.29589" y="48.09847" width="8.72743" height="2.90783"/>
  <path class="cls-1" d="M71.47537,87.36521a1.45742,1.45742,0,0,0,1.45589,1.45989h14.543a1.45741,1.45741,0,0,0,1.45588-1.45989V83.00544a8.69685,8.69685,0,0,0-10.29068-8.58418,8.71488,8.71488,0,0,0-17.2361,0,8.4325,8.4325,0,0,0-3.12658,0,8.71494,8.71494,0,0,0-17.236,0,8.43282,8.43282,0,0,0-3.12664,0,8.7126,8.7126,0,0,0-17.2321,0,8.68762,8.68762,0,0,0-10.29068,8.58418v4.35977a1.4549,1.4549,0,0,0,1.45589,1.45989H26.39031a1.45745,1.45745,0,0,0,1.45589-1.45989V83.00544a8.51149,8.51149,0,0,0-.13529-1.45589h3.17434a8.50021,8.50021,0,0,0-.13122,1.45589v4.35977a1.454,1.454,0,0,0,1.45188,1.45989h14.547a1.45406,1.45406,0,0,0,1.45194-1.45989V83.00544a8.9259,8.9259,0,0,0-.12728-1.45589h3.16633a8.50333,8.50333,0,0,0-.12728,1.45589v4.35977a1.4541,1.4541,0,0,0,1.45194,1.45989h14.547a1.45662,1.45662,0,0,0,1.45194-1.45989V83.00544a8.93,8.93,0,0,0-.13129-1.45589H71.6066a8.92326,8.92326,0,0,0-.13123,1.45589Zm14.547-4.35977v2.90783H74.38715V83.00544a5.81763,5.81763,0,1,1,11.63525,0m-61.088,2.90783H13.29918V83.00544a5.8176,5.8176,0,1,1,11.63519,0Zm6.99706-7.27154h-5.2667a8.7645,8.7645,0,0,0-3.15839-3.16634,5.79621,5.79621,0,0,1,11.58354,0,8.76467,8.76467,0,0,0-3.15845,3.16634M45.297,85.91327H33.66179V83.00544a5.81763,5.81763,0,1,1,11.63525,0Zm7.001-7.27154h-5.2746A8.72382,8.72382,0,0,0,43.869,75.47539a5.79621,5.79621,0,0,1,11.58354,0,8.6927,8.6927,0,0,0-3.1545,3.16634m13.36166,7.27154H54.02447V83.00544a5.81763,5.81763,0,1,1,11.63525,0Zm1.72641-7.27154a8.72337,8.72337,0,0,0-3.1545-3.16634,5.79621,5.79621,0,0,1,11.58354,0,8.76494,8.76494,0,0,0-3.15838,3.16634Z"/>
  <path class="cls-1" d="M91.8369,1.55358H7.48237A1.45745,1.45745,0,0,0,6.02648,3.01347V8.82512A1.45745,1.45745,0,0,0,7.48237,10.285H10.3902V49.55442a1.45576,1.45576,0,0,0,1.45588,1.45194H38.56935l.66828,4.36371H38.02441A1.45661,1.45661,0,0,0,36.56847,56.826v5.81559a1.45662,1.45662,0,0,0,1.45594,1.45595H61.29486a1.45661,1.45661,0,0,0,1.45588-1.45595V56.826a1.45659,1.45659,0,0,0-1.45588-1.45589H60.08164l.67222-4.36371H87.47713a1.45492,1.45492,0,0,0,1.45194-1.45194V10.285H91.8369a1.45745,1.45745,0,0,0,1.45588-1.45989V3.01347A1.45745,1.45745,0,0,0,91.8369,1.55358m-26.588,31.99793-.724,2.91177H34.79835l-.72794-2.91177ZM59.839,61.18967H39.47629V58.28184H59.839Zm-17.6577-5.8196L39.719,39.371H59.60031L57.138,55.37007Zm43.84-7.2716H61.20338l1.3405-8.72742h3.11469a1.45509,1.45509,0,0,0,1.41212-1.10178l1.45194-5.81966a1.448,1.448,0,0,0-1.05813-1.75816,1.30387,1.30387,0,0,0-.35-.04783H64.20669V26.28a1.47178,1.47178,0,0,0-.42962-1.03028l-2.91578-2.91578a4.295,4.295,0,0,0,.43357-1.86959,4.36372,4.36372,0,1,0-4.36372,4.36377,4.28712,4.28712,0,0,0,1.8696-.43763l2.49412,2.49418v3.759H38.02441v-3.759l2.49412-2.49418a4.28711,4.28711,0,0,0,1.86959.43763,4.36372,4.36372,0,1,0-4.36371-4.36377,4.29832,4.29832,0,0,0,.43757,1.86959l-2.92373,2.91578A1.48093,1.48093,0,0,0,35.11659,26.28v4.36365H32.20876a1.45406,1.45406,0,0,0-1.45589,1.456,1.47883,1.47883,0,0,0,.04377.35l1.45188,5.81966A1.45516,1.45516,0,0,0,33.6607,39.371h3.11462l1.34451,8.72742H13.298V10.285H86.02124ZM56.93114,21.9202A1.45589,1.45589,0,1,1,58.387,20.46432a1.45574,1.45574,0,0,1-1.45589,1.45588m-15.999-1.45588a1.45592,1.45592,0,1,1,1.45594,1.45588,1.4566,1.4566,0,0,1-1.45594-1.45588M90.385,7.37324H8.93431V4.46547H90.385Z"/>
</svg>
