<svg id="Layer_1" data-name="Layer 1" xmlns="http://www.w3.org/2000/svg" viewBox="0 0 98.4925 90">
  <defs>
    <style>
      .cls-1 {
        fill: none;
      }

      .cls-2 {
        fill: #93c8d2;
      }
    </style>
  </defs>
  <title>12</title>
  <rect class="cls-1" x="-138" y="-239" width="420.94501" height="595.276"/>
  <path class="cls-2" d="M64.83472,77.11344H10.31914a4.22792,4.22792,0,0,1-4.30456-4.30085V57.03046a4.2296,4.2296,0,0,1,4.30456-4.30827h.718a1.73408,1.73408,0,0,0,1.4361-1.00229l5.01891-17.50237v-.14586A7.2528,7.2528,0,0,1,24.093,29.77076H51.06466a7.2436,7.2436,0,0,1,6.59711,4.30091v.14586L62.68438,51.7199a1.42556,1.42556,0,0,0,1.436,1.00229h.71435a4.2296,4.2296,0,0,1,4.30456,4.30827V72.81259a4.22792,4.22792,0,0,1-4.30456,4.30085M10.31914,55.59435A1.35642,1.35642,0,0,0,8.883,57.03046V72.81259a1.35443,1.35443,0,0,0,1.43611,1.42864H64.83472a1.35247,1.35247,0,0,0,1.43611-1.42864V57.03046a1.35446,1.35446,0,0,0-1.43611-1.43611h-.71435A4.43869,4.43869,0,0,1,59.958,52.438L54.93541,35.07762a4.22411,4.22411,0,0,0-3.87075-2.4383H24.093a4.32319,4.32319,0,0,0-3.87452,2.4383L15.19584,52.438a4.43773,4.43773,0,0,1-4.1587,3.1564Z"/>
  <path class="cls-2" d="M17.49209,88.59062H14.62364a4.22651,4.22651,0,0,1-4.30456-4.30451V75.677a1.35836,1.35836,0,0,1,1.43611-1.43611H20.3606a1.36029,1.36029,0,0,1,1.436,1.43611v8.60912a4.22873,4.22873,0,0,1-4.30456,4.30451M13.18759,77.113v7.17307a1.35829,1.35829,0,0,0,1.436,1.43605h2.86845a1.35831,1.35831,0,0,0,1.43611-1.43605V77.113Z"/>
  <path class="cls-2" d="M60.52947,88.59062H57.661a4.22874,4.22874,0,0,1-4.30456-4.30451V75.677a1.36031,1.36031,0,0,1,1.43611-1.43611h8.60912A1.3574,1.3574,0,0,1,64.834,75.677v8.60912a4.22654,4.22654,0,0,1-4.30456,4.30451M56.22868,77.113v7.17307A1.35538,1.35538,0,0,0,57.661,85.72216h2.86845a1.35637,1.35637,0,0,0,1.43611-1.43605V77.113Z"/>
  <path class="cls-2" d="M18.92712,69.94112a5.74064,5.74064,0,1,1,5.7369-5.73691,5.75793,5.75793,0,0,1-5.7369,5.73691m0-8.60912a2.86848,2.86848,0,1,0,2.86845,2.87221A2.87941,2.87941,0,0,0,18.92712,61.332"/>
  <path class="cls-2" d="M56.22868,69.94112a5.74064,5.74064,0,1,1,5.7369-5.73691,5.75793,5.75793,0,0,1-5.7369,5.73691m0-8.60912a2.86848,2.86848,0,1,0,2.86845,2.87221A2.88259,2.88259,0,0,0,56.22868,61.332"/>
  <path class="cls-2" d="M40.44769,68.505H34.707a1.43423,1.43423,0,0,1,0-2.86845h5.74067a1.43423,1.43423,0,0,1,0,2.86845"/>
  <path class="cls-2" d="M43.31648,62.76736H31.83891a1.43608,1.43608,0,1,1,0-2.87216H43.31648a1.43608,1.43608,0,0,1,0,2.87216"/>
  <path class="cls-2" d="M51.494,52.72413H23.80421A2.9989,2.9989,0,0,1,21.508,51.576a2.78014,2.78014,0,0,1-.4301-2.58045L24.52227,37.518a2.76067,2.76067,0,0,1,2.72636-2.012h20.801a2.80271,2.80271,0,0,1,2.7263,2.012l3.44441,11.47757a2.78015,2.78015,0,0,1-.43005,2.58045A2.999,2.999,0,0,1,51.494,52.72413M27.24863,38.37805,23.80421,49.85562H51.494L48.04961,38.37805Z"/>
  <path class="cls-2" d="M86.35649,88.59244H69.13825a1.35535,1.35535,0,0,1-1.43234-1.436v-5.737a1.35342,1.35342,0,0,1,1.43234-1.43605H86.35649a1.35643,1.35643,0,0,1,1.43611,1.43605v5.737a1.35837,1.35837,0,0,1-1.43611,1.436M70.57436,85.72028h14.346V82.84806h-14.346Z"/>
  <path class="cls-2" d="M82.05193,82.85183H73.44281a1.35442,1.35442,0,0,1-1.43234-1.4324V75.67882a1.35536,1.35536,0,0,1,1.43234-1.43611h8.60912A1.35838,1.35838,0,0,1,83.488,75.67882v5.74061a1.35745,1.35745,0,0,1-1.43611,1.4324m-7.173-2.86845h5.7369V77.11116h-5.7369Z"/>
  <path class="cls-2" d="M77.74737,77.113a1.35637,1.35637,0,0,1-1.43611-1.436V28.33431a1.43606,1.43606,0,0,1,2.87211,0V75.677a1.35634,1.35634,0,0,1-1.436,1.436"/>
  <path class="cls-2" d="M90.66105,29.76848H66.2698a1.35537,1.35537,0,0,1-1.43611-1.43235V3.94488A1.36031,1.36031,0,0,1,66.2698,2.50877H90.66105a1.3574,1.3574,0,0,1,1.43234,1.43611V28.33613a1.35247,1.35247,0,0,1-1.43234,1.43235M67.70591,26.9h21.519V5.381h-21.519Z"/>
  <path class="cls-2" d="M76.312,24.032a1.35346,1.35346,0,0,1-1.43246-1.436V9.686a1.43423,1.43423,0,1,1,2.86845,0v12.91a1.35629,1.35629,0,0,1-1.436,1.436"/>
  <path class="cls-2" d="M79.18337,19.72793H76.31126a1.35551,1.35551,0,0,1-1.43245-1.43611V9.68635a1.35542,1.35542,0,0,1,1.43245-1.436h2.87211a5.73879,5.73879,0,0,1,0,11.47757m-1.436-2.86857h1.436a2.87028,2.87028,0,0,0,0-5.74055h-1.436Z"/>
</svg>
