<svg id="Layer_1" data-name="Layer 1" xmlns="http://www.w3.org/2000/svg" viewBox="0 0 98.4925 90">
  <defs>
    <style>
      .cls-1 {
        fill: #93c8d2;
      }
    </style>
  </defs>
  <title>14</title>
  <path class="cls-1" d="M49.3115,20.60841a6.43976,6.43976,0,1,0-6.43982-6.43982,6.44926,6.44926,0,0,0,6.43982,6.43982m0-10.3079a3.86808,3.86808,0,1,1-3.86808,3.86808,3.87135,3.87135,0,0,1,3.86808-3.86808"/>
  <path class="cls-1" d="M49.3115,5.14411a1.28436,1.28436,0,0,0,1.28576-1.28576V2.14147a1.28582,1.28582,0,1,0-2.57163,0V3.85835A1.28438,1.28438,0,0,0,49.3115,5.14411"/>
  <path class="cls-1" d="M41.11321,7.78909a1.287,1.287,0,1,0,1.81835-1.82188l-1.21573-1.2123a1.28459,1.28459,0,1,0-1.81845,1.81492Z"/>
  <path class="cls-1" d="M37.2848,15.45339h1.71677a1.28405,1.28405,0,1,0,0-2.5681H37.2848a1.28405,1.28405,0,1,0,0,2.5681"/>
  <path class="cls-1" d="M41.11321,20.548l-1.21583,1.21583a1.28584,1.28584,0,1,0,1.81845,1.81845L42.93156,22.37a1.28705,1.28705,0,0,0-1.81835-1.822"/>
  <path class="cls-1" d="M48.0267,24.47563V26.196a1.28405,1.28405,0,0,0,2.5681,0V24.47563a1.28405,1.28405,0,0,0-2.5681,0"/>
  <path class="cls-1" d="M55.69282,20.548a1.28573,1.28573,0,0,0,0,1.822l1.21573,1.2123a1.28459,1.28459,0,0,0,1.81493-1.81845L57.51117,20.548a1.28791,1.28791,0,0,0-1.81835,0"/>
  <path class="cls-1" d="M58.336,14.16678a1.28438,1.28438,0,0,0,1.28576,1.28586h1.71688a1.2841,1.2841,0,1,0,0-2.5682H59.62174A1.28363,1.28363,0,0,0,58.336,14.16678"/>
  <path class="cls-1" d="M56.60125,8.16535a1.28685,1.28685,0,0,0,.90736-.37487l1.21583-1.21926A1.28584,1.28584,0,0,0,56.906,4.75277L55.69379,5.9686a1.28581,1.28581,0,0,0,.90746,2.19675"/>
  <path class="cls-1" d="M84.95758,66.75816v-.014a.3903.3903,0,0,0-.00342-.06309.46632.46632,0,0,0-.00353-.07009.93535.93535,0,0,0-.01754-.13312v-.00353L82.64172,55.606v-.01054L80.35034,44.7235v-.014L78.05885,33.83062A1.28007,1.28007,0,0,0,76.8011,32.811H21.82125a1.283,1.283,0,0,0-1.25785,1.01963L18.272,44.70949l-.00353.014L15.98064,55.59541l-.00353.01054L13.69268,66.47433c-.01048.04908-.01743.09463-.02449.14018v.035a.84793.84793,0,0,0-.00353.09463v5.15042A1.28371,1.28371,0,0,0,14.947,73.18039H45.45005V80.4015H35.56621a1.28371,1.28371,0,0,0-1.28586,1.28234v3.8716H21.82125a1.28584,1.28584,0,1,0,0,2.57168H76.8011a1.28584,1.28584,0,0,0,0-2.57168H64.342v-3.8716a1.28372,1.28372,0,0,0-1.28587-1.28234H53.17573V73.18039H83.67524a1.28371,1.28371,0,0,0,1.28234-1.28581V66.75816Zm-64.38713-20.493H38.00472l-.58156,8.31072h-18.601Zm20.00953,0H58.03884l.58509,8.31072H39.99832ZM57.27851,35.3792,57.86017,43.69h-17.098l.58509-8.31077Zm22.5217,19.19664h-18.601l-.58166-8.31072H78.0519ZM58.80613,57.14405l.58166,8.31077H39.23456l.58509-8.31077ZM61.963,65.45482l-.58156-8.31077H80.34328l1.74831,8.31077ZM77.50883,43.69H60.43533l-.58156-8.31077H75.757Zm-54.647-8.31077H38.76858L38.18692,43.69H21.11352ZM61.77027,85.55892H36.84855V82.9697H61.77027ZM50.604,80.4015H48.01825V73.18039H50.604Zm31.78549-9.78932H16.23287V68.0265h6.121a1.28584,1.28584,0,1,0,0-2.57168H16.53065l1.75184-8.31077H37.241l-.58156,8.31077H27.91067a1.28584,1.28584,0,1,0,0,2.57168H82.38948Z"/>
</svg>
