<svg id="Layer_1" data-name="Layer 1" xmlns="http://www.w3.org/2000/svg" viewBox="0 0 98.4925 90">
  <defs>
    <style>
      .cls-1 {
        fill: #93c8d2;
      }
    </style>
  </defs>
  <title>2-01_0</title>
  <g>
    <path class="cls-1" d="M57.22,34.30216a8.869,8.869,0,1,0-8.869,8.869,8.86905,8.86905,0,0,0,8.869-8.869Z"/>
    <path class="cls-1" d="M36.09094,37.921v-2.0524A10.04423,10.04423,0,0,0,26.04679,25.82444H4.52772V42.25818h27.226a4.33731,4.33731,0,0,0,4.3372-4.33719Z"/>
    <path class="cls-1" d="M8.11916,60.33085,10.82668,63.909H27.0203l-1.5372-2.03124a1.74279,1.74279,0,0,1,1.38969-2.79452h7.28562C37.45208,67.65639,42.584,73.16928,48.351,73.16928c.17477,0,.34824-.00523.5217-.01566,9.69981-.56083,17.47715-16.71808,17.47715-36.569S58.57255.57649,48.87274.01564C48.69928.00521,48.52581,0,48.351,0,40.7576,0,34.26367,9.555,31.61992,23.07375a13.94694,13.94694,0,0,1,3.55935,2.24986A47.15914,47.15914,0,0,1,39.1351,12.44268c2.66722-5.42052,6.02571-8.52989,9.21594-8.52989a4.68261,4.68261,0,0,1,.5217.02868c3.03112.31565,6.17177,3.37545,8.69423,8.50121C60.70764,18.82576,62.4371,27.4,62.4371,36.58463S60.70764,54.3435,57.567,60.72657c-2.52246,5.12577-5.66311,8.18544-8.69423,8.50107a4.64719,4.64719,0,0,1-.5217.02883c-3.19023,0-6.54872-3.10937-9.21594-8.5299-.26191-.53214-.51271-1.08149-.75478-1.64336H54.01414l.04175-.08478a44.501,44.501,0,0,0,3.83194-13.21872H3.35389v13.3035h2.2565a3.14618,3.14618,0,0,1,2.50877,1.24764Z"/>
    <polygon class="cls-1" points="18.722 74.343 34.917 74.343 30.376 68.343 14.182 68.343 18.722 74.343 18.722 74.343"/>
    <path class="cls-1" d="M72.34952,89.86385H89.09016a1.52071,1.52071,0,0,0,1.42908-2.04052L84.74,71.93374a5.86136,5.86136,0,0,1,1.392-3.76477c5.33131-6.35032,8.91165-18.1165,8.91165-31.58434C95.04373,16.37894,86.986,0,77.04487,0H58.01435a28.83563,28.83563,0,0,1,6.7639,9.37635c3.53587,7.38475,5.48445,17.04674,5.48445,27.20828s-1.94858,19.82353-5.48445,27.20814A28.81694,28.81694,0,0,1,58.013,73.16928h4.465a5.8283,5.8283,0,0,1,5.82824,5.82823l-1.37678,3.82332H41.7954a.93052.93052,0,0,1-.74211-.36911L38.27285,78.7776H22.07793l1.93018,2.551a.93066.93066,0,0,1-.74214,1.49222H3.35389v7.043H72.34952Z"/>
  </g>
</svg>
