<svg id="Layer_1" data-name="Layer 1" xmlns="http://www.w3.org/2000/svg" viewBox="0 0 98.4925 90">
  <defs>
    <style>
      .cls-1 {
        fill: #93c8d2;
      }
    </style>
  </defs>
  <title>2</title>
  <path class="cls-1" d="M94.18316,44.97192H22.27146V40.55347a2.23545,2.23545,0,0,0-2.21237-2.32013H6.79436a2.41716,2.41716,0,0,0-2.42473,2.32013v4.41845H3.84347A2.41359,2.41359,0,0,0,1.42507,47.292v3.36605a2.40875,2.40875,0,0,0,2.4184,2.317H34.27471v13.0587H23.84992a2.409,2.409,0,0,0-2.42157,2.31384v7.76544a6.31908,6.31908,0,1,0,7.83207,6.13954,6.17912,6.17912,0,0,0-4.88435-6.13954V74.03382H73.44133v2.07927a6.31884,6.31884,0,1,0,7.8289,6.13954,6.17318,6.17318,0,0,0-4.88115-6.13954V68.34765a2.23,2.23,0,0,0-2.21237-2.31384h-10.634V52.97511H94.18316a2.23087,2.23087,0,0,0,2.21236-2.317V47.292a2.23545,2.23545,0,0,0-2.21236-2.32012M7.32052,41.18423H19.32376v3.78769H7.32052ZM26.3222,82.25263a3.34927,3.34927,0,0,1-3.34075,3.36923,3.40422,3.40422,0,0,1-3.4073-3.36923,3.44926,3.44926,0,0,1,1.8542-3.02383v1.756a1.47386,1.47386,0,0,0,2.94772,0v-1.756a3.17647,3.17647,0,0,1,1.94613,3.02383m52.013,0a3.34926,3.34926,0,0,1-3.34075,3.36923,3.4042,3.4042,0,0,1-3.4073-3.36923,3.44924,3.44924,0,0,1,1.85418-3.02383v1.756a1.47388,1.47388,0,0,0,2.94775,0v-1.756a3.17652,3.17652,0,0,1,1.94612,3.02383M73.44133,71.08612H24.37607V68.98151H73.44133ZM60.595,66.03381H37.22243V52.97511H60.595ZM93.44783,50.02732H4.37282V47.92271h89.075Z"/>
  <path class="cls-1" d="M49.01329,1.78624A1.47512,1.47512,0,0,0,47.53944,3.26V8.94626H44.27477a2.41167,2.41167,0,0,0-2.42157,2.317v4.28216A14.54755,14.54755,0,0,0,32.08769,20.791a27.11336,27.11336,0,0,0-2.34233,5.13162,1.48125,1.48125,0,0,0,.19017,1.347,1.511,1.511,0,0,0,1.22347.63077H67.72972a1.47539,1.47539,0,0,0,1.38515-1.97781,28.30093,28.30093,0,0,0-2.4184-5.13162A15.44149,15.44149,0,0,0,56.1734,15.54215V11.26328a2.23278,2.23278,0,0,0-2.21236-2.317H50.48719V3.26a1.47312,1.47312,0,0,0-1.4739-1.47375M64.408,22.585a14.27585,14.27585,0,0,1,1.1632,2.36771H33.31749A14.327,14.327,0,0,1,34.47755,22.585a11.37277,11.37277,0,0,1,8.95728-4.16174H54.82c4.1997,0,8.00325,2.09514,9.588,4.16174M53.22571,15.47561H44.80092V11.894h8.42479Z"/>
</svg>
