<svg id="Layer_1" data-name="Layer 1" xmlns="http://www.w3.org/2000/svg" viewBox="0 0 98.4925 90">
  <defs>
    <style>
      .cls-1 {
        fill: #93c8d2;
      }
    </style>
  </defs>
  <title>2-01_0</title>
  <path class="cls-1" d="M46.02089,22.31114V24.962a1.9255,1.9255,0,0,0,1.92525,1.92209h3.56679A1.92549,1.92549,0,0,0,53.43825,24.962V22.31114h2.64768a1.92825,1.92825,0,0,0,1.92529-1.92523V16.81907a1.92826,1.92826,0,0,0-1.92529-1.92524H53.43825v-2.651A1.92538,1.92538,0,0,0,51.513,10.321H47.94614a1.92537,1.92537,0,0,0-1.92528,1.92188v2.651H43.37a1.92824,1.92824,0,0,0-1.92529,1.92524v3.56684A1.92825,1.92825,0,0,0,43.37,22.31114Zm-1.89626-4.73741h2.77025a1.8092,1.8092,0,0,0,1.806-1.806V12.99753h2.05751v2.77025a1.80645,1.80645,0,0,0,1.80275,1.806h2.77343v2.05751H52.56107a1.80645,1.80645,0,0,0-1.80274,1.80593v2.77025H48.70081V21.43717a1.8092,1.8092,0,0,0-1.806-1.806H44.1246Zm49.993,26.14779a1.33709,1.33709,0,0,0,1.33834-1.33585V41.5221a3.213,3.213,0,0,0-3.2088-3.2088H87.6a3.2151,3.2151,0,0,0-3.20881,3.2088v.59333H74.2294L73.18452,39.771a5.82748,5.82748,0,0,0-5.31471-3.4507H53.20924a5.81987,5.81987,0,0,0-5.81774,5.79518H38.1327l.22578-.37408a3.80438,3.80438,0,0,0,0-3.90539l-.53855-.89648a4.65438,4.65438,0,0,0-3.97313-2.25425H21.105a4.65037,4.65037,0,0,0-3.97312,2.25425l-.53856.89648a3.78979,3.78979,0,0,0,0,3.90539l.22252.37408H15.06473V31.43776a3.2131,3.2131,0,0,0-3.20881-3.20891H7.2088A3.21519,3.21519,0,0,0,4,31.43776V56.75343a6.63117,6.63117,0,0,0,6.62077,6.62408H14.839V73.65213a5.82588,5.82588,0,1,0,7.31738,0V70.69168h55.1464v2.96049a5.82427,5.82427,0,1,0,7.31415,0V63.37751h4.215a6.6298,6.6298,0,0,0,6.624-6.62408V48.51375A1.34,1.34,0,1,0,92.776,48.51v8.24342a3.946,3.946,0,0,1-3.94409,3.94417H30.11554a1.34,1.34,0,1,0-.00374,2.67993h47.191v4.63741H22.15637V63.37751h1.63181a1.34,1.34,0,0,0,.00375-2.67994H10.62077a3.94734,3.94734,0,0,1-3.94084-3.94414V31.43776a.534.534,0,0,1,.5289-.53213H11.856a.53193.53193,0,0,1,.5289.53213V53.80583a2.82486,2.82486,0,0,0,2.82186,2.82186H84.24927a2.82487,2.82487,0,0,0,2.82185-2.82186V41.52209A.5313.5313,0,0,1,87.6,40.9932h4.64713a.5292.5292,0,0,1,.52888.52889v.861a1.33781,1.33781,0,0,0,1.33723,1.33838h.00435m-14.13493,19.656H81.937v9.06206a5.75394,5.75394,0,0,0-1.95754,0V63.37751Zm.97716,11.6581A3.14434,3.14434,0,1,1,77.81553,78.18h0a3.1484,3.1484,0,0,1,3.14432-3.14433M17.51892,63.37751h1.95753v9.06206a5.75389,5.75389,0,0,0-1.95753,0Zm.97715,11.6581A3.14434,3.14434,0,1,1,15.35175,78.18v0a3.14842,3.14842,0,0,1,3.14432-3.14433M50.73574,40.2031a3.13076,3.13076,0,0,1,2.4735-1.20611h5.50824l.71269,3.11844H50.0714a3.1299,3.1299,0,0,1,.66434-1.91233m-31.843-.99008.53534-.89973a1.96791,1.96791,0,0,1,1.677-.94815H33.84676a1.95851,1.95851,0,0,1,1.67375.94815l.53855.89973a1.11772,1.11772,0,0,1,0,1.15128l-.53855.89984a1.96893,1.96893,0,0,1-1.07714.8513H20.50843a1.97585,1.97585,0,0,1-1.08036-.8513l-.53534-.89984a1.11772,1.11772,0,0,1,0-1.15128m-3.6861,14.73474a.14108.14108,0,0,1-.14192-.14021V44.79544h5.10183a4.53759,4.53759,0,0,0,.93523.09677h12.745a4.53845,4.53845,0,0,0,.93524-.09677H47.87523l2.27036,9.15232Zm37.6995,0-2.27035-9.15232h9.40713l2.093,9.15232Zm8.559-14.95077h6.40471a3.14323,3.14323,0,0,1,2.867,1.86078l.55792,1.25767H62.17782ZM74.13588,53.94776H64.88354l-2.093-9.15232h9.7006l.071.16445a17.99462,17.99462,0,0,1,1.57376,7.38825Zm10.25526-.14193a.14253.14253,0,0,1-.13866.14193H76.8158V52.34817a20.66024,20.66024,0,0,0-1.419-7.55273h8.99435ZM18.49607,79.47955a1.30126,1.30126,0,1,0-1.29965-1.30288v.00327a1.3027,1.3027,0,0,0,1.29965,1.29961M49.72634,31.53766a12.9352,12.9352,0,1,0-12.932-12.9384v.0032a12.95056,12.95056,0,0,0,12.932,12.9352m0-23.19034A10.25527,10.25527,0,1,1,39.47426,18.60577v-.00328A10.26672,10.26672,0,0,1,49.72634,8.34732M80.95985,79.47955A1.30126,1.30126,0,1,0,79.657,78.17991v0a1.29993,1.29993,0,0,0,1.30026,1.29961h.00262"/>
</svg>
