<svg id="Layer_1" data-name="Layer 1" xmlns="http://www.w3.org/2000/svg" viewBox="0 0 98.4925 90">
  <defs>
    <style>
      .cls-1 {
        fill: #93c8d2;
      }
    </style>
  </defs>
  <title>5</title>
  <path class="cls-1" d="M41.85742,77.56468a1.3599,1.3599,0,0,0,1.36284-1.35V70.046h1.0514a7.78384,7.78384,0,0,0,5.91888-2.75817,12.35511,12.35511,0,0,0,1.16824-2.596,1.3498,1.3498,0,0,0-1.27856-1.79124H33.62166a1.34968,1.34968,0,0,0-1.2753,1.79124,12.32772,12.32772,0,0,0,1.165,2.596A7.79688,7.79688,0,0,0,39.43339,70.046h1.08387v4.78964A35.522,35.522,0,0,1,40.5951,3.84187l-.026,7.50226h-1.4895a9.35989,9.35989,0,0,0-7.07078,3.23211,15.0594,15.0594,0,0,0-1.40513,3.07288,1.36648,1.36648,0,0,0,.172,1.23311,1.34793,1.34793,0,0,0,1.10656.57111H52.27708a1.35011,1.35011,0,0,0,1.272-1.80422,14.69335,14.69335,0,0,0-1.40186-3.07288,9.354,9.354,0,0,0-7.07078-3.23211H43.27225l.026-8.87817a1.35142,1.35142,0,0,0-1.35-1.35314,38.226,38.226,0,1,0-.09081,76.45186m-6.1817-11.89935c-.0098-.01624-.026-.0617-.03892-.0617H48.06834c-.013,0-.026.03892-.03248.05516a5.15875,5.15875,0,0,1-3.7642,1.68419H39.43339a5.15189,5.15189,0,0,1-3.75767-1.67765m14.32666-49.444c.06486.08437.15894.33749.27906.529H33.87477c.11676-.19152.21737-.44464.27907-.529a6.6853,6.6853,0,0,1,4.92581-2.17409h5.99682a6.67979,6.67979,0,0,1,4.92591,2.17409"/>
  <path class="cls-1" d="M34.33744,43.0114a1.37324,1.37324,0,0,0-1.37581-1.34987H19.05683a1.32417,1.32417,0,0,0-1.324,1.34987v4.8253h-.79817a1.34745,1.34745,0,0,0-.94762.39919,1.33324,1.33324,0,0,0-.37967.95394v4.63388a1.32962,1.32962,0,0,0,1.32729,1.35314H61.37153V80.66628H55.74469a1.32965,1.32965,0,0,0-1.324,1.35313V86.65a1.32434,1.32434,0,0,0,1.324,1.35h38.041a1.3692,1.3692,0,0,0,1.37591-1.35V82.01941a1.374,1.374,0,0,0-1.37591-1.35313H88.21083V55.17685h5.57485a1.37184,1.37184,0,0,0,1.37591-1.35314V49.18983a1.37615,1.37615,0,0,0-1.37591-1.35313H34.33744ZM20.43591,44.36454H31.63434V47.8367H20.43591ZM92.45849,85.29689H57.12377V83.36611H92.45849Zm-6.95076-4.63061H64.07453V55.18011h21.4332Zm6.95076-28.19244h-74.148v-1.934h74.148Z"/>
</svg>
