<svg id="Layer_1" data-name="Layer 1" xmlns="http://www.w3.org/2000/svg" viewBox="0 0 98.4925 90">
  <defs>
    <style>
      .cls-1 {
        fill: #93c8d2;
      }
    </style>
  </defs>
  <title>6</title>
  <path class="cls-1" d="M91.59861,33.66182a4.31278,4.31278,0,0,0-4.30516,4.30834v2.58242H36.43126a1.36181,1.36181,0,0,0-1.3592,1.36235v2.62988H29.31289a18.92633,18.92633,0,0,0-4.577-11.079V9.00677h8.10142v2.66142H28.63645a1.36314,1.36314,0,0,0-1.356,1.48563l.96092,10.3236a3.153,3.153,0,0,0,3.15459,2.87325h1.43821v7.61144a1.36077,1.36077,0,1,0,2.72154,0V26.35067h1.44138a3.15519,3.15519,0,0,0,3.15459-2.87325l.95775-10.3236a1.33953,1.33953,0,0,0-.34769-1.03987,1.35777,1.35777,0,0,0-1.00517-.44576H35.55568V9.00677h2.71839a3.447,3.447,0,0,0,0-6.89395H32.202a1.36076,1.36076,0,1,0,0,2.72152h6.0721a.72387.72387,0,1,1,0,1.44772H23.37671a1.36385,1.36385,0,0,0-1.35919,1.36236V30.76329c-.177-.1391-1.43506-1.00833-1.45087-1.01788V5.98177a1.14731,1.14731,0,0,1,1.14742-1.14743H25.975a1.36076,1.36076,0,0,0,0-2.72152h-4.2609a3.8723,3.8723,0,0,0-3.86579,3.869V28.32624a18.89436,18.89436,0,0,0-6.16694-1.413V13.22974a4.30674,4.30674,0,0,0-8.61348,0V41.97821a1.36077,1.36077,0,1,0,2.72154,0V13.22974a1.58678,1.58678,0,1,1,3.17356,0v70.387H5.7894V48.71405a1.36077,1.36077,0,1,0-2.72154,0V84.97924a1.35909,1.35909,0,0,0,1.36235,1.356h5.89194a1.35639,1.35639,0,0,0,1.35919-1.356V70.83415h6.16694V84.97924a1.35638,1.35638,0,0,0,1.35919,1.356h4.16924a1.35638,1.35638,0,0,0,1.35918-1.356V70.83415H35.07206V74.191a1.3585,1.3585,0,0,0,1.3592,1.35609H61.81653a1.35922,1.35922,0,1,0,0-2.71844H37.79361V43.2742H87.29345V72.82862H68.16363a1.35922,1.35922,0,0,0,0,2.71844H87.29345v9.43218a1.35841,1.35841,0,0,0,1.35919,1.356h5.89193a1.35908,1.35908,0,0,0,1.36235-1.356V37.97016a4.31344,4.31344,0,0,0-4.30831-4.30834M37.44275,23.22449a.44658.44658,0,0,1-.44569.40457H31.39593a.44211.44211,0,0,1-.44568-.40457L30.1284,14.3898h8.13619ZM26.67353,44.54481H11.68134V29.54949A16.53515,16.53515,0,0,1,26.67353,44.54481m-4.656,39.072H20.56666V70.83415h1.45086ZM11.68134,47.26324H35.07206V68.11572H11.68134Zm81.504,36.35355H90.015V37.97016a1.5852,1.5852,0,1,1,3.1704,0Z"/>
</svg>
