<svg id="Layer_1" data-name="Layer 1" xmlns="http://www.w3.org/2000/svg" viewBox="0 0 98.4925 90">
  <defs>
    <style>
      .cls-1 {
        fill: #93c8d2;
      }
    </style>
  </defs>
  <title>7</title>
  <path class="cls-1" d="M39.65791,48.45683A1.28487,1.28487,0,0,0,40.93917,47.172V33.35885a1.2841,1.2841,0,0,0-1.28126-1.28121H32.69379a1.28487,1.28487,0,0,0-1.28487,1.28121V47.172a1.28564,1.28564,0,0,0,1.28487,1.28484ZM33.97865,34.64731h4.39442V45.88705H33.97865Z"/>
  <path class="cls-1" d="M45.93464,48.45683h6.96052A1.2856,1.2856,0,0,0,54.18,47.172V33.35885a1.28483,1.28483,0,0,0-1.28484-1.28121H45.93464a1.28256,1.28256,0,0,0-1.28487,1.28121V47.172a1.28333,1.28333,0,0,0,1.28487,1.28484M47.2195,34.64731h4.39439V45.88705H47.2195Z"/>
  <path class="cls-1" d="M21.83551,68.34147a1.28254,1.28254,0,0,0,1.28123-1.28484V53.24712a1.28254,1.28254,0,0,0-1.28123-1.28484H14.87136a1.28561,1.28561,0,0,0-1.28484,1.28484V67.05663a1.28561,1.28561,0,0,0,1.28484,1.28484Zm-5.67929-13.813h4.39442V65.7718H16.15622Z"/>
  <path class="cls-1" d="M76.99429,68.34147h6.96412a1.28488,1.28488,0,0,0,1.28127-1.28484V53.24712a1.28488,1.28488,0,0,0-1.28127-1.28484H76.99429a1.2856,1.2856,0,0,0-1.28484,1.28484V67.05663a1.2856,1.2856,0,0,0,1.28484,1.28484m1.28484-13.813h4.39439V65.7718H78.27913Z"/>
  <path class="cls-1" d="M59.17189,48.45683H66.136A1.2856,1.2856,0,0,0,67.42085,47.172V33.35885A1.28483,1.28483,0,0,0,66.136,32.07764H59.17189a1.28411,1.28411,0,0,0-1.28127,1.28121V47.172a1.28488,1.28488,0,0,0,1.28127,1.28484m1.28483-13.80952h4.3944V45.88705h-4.3944Z"/>
  <path class="cls-1" d="M48.13041,15.056a1.28305,1.28305,0,1,0,2.5661,0V12.40355h2.656a1.283,1.283,0,1,0,0-2.566h-2.656V7.18139a1.28305,1.28305,0,1,0-2.5661,0V9.8375H45.47789a1.283,1.283,0,1,0,0,2.566h2.65252Z"/>
  <path class="cls-1" d="M91.95909,38.725a1.28789,1.28789,0,0,0,1.28484-1.28483V32.819a1.28563,1.28563,0,0,0-1.28484-1.28484H84.16715a1.283,1.283,0,0,0,0,2.56605h6.507v2.0551H72.132v-2.0551h5.64326a1.283,1.283,0,1,0,0-2.56605H72.132V25.51661h1.96866a1.28409,1.28409,0,0,0,1.28484-1.28846V19.607a1.28025,1.28025,0,0,0-1.28484-1.28132H62.64857V2.63032a1.28336,1.28336,0,0,0-1.28489-1.28484H37.46609a1.28331,1.28331,0,0,0-1.28483,1.28484V18.32568H24.72553A1.27947,1.27947,0,0,0,23.44427,19.607v4.62115a1.28333,1.28333,0,0,0,1.28126,1.28846h1.97226v6.01757H6.8707A1.28561,1.28561,0,0,0,5.58587,32.819v4.62115A1.28787,1.28787,0,0,0,6.8707,38.725h.56867v8.447a1.28485,1.28485,0,0,0,2.5697,0V38.725H26.69779V81.58237H10.00907V53.54949a1.28486,1.28486,0,1,0-2.5697,0V81.57875H6.8707a1.28561,1.28561,0,0,0-1.28483,1.28484v4.85509A1.28261,1.28261,0,0,0,6.8707,89H91.95909a1.28263,1.28263,0,0,0,1.28484-1.28132V82.86359a1.28563,1.28563,0,0,0-1.28484-1.28484h-.56866V38.725ZM26.01037,20.89546H45.967a1.2849,1.2849,0,0,0,0-2.56978H38.74736V3.91515H60.07884V18.32568H53.23707a1.2849,1.2849,0,0,0,0,2.56978H72.8194v2.05137h-46.809ZM8.15557,34.10023H26.69779v2.05148H8.15557ZM29.2639,25.51661H69.56228V81.57875H62.16986v-20.313A1.28483,1.28483,0,0,0,60.885,59.98454H37.94477a1.28487,1.28487,0,0,0-1.28486,1.28122v20.313h-7.396ZM39.226,62.5507h8.904V81.57875H39.226Zm11.47014,0h8.904V81.57875h-8.904Zm39.978,23.88314H8.15554V84.14491H90.6742Zm-1.8535-4.85509H72.132V38.725H88.8207Z"/>
</svg>
