<svg id="Layer_1" data-name="Layer 1" xmlns="http://www.w3.org/2000/svg" viewBox="0 0 98.4925 90">
  <defs>
    <style>
      .cls-1 {
        fill: #93c8d2;
      }
    </style>
  </defs>
  <title>8</title>
  <path class="cls-1" d="M72.8623,28.83484H63.09814A1.40517,1.40517,0,0,0,61.691,30.242V46.29077A1.40778,1.40778,0,0,0,63.09814,47.701h17.2015a1.41037,1.41037,0,0,0,1.41018-1.41018V38.89024c0-.92893-.12569-.48744-7.78065-9.568a1.3967,1.3967,0,0,0-1.06687-.48743m6.0302,16.04874H64.50529V31.64913h7.71015l6.67706,7.76231Z"/>
  <path class="cls-1" d="M27.76576,64.878a5.97651,5.97651,0,1,0,5.978,5.978,5.98376,5.98376,0,0,0-5.978-5.978m0,9.13564A3.16068,3.16068,0,1,1,30.92643,70.856a3.16357,3.16357,0,0,1-3.16067,3.15764"/>
  <path class="cls-1" d="M72.80013,64.878a5.97651,5.97651,0,1,0,5.975,5.978,5.98376,5.98376,0,0,0-5.975-5.978m0,9.13564A3.16068,3.16068,0,1,1,75.9608,70.856a3.16357,3.16357,0,0,1-3.16067,3.15764"/>
  <path class="cls-1" d="M18.19008,39.22713h4.28584v4.28893A3.60653,3.60653,0,0,0,26.075,47.11519h3.38142a3.60653,3.60653,0,0,0,3.59909-3.59913V39.22713h4.28583a3.60384,3.60384,0,0,0,3.59909-3.596V32.24967a3.60455,3.60455,0,0,0-3.59909-3.599H33.05551V24.36479a3.60254,3.60254,0,0,0-3.59909-3.599H26.075a3.60254,3.60254,0,0,0-3.59908,3.599v4.28584H18.19008a3.60257,3.60257,0,0,0-3.59909,3.599v3.38151a3.60186,3.60186,0,0,0,3.59909,3.596m-.78172-6.97746a.781.781,0,0,1,.78172-.78167h5.696a1.40981,1.40981,0,0,0,1.40714-1.41028V24.36479a.78375.78375,0,0,1,.7848-.78176h3.37838a.78112.78112,0,0,1,.78176.78176v5.69293A1.40981,1.40981,0,0,0,31.64533,31.468h5.696a.781.781,0,0,1,.78172.78167v3.38151a.78046.78046,0,0,1-.78172.77868h-5.696A1.40907,1.40907,0,0,0,30.23818,37.817v5.69911a.7831.7831,0,0,1-.78176.78176H26.078a.78574.78574,0,0,1-.7848-.78176V37.817a1.40907,1.40907,0,0,0-1.40714-1.40709h-5.696a.78046.78046,0,0,1-.78172-.77868Z"/>
  <path class="cls-1" d="M96.899,43.62094a7.55336,7.55336,0,0,0-1.92526-5.04l-5.17791-5.788a1.408,1.408,0,1,0-2.1,1.87619l5.1779,5.79107a4.73487,4.73487,0,0,1,1.20791,3.16073V54.20979H54.76443V24.73331H76.687a4.7402,4.7402,0,0,1,3.53471,1.57887L82.754,29.1448A1.40788,1.40788,0,1,0,84.851,27.26561L82.32173,24.436a8.01493,8.01493,0,0,0-6.49-2.52005V19.25809a1.40983,1.40983,0,0,0-1.40714-1.41028h-.21766V14.75155a6.91617,6.91617,0,1,0-13.83233,0v3.09626h-.21153a1.41045,1.41045,0,0,0-1.41018,1.41028v2.65785H54.76443V16.80241a5.74694,5.74694,0,0,0-5.73891-5.742H20.10706a1.40869,1.40869,0,0,0,0,2.81737H49.02552a2.92551,2.92551,0,0,1,2.92159,2.92459V54.20979H3.5831V16.80241a2.92612,2.92612,0,0,1,2.92463-2.92459h6.58813a1.40869,1.40869,0,0,0,0-2.81737H6.50773a5.74694,5.74694,0,0,0-5.73891,5.742V64.92728a5.74432,5.74432,0,0,0,5.73891,5.739h9.12039a12.14019,12.14019,0,1,0,24.277,0H60.66281a12.14019,12.14019,0,1,0,24.277,0H91.157a5.747,5.747,0,0,0,5.742-5.739ZM63.192,14.75155a4.10034,4.10034,0,1,1,8.20068,0v3.09626H63.192Zm-1.62176,5.91363H73.01746v1.25076H61.57022ZM27.7651,80.19127A9.34884,9.34884,0,0,1,18.424,70.85635a9.48381,9.48381,0,0,1,9.34108-9.34417,9.47964,9.47964,0,0,1,9.34109,9.34417,9.34888,9.34888,0,0,1-9.34109,9.33492M16.15232,67.45341c-.0429.138-.13182.25448-.16859.39855h-9.476A2.93,2.93,0,0,1,3.5831,64.92728V57.02707h48.364V67.852H39.54648c-.03373-.14407-.12569-.26055-.16864-.40154-3.47035-11.809-19.86248-11.43807-23.22552.003M72.7998,80.19127a9.34888,9.34888,0,0,1-9.34113-9.33492,9.34111,9.34111,0,1,1,18.68222,0,9.34888,9.34888,0,0,1-9.34109,9.33492m21.28188-15.264a2.92744,2.92744,0,0,1-2.92468,2.9216H84.58113c-.03368-.141-.12874-.25747-.16859-.39846a12.08012,12.08012,0,0,0-23.22553,0c-.03985.141-.13182.25747-.16859.39846h-6.254V57.02707H94.08168Z"/>
</svg>
