<svg id="Layer_1" data-name="Layer 1" xmlns="http://www.w3.org/2000/svg" viewBox="0 0 98.4925 90">
  <defs>
    <style>
      .cls-1 {
        fill: #93c8d2;
      }
    </style>
  </defs>
  <title>9</title>
  <path class="cls-1" d="M69.35549,22.35H60.72711a7.26072,7.26072,0,0,0-1.18834-1.22837l3.88529-6.73575a1.43471,1.43471,0,0,0-.52735-1.95935l-3.72842-2.153,2.14963-3.73168a1.43921,1.43921,0,0,0-.52409-1.96271l-4.97-2.86726a1.43555,1.43555,0,0,0-1.96271.52409L51.70819,5.96772l-3.7218-2.153a1.43655,1.43655,0,0,0-1.95925.52409L30.24232,31.67938a1.4322,1.4322,0,0,0,.524,1.95925l3.72842,2.153L32.34183,39.52a1.43933,1.43933,0,0,0,.52735,1.96261l4.97014,2.86726a1.43244,1.43244,0,0,0,1.96261-.52408l2.14964-3.73168,3.73168,2.15625a1.472,1.472,0,0,0,.711.19028,1.57056,1.57056,0,0,0,.37384-.04675,1.46443,1.46443,0,0,0,.87124-.671l4.83323-8.378a7.07358,7.07358,0,0,0,8.26116-2.38331h8.62176a7.18118,7.18118,0,0,1,7.17315,7.17315V52.48425a7.184,7.184,0,0,1-7.17315,7.17651H58.54743a13.18741,13.18741,0,0,0-3.014-4.83659A12.89628,12.89628,0,0,0,38.30321,53.923h-20.608A1.43228,1.43228,0,0,0,16.26,55.35488V61.096a1.43515,1.43515,0,0,0,1.43526,1.43526H33.57011a12.81659,12.81659,0,0,0-.09,1.432V74.01022H17.69524a4.30349,4.30349,0,0,0-4.30589,4.30589v5.74115a4.30278,4.30278,0,0,0,4.30589,4.30252h57.4014a4.30205,4.30205,0,0,0,4.30252-4.30252V78.31611a4.30278,4.30278,0,0,0-4.30252-4.30589H59.30845V68.26907h10.047A15.80076,15.80076,0,0,0,85.14031,52.48425V38.13479A15.80509,15.80509,0,0,0,69.35549,22.35M55.63351,4.91628l2.4867,1.43526L56.68159,8.83488,54.19825,7.39962ZM38.0295,41.14884l-2.4867-1.43526,1.43537-2.48334,2.4867,1.4319Zm7.84067-2.09951L33.44665,31.87292,47.79621,7.02242l12.42688,7.17315L57.0154,19.7665c-.04676-.01344-.09015-.0167-.13355-.03-.20362-.05348-.41387-.09687-.62422-.14352-.10013-.01335-.20026-.03678-.3004-.05348a7.58636,7.58636,0,0,0-.9513-.06,7.115,7.115,0,0,0-7.04287,8.47813c.01334.09015.02669.17693.04676.26036a6.94583,6.94583,0,0,0,.37384,1.1916,2.253,2.253,0,0,0,.09677.20363,6.67046,6.67046,0,0,0,.55414,1.00468c.03331.05348.06336.10686.09677.15687a7.33183,7.33183,0,0,0,.80778.94805c.03331.03331.06.0767.09341.11012Zm9.13576-8.08769a4.38053,4.38053,0,0,1-2.33645-.68758,4.29587,4.29587,0,1,1,2.33645.68758M19.12714,56.79014H35.65628c-.05338.0768-.09341.16695-.14353.24366-.11347.17693-.21361.36049-.3171.54079-.19354.34043-.3771.68422-.53733,1.04136-.09351.20026-.17694.40389-.257.61087-.0601.14353-.13355.2837-.18692.42722H19.12714Zm57.4015,21.526v5.74115a1.43453,1.43453,0,0,1-1.432,1.43526H17.69524A1.43515,1.43515,0,0,1,16.26,84.05726V78.31611a1.43228,1.43228,0,0,1,1.43526-1.4319h57.4014a1.43165,1.43165,0,0,1,1.432,1.4319M36.35058,74.01022V63.96329a9.82288,9.82288,0,0,1,.7978-3.92869,10.05217,10.05217,0,0,1,16.34884-3.181,10.22183,10.22183,0,0,1,2.627,4.59294,10.33809,10.33809,0,0,1,.31374,2.51675V74.01022Zm45.91921-21.526a12.92915,12.92915,0,0,1-12.9143,12.91766h-10.047V63.96329a12.83258,12.83258,0,0,0-.08006-1.432h10.1271a10.05644,10.05644,0,0,0,10.04367-10.047V38.13479a10.05866,10.05866,0,0,0-10.04367-10.047H62.03555c.01335-.05.00662-.10675.01671-.15687a6.19585,6.19585,0,0,0,0-2.55016,1.317,1.317,0,0,0-.01671-.16023h7.31994a12.92628,12.92628,0,0,1,12.9143,12.91429Z"/>
  <path class="cls-1" d="M46.39426,56.79177a7.17478,7.17478,0,1,0,7.173,7.17315,7.17254,7.17254,0,0,0-7.173-7.17315m0,11.47893A4.30416,4.30416,0,1,1,50.7,63.96492a4.30562,4.30562,0,0,1-4.30578,4.30578"/>
</svg>
