<svg id="Layer_1" data-name="Layer 1" xmlns="http://www.w3.org/2000/svg" viewBox="0 0 70 70">
  <defs>
    <style>
      .cls-1 {
        fill: #00a3b9;
      }
    </style>
  </defs>
  <title>Anesthesiology and Pain Management -01</title>
  <path class="cls-1" d="M17.0682,32.34722a10.17883,10.17883,0,0,1,6.06888-1.42773,7.63629,7.63629,0,0,1,5.40058,2.78628.93393.93393,0,0,0,.7692.40539.945.945,0,0,0,.526-.16215.932.932,0,0,0,.2432-1.29724,9.48388,9.48388,0,0,0-6.75118-3.58718,12.01069,12.01069,0,0,0-7.293,1.73228.93241.93241,0,1,0,1.03631,1.55035"/>
  <path class="cls-1" d="M28.91966,35.41a.85768.85768,0,0,0-1.17076-.31639,9.4283,9.4283,0,0,1-9.95073.04152.85756.85756,0,0,0-.99068,1.40007,10.26658,10.26658,0,0,0,3.49816,1.4337,11.13619,11.13619,0,0,0,2.371.25707,11.772,11.772,0,0,0,5.92658-1.64528A.85768.85768,0,0,0,28.91966,35.41"/>
  <path class="cls-1" d="M49.32612,35.41a.86.86,0,0,0-1.17269-.31639,9.43026,9.43026,0,0,1-9.95073.04152.857.857,0,1,0-.98875,1.40007,10.24424,10.24424,0,0,0,3.49816,1.4337,11.11617,11.11617,0,0,0,2.369.25707,11.77834,11.77834,0,0,0,5.9285-1.64528A.85767.85767,0,0,0,49.32612,35.41"/>
  <path class="cls-1" d="M32.48457,1.36182c-23.84077,0-25.72533,15.94457-25.72533,18.68736,0,2.74477,2.3414,12.34748,2.3414,12.34748l.34205.12657c4.27339-8.72275,14.79562-11.81357,23.04188-11.81357,8.24407,0,18.76643,3.09082,23.0397,11.81357l.3441-.12657s2.3414-9.60271,2.3414-12.34748c0-2.74279-1.88649-18.68736-25.7252-18.68736"/>
  <path class="cls-1" d="M48.71009,30.79648a12.01985,12.01985,0,0,0-7.295-1.73229c-4.32083.439-5.96617,2.58262-6.75517,3.61092-.04936.06328-.09293.1226-.13638.176-.87216,1.10741-1.65717,3.50018-1.37836,6.90939a6.36887,6.36887,0,0,1,1.934.46076c-.22547-2.112-.13458-4.88838.90957-6.21529.04743-.05932.09692-.1226.15232-.19577a6.947,6.947,0,0,1,5.46177-2.8911,10.3066,10.3066,0,0,1,6.073,1.42973.93267.93267,0,0,0,1.03426-1.55234"/>
  <path class="cls-1" d="M46.91412,58.804q.30542-.38858.60107-.789c3.13039-4.27337,6.78678-11.58022,7.59955-22.94886a17.50715,17.50715,0,0,0-2.33934-3.26287c-.27495,12.57293-4.06773,20.3702-7.2674,24.74047-.46867.64072-.95906,1.24979-1.46526,1.82722a26.26134,26.26134,0,0,0,2.87138.43306"/>
  <path class="cls-1" d="M34.41753,64.56639a10.26979,10.26979,0,0,1-2.05463.21753c-4.57791,0-9.498-2.895-13.15632-7.75179-5.58054-7.39979-7.06764-17.35254-7.25352-24.962A17.48981,17.48981,0,0,0,9.6276,35.48533c.54181,7.41759,2.42637,16.19569,7.59159,23.04575,4.127,5.47568,9.78658,8.74251,15.14371,8.74251a14.11651,14.11651,0,0,0,5.55677-1.21616,24.11585,24.11585,0,0,1-3.50214-1.491"/>
  <path class="cls-1" d="M60.913,57.89314c-.6269,0-1.5069.0257-2.52329.05736-3.89573.12062-10.4136.32034-14.507-.6506-.30053-.0712-.58332-.14436-.8602-.21753a13.3023,13.3023,0,0,0,1.7699-2.56878,4.26781,4.26781,0,0,0-.12456-3.27077,4.76931,4.76931,0,0,0-3.11253-2.48966c-.975-.30454-1.59393-1.32889-2.3058-2.51736-1.22809-2.04078-2.75671-4.58187-6.88563-4.58187-4.12506,0-5.6952,2.53912-6.95685,4.57989-.73565,1.18847-1.36846,2.2148-2.34924,2.51934a5.075,5.075,0,0,0-3.28066,2.57469,3.932,3.932,0,0,0,.05926,3.21937c.76534,1.62946,5.40456,8.2086,12.52749,8.2086a10.91892,10.91892,0,0,0,2.06054-.19776A25.65654,25.65654,0,0,0,41.933,65.49464a52.16493,52.16493,0,0,0,11.25389.965c1.96169,0,3.78892-.0534,5.272-.09294.99068-.02769,1.845-.05142,2.45413-.05142a4.21108,4.21108,0,1,0,0-8.42216M45.03173,59.58193a39.40432,39.40432,0,0,0,3.93315.39154,10.974,10.974,0,0,0-.18,4.35643,44.08335,44.08335,0,0,1-4.77163-.48449,7.17978,7.17978,0,0,1,1.01844-4.26348M32.15615,57.8971c.29269-1.12322.83655-2.26621,3.65048-2.43035A8.10262,8.10262,0,0,0,37.715,57.07446a7.659,7.659,0,0,0-2.11,3.83239,13.49107,13.49107,0,0,1-1.44353-.99073,11.12269,11.12269,0,0,1-2.00526-2.019M30.9044,55.71592a9.7864,9.7864,0,0,1-.7237-3.74933,2.18812,2.18812,0,1,1,4.37623,0,5.39813,5.39813,0,0,0,.19963,1.57408,5.18781,5.18781,0,0,0-3.85216,2.17525m-9.35159-1.9775a2.04736,2.04736,0,0,1-.04152-1.64528,3.14516,3.14516,0,0,1,2.11-1.5286c1.65512-.51613,2.541-1.94783,3.39738-3.33407,1.17064-1.89246,2.278-3.68012,5.34518-3.68012,3.0552,0,4.127,1.77778,5.26009,3.66234.83655,1.39214,1.70267,2.83375,3.36768,3.35185a2.97144,2.97144,0,0,1,1.9577,1.47718,2.4224,2.4224,0,0,1,.09692,1.73031A14.20783,14.20783,0,0,1,41.049,56.4555,9.862,9.862,0,0,1,37.83554,54.656a5.66572,5.66572,0,1,0-8.24613,3.00776,12.39383,12.39383,0,0,0,2.54707,3.19168c-6.03738-.14435-10.04174-5.96018-10.58367-7.117m15.92281,8.14729A5.57694,5.57694,0,0,1,39.68051,58.081a23.01941,23.01941,0,0,0,3.27089,1.06983,9.16543,9.16543,0,0,0-.98284,4.26745,26.46568,26.46568,0,0,1-4.49294-1.53257M50.85342,64.407a8.84467,8.84467,0,0,1,.19577-4.35248c1.6492.03758,3.28066.02175,4.75787-.00791V64.407c-1.52657.02966-3.22526.04151-4.95364,0m10.0596-.11471c-.6368,0-1.505.02373-2.51146.05141-.18394.004-.37573.0099-.5715.01583V59.99127c.21351-.00593.42123-.01187.62292-.01978,1.00057-.02966,1.86283-.05537,2.46-.05537a2.1881,2.1881,0,0,1,0,4.3762"/>
</svg>
