<svg id="Layer_1" data-name="Layer 1" xmlns="http://www.w3.org/2000/svg" viewBox="0 0 70 70">
  <defs>
    <style>
      .cls-1 {
        fill: #00b5cb;
      }
    </style>
  </defs>
  <title>BONE AND MUSCULOSKELETAL DISEASES_0-01_0-01_0</title>
  <path class="cls-1" d="M62.39428,16.11907l.13556-.13555a1.07712,1.07712,0,1,0-1.52321-1.52334L45.63747,29.82909a1.78719,1.78719,0,0,0-.24786,2.22721,4.66683,4.66683,0,0,1-1.6474,6.54022c-.01436.0077-.02873.01567-.0427.02416A4.66649,4.66649,0,0,1,36.858,35.43989l-.0017-.00731L36.8554,35.427,36.441,33.43873a1.077,1.077,0,0,0-2.13136.21456,4.674,4.674,0,0,1-1.49252-1.15311,4.91513,4.91513,0,0,1,.06243-6.15237,4.65873,4.65873,0,0,1,5.96053-.84126,1.78659,1.78659,0,0,0,2.22734-.24747l15.55239-15.552a1.07712,1.07712,0,0,0-1.52321-1.52334l-.08945.08946A33.03285,33.03285,0,1,0,29.58205,67.12578v.15932a1.07711,1.07711,0,0,0,2.15422,0v-.84034q.011-.04839.01789-.09873a1.06941,1.06941,0,0,0-.01789-.37989V46.57663a1.78754,1.78754,0,0,0-1.39953-1.75017A4.66727,4.66727,0,1,1,33.97668,36.401a1.074,1.074,0,0,0,.9362.129,6.81,6.81,0,0,0,6.52285,4.82544,6.8826,6.8826,0,0,0,1.70969-.21691,4.64328,4.64328,0,0,1-3.54709,3.688,1.787,1.787,0,0,0-1.39915,1.75V67.28485a1.07711,1.07711,0,0,0,2.15422,0v-.15919A33.03806,33.03806,0,0,0,62.39428,16.11907ZM31.27659,24.90936a7.12655,7.12655,0,0,0-.42794,8.56659,6.82165,6.82165,0,0,0-1.2666,13.38249V64.941A30.88,30.88,0,1,1,53.46923,9.81078l-13.726,13.72608A6.80773,6.80773,0,0,0,31.27659,24.90936ZM40.3534,64.94075V46.85831A6.794,6.794,0,0,0,45.37733,40.106a6.81532,6.81532,0,0,0,1.98249-8.95262l13.481-13.48083a30.6591,30.6591,0,0,1,5.00513,16.85972A30.971,30.971,0,0,1,40.3534,64.94075Z"/>
</svg>
