<svg id="Layer_1" data-name="Layer 1" xmlns="http://www.w3.org/2000/svg" viewBox="0 0 70 70">
  <defs>
    <style>
      .cls-1 {
        fill: #00a3b9;
      }
    </style>
  </defs>
  <title>CARDIOVASCULAR AND PERIPHERAL VASCULAR CENTER-01_0</title>
  <g>
    <path class="cls-1" d="M17.37516,34.71267l4.89647-12.85722L28.0407,49.13581A1.77584,1.77584,0,0,0,29.69908,50.575h.05244a1.76208,1.76208,0,0,0,1.67933-1.33193l5.4467-20.02337,1.71083,5.39389a1.76272,1.76272,0,0,0,1.66094,1.25487H54.25a1.84054,1.84054,0,0,0,.00846-3.67663H41.51209l-3.10185-9.77225A1.6652,1.6652,0,0,0,36.71253,21.162a1.75985,1.75985,0,0,0-1.64271,1.33467l-5.1061,18.76849L24.45929,15.25073a1.75111,1.75111,0,0,0-2.08814-1.3958,1.7767,1.7767,0,0,0-1.24444,1.10958L14.56387,32.1919H1.75a1.84077,1.84077,0,0,0,0,3.67664H15.75068a1.74894,1.74894,0,0,0,1.62448-1.15587"/>
    <path class="cls-1" d="M63.84992,7.46176a20.13463,20.13463,0,0,0-28.8503-.72923A20.189,20.189,0,0,0,5.49606,8.18479,22.74278,22.74278,0,0,0,.73668,28.51711H4.37837C1.44382,18.91554,6.47492,8.63307,15.61565,5.55057a16.75847,16.75847,0,0,1,16.82692,3.7055l2.557,2.51253,2.55961-2.51253a16.75581,16.75581,0,0,1,23.81487.80357,19.07044,19.07044,0,0,1,0,25.998L34.99962,63.75891,11.94973,39.5471H7.00082l27.9988,29.41308,28.8503-30.30469a22.85214,22.85214,0,0,0,0-31.19369"/>
  </g>
</svg>
