<svg id="Layer_1" data-name="Layer 1" xmlns="http://www.w3.org/2000/svg" viewBox="0 0 70 70">
  <defs>
    <style>
      .cls-1 {
        fill: #fff;
      }

      .cls-2 {
        fill: none;
        stroke: #00a3b9;
        stroke-miterlimit: 10;
        stroke-width: 2px;
      }
    </style>
  </defs>
  <title>family-01</title>
  <path class="cls-1" d="M50.27865,43.03673l-14.661-5.33087-14.661,5.33087a9.39625,9.39625,0,0,0-5.99774,8.66532V69.02849H56.27421V51.70205a9.39746,9.39746,0,0,0-5.99556-8.66532"/>
  <path class="cls-2" d="M50.27865,43.03673l-14.661-5.33087-14.661,5.33087a9.39625,9.39625,0,0,0-5.99774,8.66532V69.02849H56.27421V51.70205A9.39746,9.39746,0,0,0,50.27865,43.03673Z"/>
  <path class="cls-1" d="M28.112,21.765H21.35959V10.1534a3.91775,3.91775,0,0,1,3.918-3.918H28.112Z"/>
  <path class="cls-2" d="M28.112,21.765H21.35959V10.1534a3.91775,3.91775,0,0,1,3.918-3.918H28.112Z"/>
  <path class="cls-1" d="M44.28,22.37881h6.66461V10.918A3.86687,3.86687,0,0,0,47.07754,7.051H44.28Z"/>
  <path class="cls-2" d="M44.28,22.37881h6.66461V10.918A3.86687,3.86687,0,0,0,47.07754,7.051H44.28Z"/>
  <path class="cls-1" d="M50.27865,17.048H48.28009V16.01826A12.86259,12.86259,0,0,0,36.07891,3.06014,12.66355,12.66355,0,0,0,22.95513,15.7142V17.048H20.95657a2.664,2.664,0,0,0-2.66543,2.66546v2.00065a2.66352,2.66352,0,0,0,2.66543,2.66335h1.99856A12.639,12.639,0,0,0,28.953,35.12935v5.24281l6.66461,3.99709,6.66461-3.99709V35.12935a12.64391,12.64391,0,0,0,5.99787-10.75194h1.99856a2.66491,2.66491,0,0,0,2.66543-2.66335V19.71341A2.66535,2.66535,0,0,0,50.27865,17.048"/>
  <path class="cls-2" d="M50.27865,17.048H48.28009V16.01826A12.86259,12.86259,0,0,0,36.07891,3.06014,12.66355,12.66355,0,0,0,22.95513,15.7142V17.048H20.95657a2.664,2.664,0,0,0-2.66543,2.66546v2.00065a2.66352,2.66352,0,0,0,2.66543,2.66335h1.99856A12.639,12.639,0,0,0,28.953,35.12935v5.24281l6.66461,3.99709,6.66461-3.99709V35.12935a12.64391,12.64391,0,0,0,5.99787-10.75194h1.99856a2.66491,2.66491,0,0,0,2.66543-2.66335V19.71341A2.66535,2.66535,0,0,0,50.27865,17.048Z"/>
  <line class="cls-2" x1="29.81149" y1="15.68763" x2="29.81149" y2="19.06382"/>
  <line class="cls-2" x1="40.61572" y1="15.68763" x2="40.61572" y2="19.06382"/>
  <path class="cls-1" d="M27.112,14.33887h0a3.81894,3.81894,0,0,1,5.401,0"/>
  <path class="cls-2" d="M27.112,14.33887h0a3.81894,3.81894,0,0,1,5.401,0"/>
  <path class="cls-1" d="M42.94679,15.04916h0a3.76949,3.76949,0,0,0-5.331,0"/>
  <path class="cls-2" d="M42.94679,15.04916h0a3.76949,3.76949,0,0,0-5.331,0"/>
  <path class="cls-1" d="M35.61723,37.04021A12.66157,12.66157,0,0,0,48.27957,24.37779"/>
  <path class="cls-2" d="M35.61723,37.04021A12.66157,12.66157,0,0,0,48.27957,24.37779"/>
  <rect class="cls-1" x="48.27817" y="17.04875" width="2.66543" height="3.99713"/>
  <rect class="cls-2" x="48.27817" y="17.04875" width="2.66543" height="3.99713"/>
  <rect class="cls-1" x="21.3601" y="16.36477" width="2.70051" height="4.04972"/>
  <rect class="cls-2" x="21.3601" y="16.36477" width="2.70051" height="4.04972"/>
  <rect class="cls-1" x="20.28996" y="1.05192" width="30.65364" height="11.99554"/>
  <rect class="cls-2" x="20.28996" y="1.05192" width="30.65364" height="11.99554"/>
  <rect class="cls-1" x="48.94504" y="15.715" width="1.33374" height="2.66543"/>
  <rect class="cls-2" x="48.94504" y="15.715" width="1.33374" height="2.66543"/>
  <rect class="cls-1" x="22.03368" y="15.01348" width="1.35129" height="2.70051"/>
  <rect class="cls-2" x="22.03368" y="15.01348" width="1.35129" height="2.70051"/>
  <rect class="cls-1" x="25.62082" y="21.04587" width="19.99191" height="10.66388"/>
  <rect class="cls-2" x="25.62082" y="21.04587" width="19.99191" height="10.66388"/>
  <line class="cls-2" x1="21.62674" y1="21.34788" x2="48.2764" y2="20.74348"/>
  <polyline class="cls-1" points="25.621 41.038 35.618 47.703 45.613 41.038"/>
  <polyline class="cls-2" points="25.621 41.038 35.618 47.703 45.613 41.038"/>
</svg>
