<svg id="Layer_1" data-name="Layer 1" xmlns="http://www.w3.org/2000/svg" viewBox="0 0 70 70">
  <defs>
    <style>
      .cls-1 {
        fill: #00a3b9;
      }
    </style>
  </defs>
  <title>HEMATOLOGY AND ONCOLOGY </title>
  <path class="cls-1" d="M25.34327,60.59562c3.69028-1.88336,3.69494-5.35136,0-7.23712-5.21762-2.65776-14.44076-.87476-14.44076,3.61854.00233,4.49811,9.22314,6.27633,14.44076,3.61858M12.85042,56.977c0-1.37428,2.844-2.91585,6.65393-2.91585s6.65394,1.54157,6.65394,2.91585c0,1.37669-2.84419,2.91588-6.65394,2.91588s-6.65393-1.53919-6.65393-2.91588"/>
  <path class="cls-1" d="M13.19629,16.71925C6.4754,20.98553,7.441,26.75037,12.90468,26.23648a13.09818,13.09818,0,0,0,9.02971-5.73136c2.82989-4.78969-2.12-7.99-8.7381-3.78587m7.06036,2.794a11.19878,11.19878,0,0,1-7.53359,4.78494c-4.18976.39435-2.03631-3.67831,1.51539-5.93453,3.554-2.25386,8.15969-2.47136,6.0182,1.14959"/>
  <path class="cls-1" d="M53.02524,27.05077c-8.78347,1.41732-8.86239,8.62577-.75522,8.62577,4.42638,0,9.32132-2.39965,8.80258-5.59037-.38716-2.41159-3.85031-3.71657-8.04736-3.0354m6.12585,3.34608c.15055.93931-1.74718,2.64583-5.07174,3.18357a9.48078,9.48078,0,0,1-4.23046-.19117c-4.20406-1.35039.772-4.565,5.27728-4.565,2.34937,0,3.90064.815,4.02492,1.57264"/>
  <path class="cls-1" d="M44.81755,41.37972c-1.82843-.28443-3.26241.153-4.03688,1.22851-2.66972,3.69265,4.503,10.55454,9.77062,10.55454a3.55084,3.55084,0,0,0,3.021-1.31933c2.481-3.4417-3.53492-9.65588-8.75473-10.46372m7.175,9.32124c-1.19269,1.65156-7.34481-.80543-9.374-4.761-1.91436-3.72613,2.65308-3.23616,6.04927-.78395,2.75811,1.99091,4.02973,4.56981,3.3247,5.54493"/>
  <path class="cls-1" d="M34.7826,17.31436c5.32032,1.64437,13.167-2.07694,12.17265-6.49617-.61181-2.71034-4.48137-4.07029-8.80739-3.09754-7.32074,1.65393-8.96041,7.86571-3.36526,9.59371m6.1139-7.95892c2.28007,0,3.92207.83653,4.15869,1.89054.54967,2.4331-5.3848,5.53779-9.69418,4.20891-4.82317-1.489.00962-6.09945,5.53549-6.09945"/>
  <path class="cls-1" d="M61.60943,22.71568a.97348.97348,0,0,0-.61429,1.84751c5.63337,1.87621,6.85948,6.415,2.42114,10.24622a18.71637,18.71637,0,0,1-11.5321,3.96033c-8.95079.12429-14.06309-5.69552-7.88486-11.02776,3.48474-3.00191,9.07041-4.35231,13.75966-3.85993a.97331.97331,0,1,0,.20321-1.936c-10.56887-1.11374-21.45575,6.18075-17.97335,13.37483a7.60217,7.60217,0,0,0-5.251,2.92544C29.39605,45.64837,41.313,59.24785,52.704,59.24785c9.86851,0,11.20227-10.6836,1.814-18.72378a19.73464,19.73464,0,0,0,10.16974-4.24c5.533-4.77295,4.07277-11.19031-3.07832-13.56841M51.82451,57.26646C41.8889,56.5351,32.29275,44.96241,36.31767,39.38878a6.14617,6.14617,0,0,1,4.97372-2.22993c2.50487,2.58846,6.70412,3.5588,10.30833,3.5588,9.32365,6.5201,10.122,17.28021.22479,16.54881"/>
  <path class="cls-1" d="M7.91171,49.17679a.97411.97411,0,1,0,1.00613,1.6683c5.88442-3.54688,15.43025-3.53492,21.28361.06692,9.35705,5.75766,1.91917,14.8447-10.69564,14.8447-10.83655,0-18.22425-6.79737-13.34609-12.61955a.97391.97391,0,0,0-1.49379-1.25c-5.73622,6.84278,1.50575,15.81749,14.83988,15.81749a22.63135,22.63135,0,0,0,11.7162-3.002c3.291-2.02676,5.10515-4.76817,5.10515-7.72468,0-9.55786-17.89209-14.14441-28.41545-7.8012"/>
  <path class="cls-1" d="M18.626,30.10721a.97374.97374,0,0,0-.8652-1.74474c-8.98434,4.43834-17.21814.92972-13.23625-7.2419a18.74692,18.74692,0,0,1,6.85715-7.261c8.9149-5.6573,18.59712-3.31982,15.8724,4.74187a17.00814,17.00814,0,0,1-6.06838,7.6721.97231.97231,0,1,0,1.15682,1.56312,20.41226,20.41226,0,0,0,5.81017-6.46751,15.95955,15.95955,0,0,0,8.82665,2.41155c10.01424,0,18.93162-7.22038,17.26817-14.60568-.662-2.92307-2.88007-5.28684-6.25482-6.65156C40.16054-.64337,29.171,2.76962,25.31584,9.57655,18.2746,6.62245,6.66373,12.28926,2.77506,20.26733c-4.58889,9.41206,4.48852,15.45414,15.851,9.83988M47.26145,4.33034c5.717,2.31122,6.92877,7.67213,2.7533,12.21805-5.12674,5.58319-15.53543,6.99332-21.03737,3.021,1.23092-3.31979.84128-6.87622-1.97183-9.02249,3.31741-5.90346,13.26965-9.044,20.2559-6.21659"/>
</svg>
