<?xml version="1.0" encoding="utf-8"?>
<!-- Generator: Adobe Illustrator 23.0.3, SVG Export Plug-In . SVG Version: 6.00 Build 0)  -->
<svg version="1.1" id="Layer_1" xmlns="http://www.w3.org/2000/svg" xmlns:xlink="http://www.w3.org/1999/xlink" x="0px" y="0px"
	 viewBox="0 0 70 70" style="enable-background:new 0 0 70 70;" xml:space="preserve">
<style type="text/css">
	.st0{fill:#00A3B9;}
</style>
<title>FAMILY MEDICINE</title>
<g>
	<path class="st0" d="M47.4,16.2c-2.8-0.3-5.3-1.7-7-4c-0.7-0.8-1-1.8-1-2.9c0-0.2,0-0.3,0-0.5c-3.6,1.9-13.3,2.7-16.7,2.6l0-1.7
		c4.5,0.1,14.2-1,16.3-2.7C39.5,6.8,40,6.8,40.4,7c0.8,0.7,1.1,1.7,0.8,2.7c0.1,0.6,0.3,1.2,0.7,1.6c1.4,1.8,3.5,2.9,5.7,3.2
		L47.4,16.2z"/>
	<path class="st0" d="M34.9,36c-7,0-12.2-6.7-13.3-17c-0.6-6.6,0.4-11.5,3.2-14.5c2.3-2.5,5.6-3.8,10-3.8c4.5,0,7.9,1.3,10.2,3.8
		c2.8,3.1,3.8,8,3.1,14.5C47,29.4,42,36,34.9,36 M35,2.4c-3.9,0-6.8,1.1-8.7,3.2c-2.4,2.7-3.4,7.1-2.8,13.2
		c0.9,9.4,5.4,15.5,11.5,15.5c6.1,0,10.5-5.9,11.5-15.5c0.7-6-0.2-10.4-2.6-13.1C41.9,3.5,38.9,2.4,35,2.4"/>
	<path class="st0" d="M34.9,68.5L34.9,68.5c-0.6,0-1.1-0.4-1.2-0.9l-7.3-31l0-5.1l1.7,0l0,5l6.8,28.6l7.2-28.8l-0.2-5l1.7-0.1
		l0.2,5.3l-7.7,31.2C36,68.2,35.5,68.5,34.9,68.5"/>
	<path class="st0" d="M35.1,47.4c-3.3,0-6.3-2-7.4-5.1l1.7-0.6c1.1,3.1,4.6,4.7,7.7,3.6c1.8-0.6,3.1-2.1,3.7-3.9l1.7,0.5
		C41.5,45.1,38.5,47.3,35.1,47.4"/>
	<path class="st0" d="M34.9,69.4c-0.4,0-0.8-0.2-1-0.6l-11-17.7c-0.2-0.3-0.2-0.7,0.1-1l1.9-2.2l-2.3-0.9c-0.4-0.1-0.6-0.5-0.6-0.9
		l0.5-7.8c0-0.2,0.1-0.5,0.3-0.6l4-3.5l1.2,1.3l-3.7,3.3l-0.4,6.8l2.9,1.1c0.4,0.2,0.7,0.7,0.5,1.1c0,0.1-0.1,0.2-0.2,0.3l-2.3,2.7
		l10.3,16.4l10.3-16.4L42.9,48c-0.3-0.4-0.3-0.9,0.1-1.2c0.1-0.1,0.2-0.1,0.3-0.2l2.9-1.1l-0.4-6.8l-3.4-3l1.2-1.3l3.6,3.2
		c0.2,0.2,0.3,0.4,0.3,0.6l0.4,7.8c0,0.4-0.2,0.7-0.6,0.9L45,47.8l1.9,2.2c0.3,0.3,0.3,0.7,0.1,1L36,68.8
		C35.7,69.2,35.3,69.4,34.9,69.4"/>
	<path class="st0" d="M3.3,65.1l-1.7-0.2l1.7-13.6c0.4-3.5,2.7-6.5,6-7.8l13.7-5.4l0.6,1.6L9.9,45.1c-2.7,1.1-4.6,3.5-4.9,6.4
		L3.3,65.1z"/>
	<path class="st0" d="M66.7,65.1l-1.6-13.6c-0.3-2.9-2.2-5.3-4.9-6.4l-13.7-5.4l0.6-1.6l13.7,5.4c3.3,1.3,5.6,4.3,6,7.8l1.6,13.6
		L66.7,65.1z"/>
	<path class="st0" d="M16.6,50.5c-0.7-7.3,5.4-11.5,5.7-11.6l1,1.5c-0.1,0-5.6,3.8-4.9,10L16.6,50.5z"/>
	<path class="st0" d="M20.5,67.1h-1.1v-1.7l1.1,0c1.1,0,2-0.9,2-2c0-0.1,0-0.2,0-0.4l-1.6-8.7c-0.1-1.7-1.5-3-3.2-2.9
		c-1.5,0.1-2.8,1.3-2.9,2.8L13,63c-0.2,1.1,0.5,2.2,1.6,2.4c0.1,0,0.2,0,0.4,0l1.2,0l0,1.7H15c-2.1,0-3.8-1.7-3.8-3.8
		c0-0.2,0-0.5,0.1-0.7l1.6-8.8c0.3-2.7,2.6-4.6,5.3-4.3c2.3,0.2,4.2,2.1,4.3,4.4l1.6,8.7c0.4,2.1-1,4-3,4.4
		C20.9,67.1,20.7,67.1,20.5,67.1"/>
	
		<rect x="18.2" y="65.2" transform="matrix(1.150485e-03 -1 1 1.150485e-03 -46.8131 85.3577)" class="st0" width="2.2" height="1.7"/>
	<rect x="15.4" y="65" class="st0" width="1.7" height="2.2"/>
	<path class="st0" d="M52.5,58.1l-1.7,0l0-8.8c0-1.9-0.5-3.7-1.4-5.3l-2.4-4.1l1.5-0.9l2.4,4.1c1.1,1.9,1.7,4,1.7,6.2L52.5,58.1z"/>
	<path class="st0" d="M51.6,66.5c-2.7,0-4.8-2.2-4.8-4.9s2.2-4.8,4.9-4.8c2.7,0,4.8,2.2,4.8,4.9C56.4,64.4,54.3,66.5,51.6,66.5
		 M51.6,58.6c-1.7,0-3.1,1.4-3.1,3.1s1.4,3.1,3.1,3.1c1.7,0,3.1-1.4,3.1-3.1C54.7,60,53.3,58.6,51.6,58.6"/>
	<path class="st0" d="M51.6,63.8c-1.2,0-2.1-0.9-2.1-2.1c0-1.2,0.9-2.1,2.1-2.1c1.1,0,2.1,0.9,2.1,2.1
		C53.7,62.8,52.7,63.8,51.6,63.8 M51.6,61.4c-0.2,0-0.3,0.2-0.3,0.3c0,0,0,0,0,0c0,0.4,0.7,0.4,0.7,0C51.9,61.5,51.8,61.4,51.6,61.4
		C51.6,61.4,51.6,61.4,51.6,61.4"/>
</g>
</svg>
