<svg id="Layer_1" data-name="Layer 1" xmlns="http://www.w3.org/2000/svg" viewBox="0 0 70 70">
  <defs>
    <style>
      .cls-1 {
        fill: #00a3b9;
      }
    </style>
  </defs>
  <title>Pulmonology</title>
  <path class="cls-1" d="M51.842,57.60094H48.30114a7.96973,7.96973,0,0,1-7.94072-8.64559l.61676-9.69922c.35784.21476.73046.38,1.09391.56719a15.79367,15.79367,0,0,0,3.03055,1.25737c.09366,1.95857.96552,4.85329,3.89882,5.53061a.99184.99184,0,0,0,.446-1.93285c-1.67212-.38549-2.16407-2.00813-2.30915-3.1407a17.43,17.43,0,0,0,2.51115.22762.99121.99121,0,0,0,0-1.98242H49.619c-4.48791-.06059-8.74289-2.37158-11.96424-5.77659a4.07324,4.07324,0,0,0-5.896,0c-5.828,6.15839-11.79539,5.73436-11.99369,5.77659a.99213.99213,0,0,0,0,1.98425,16.49585,16.49585,0,0,0,2.43766-.21109c-.14867,1.13072-.64432,2.7387-2.30546,3.12234a.99164.99164,0,0,0,.44422,1.93285c2.92591-.67365,3.79777-3.55,3.89692-5.50858a17.1456,17.1456,0,0,0,2.41559-.916c.01288-.0055,1.68691-.87373,1.91266-1.01323.72879,11.40631.60757,9.59276.62594,9.80018a7.96206,7.96206,0,0,1-7.94071,8.62723H18.10028a.99214.99214,0,1,0,0,1.98427h3.15166a9.95836,9.95836,0,0,0,9.91768-10.76569l-.70123-10.997a24.71215,24.71215,0,0,0,2.73142-2.4505,2.0466,2.0466,0,0,1,1.507-.64614c1.4354,0,1.31238.86457,4.3668,3.21228l-.69193,10.88134a9.95368,9.95368,0,0,0,9.91948,10.76569H51.842a.99214.99214,0,0,0,0-1.98427"/>
  <path class="cls-1" d="M68.48762,55.31545C66.417,39.85067,64.46209,25.2431,54.862,18.881a7.75142,7.75142,0,0,0-4.29341-1.28857c-3.95383,0-10.06635,3.003-10.41142,7.15142l-.21847,2.64141a5.08,5.08,0,0,1-1.26465-3.093V1.99176a.99219.99219,0,0,0-1.98437,0V24.29227a5.87256,5.87256,0,0,0,.87007,3.07826A28.3421,28.3421,0,0,0,39.97,30.65439,16.29526,16.29526,0,0,0,44.3845,34.3072c.0698.03856.134.09912.20379.13584a1.8825,1.8825,0,0,0,.33768.15419,11.37849,11.37849,0,0,0,4.7616,1.21883.93363.93363,0,0,0,.37812-.15419c.10464-.04772.23494-.04772.31571-.13033a.99162.99162,0,0,0-.68106-1.69791,8.34785,8.34785,0,0,1-1.40974-.19458A5.75162,5.75162,0,0,0,50.57231,30.302a.99166.99166,0,1,0-1.91457-.51763,3.70427,3.70427,0,0,1-3.148,2.88187,14.35206,14.35206,0,0,1-3.76852-3.0122l.3947-4.74681c.23673-2.89289,5.34889-5.33053,8.43265-5.33053a5.7655,5.7655,0,0,1,3.19569.95816c8.85123,5.86469,10.74921,20.03907,12.75924,35.045l.03114.24229A1.56965,1.56965,0,0,1,65,57.60076H56.20566a.99213.99213,0,0,0,0,1.98426H65a3.55613,3.55613,0,0,0,3.5225-4.02543Z"/>
  <path class="cls-1" d="M15.7863,20.53428a5.7742,5.7742,0,0,1,3.19749-.95634c3.08387,0,8.19413,2.43766,8.43456,5.3287l.38182,4.59813c-.34507.38547-.69944.6957-1.04809,1.02794A7.82311,7.82311,0,0,1,24.71091,32.159c-.25891.17071-.51581.3818-.78021.525a3.74478,3.74478,0,0,1-3.24712-2.90023.9916.9916,0,1,0-1.91445.51765,5.7829,5.7829,0,0,0,2.28708,3.34443,8.574,8.574,0,0,1-1.34364.18722.99245.99245,0,0,0-.67915,1.69976c.0605.06057.16155.05323.23673.09729a.89673.89673,0,0,0,.47.18539,13.63036,13.63036,0,0,0,5.03318-1.32346,19.999,19.999,0,0,0,7.08163-7.12022,5.87154,5.87154,0,0,0,.86827-3.07645V1.99122a.99213.99213,0,0,0-1.98425,0V24.29539a4.30442,4.30442,0,0,1-1.14724,2.81946l-.1983-2.37157c-.34137-4.14842-6.45569-7.15144-10.40963-7.15144a7.759,7.759,0,0,0-4.29521,1.29042C4.50112,25.63538,2.80311,42.33735,1.03184,55.56088a3.55588,3.55588,0,0,0,3.52249,4.0236h7.85994a.99214.99214,0,0,0,0-1.98427H4.55433a1.55138,1.55138,0,0,1-1.184-.536,1.69158,1.69158,0,0,1-.33958-1.485c2.01-15.0059,3.908-29.18026,12.75553-35.045"/>
</svg>
