<svg id="Layer_1" data-name="Layer 1" xmlns="http://www.w3.org/2000/svg" viewBox="0 0 315.06 354.28"><defs><style>.cls-1{fill:#fff;fill-rule:evenodd;}</style></defs><title>appointment_icon</title><path class="cls-1" d="M246.38,298.61a67,67,0,0,1-66.06-56.05H22.14A21.81,21.81,0,0,1,.34,220.75V40.12a21.79,21.79,0,0,1,21.8-21.8h28V5.86a6.23,6.23,0,1,1,12.45,0V18.32H188.77V5.86a6.23,6.23,0,1,1,12.45,0V18.32h28a21.8,21.8,0,0,1,21.81,21.8V164.87a67,67,0,0,1-4.68,133.74M238.6,41.67a10.91,10.91,0,0,0-10.9-10.9H201.22V43.23a6.23,6.23,0,1,1-12.45,0V30.77H62.63V43.23a6.23,6.23,0,1,1-12.45,0V30.77H23.7a10.91,10.91,0,0,0-10.9,10.9V60.36H238.6Zm0,31.15H12.8V219.2a10.9,10.9,0,0,0,10.9,10.9H179.46a67,67,0,0,1,59.14-64.94Zm7.78,104.33a54.51,54.51,0,1,0,54.51,54.5,54.5,54.5,0,0,0-54.51-54.5"/><path class="cls-1" d="M95.25,195.15a8.57,8.57,0,1,0,8.56,8.56,8.57,8.57,0,0,0-8.56-8.56m-49.83,0A8.57,8.57,0,1,0,54,203.71a8.57,8.57,0,0,0-8.56-8.56m99.66-46.72a8.57,8.57,0,1,0,8.56,8.57,8.57,8.57,0,0,0-8.56-8.57m-49.83,0a8.57,8.57,0,1,0,8.56,8.57,8.57,8.57,0,0,0-8.56-8.57m-49.83,0A8.57,8.57,0,1,0,54,157a8.57,8.57,0,0,0-8.56-8.57m149.49-29.59a8.57,8.57,0,1,0-8.57-8.56,8.56,8.56,0,0,0,8.57,8.56m-49.83-17.13a8.57,8.57,0,1,0,8.56,8.57,8.57,8.57,0,0,0-8.56-8.57m-49.83,0a8.57,8.57,0,1,0,8.56,8.57,8.57,8.57,0,0,0-8.56-8.57m99.66,46.72a8.57,8.57,0,1,0,8.56,8.57,8.57,8.57,0,0,0-8.56-8.57m-49.83,46.72a8.57,8.57,0,1,0,8.56,8.56,8.57,8.57,0,0,0-8.56-8.56"/><path class="cls-1" d="M245.52,201.38v40.48a6.23,6.23,0,0,1-12.46,0V201.38a6.23,6.23,0,1,1,12.46,0"/><path class="cls-1" d="M268.88,248.09H239.29a6.23,6.23,0,1,1,0-12.45h29.59a6.23,6.23,0,1,1,0,12.45"/></svg>