<?xml version="1.0" encoding="utf-8"?>
<!-- Generator: Adobe Illustrator 23.0.3, SVG Export Plug-In . SVG Version: 6.00 Build 0)  -->
<svg version="1.1" id="Layer_1" xmlns="http://www.w3.org/2000/svg" xmlns:xlink="http://www.w3.org/1999/xlink" x="0px" y="0px"
	 viewBox="0 0 256.1 255.7" style="enable-background:new 0 0 256.1 255.7;" xml:space="preserve">
<style type="text/css">
	.st0{fill:#FFFFFF;}
</style>
<title>Clockicon</title>
<g id="WFHv83.tif">
	<path class="st0" d="M118.8,0h18.5c0.4,0.1,0.8,0.2,1.2,0.3c15.1,1.1,29.8,5,43.4,11.5c35.1,16.4,58,43.5,69.4,80.4
		c2.4,8.2,4,16.7,4.8,25.2v20.5c-0.1,0.6-0.2,1.1-0.3,1.7c-0.8,10.4-3.1,20.6-6.7,30.4c-16.1,43.4-46.8,70.7-91.5,82.5
		c-6.7,1.6-13.5,2.7-20.4,3.3h-18.5c-0.4-0.1-0.8-0.2-1.2-0.3c-17.1-1.2-33.7-6.1-48.7-14.3C27,218.4,4.4,182.8,0.4,135.7
		C-1.2,116.4,2,97.1,9.7,79.3C26.8,39.2,56.9,14.2,98.9,3.2C105.4,1.5,112.1,0.8,118.8,0z M240.3,127.9
		C240.4,66.7,190.8,16,128.4,15.7S16.1,66.6,16.2,127.5c0.1,60.7,47.6,111.7,111.1,112.4c61.8,0.6,112.4-49,113-110.8
		C240.3,128.7,240.3,128.3,240.3,127.9z"/>
	<path class="st0" d="M120.1,91.6c0-12.3,0-24.6,0-37c0-5.5,4.2-9.1,9.4-8.3c4,0.6,6.8,4,6.9,8.5c0,12.7,0,25.5,0,38.2
		c0,10.1,0.1,20.1,0,30.2c-0.1,2.1,0.7,4.1,2.2,5.5c11.7,11.7,23.4,23.4,35.1,35.2c0.8,0.8,1.6,1.7,2.4,2.6c2.6,3,2.4,7.4-0.3,10.2
		c-2.7,2.9-7.2,3.4-10.5,1c-1.1-0.8-2-1.7-2.9-2.7c-12.6-12.5-25-25.1-37.7-37.6c-3.1-2.8-4.8-6.9-4.6-11.1
		C120.2,114.9,120.1,103.2,120.1,91.6z"/>
</g>
</svg>
