<svg id="Layer_1" data-name="Layer 1" xmlns="http://www.w3.org/2000/svg" viewBox="0 0 315.06415 354.28489"><defs><style>.cls-1{fill:none;stroke:#fff;stroke-linecap:round;stroke-linejoin:round;stroke-width:10px;}</style></defs><title>departments-icon</title><path class="cls-1" d="M149.88515,253.25772,187.939,274.17366l105.41476-65.21673a7.64345,7.64345,0,0,1,4.05838-1.15747,11.15667,11.15667,0,0,1,10.8284,8.451l1.07958,4.26578a14.08458,14.08458,0,0,1-5.26386,14.6984L192.65035,317.95187a31.12749,31.12749,0,0,1-10.35382,5.05554l-5.26385,1.46178a18.48991,18.48991,0,0,1-10.81391-.2554L55.796,287.58779A20.04023,20.04023,0,0,0,40.523,288.69726L5.35512,305.947"/><path class="cls-1" d="M14.28927,233.47932l70.933-24.17551a20.86526,20.86526,0,0,1,9.26292-.90116l121.80769,15.42476a10.30042,10.30042,0,0,1,8.974,11.11731l-.57148,6.61061a11.63991,11.63991,0,0,1-11.385,10.62462l-63.42483,1.07958-25.578-.90478"/><path class="cls-1" d="M211.24864,223.188l47.3131-18.774a11.85069,11.85069,0,0,1,7.86861-.01177,14.48574,14.48574,0,0,1,9.70082,13.67406v1.536"/><path class="cls-1" d="M271.84727,109.21993V85.18117L247.45575,83.0519a70.95019,70.95019,0,0,0-9.62293-23.96448L253.37261,40.5797,236.37512,23.58176l-17.996,15.10233a71.034,71.034,0,0,0-24.63967-11.02493L191.77319,5.10393H167.73444L165.8497,26.71272a70.98,70.98,0,0,0-26.78751,10.23879L123.133,23.58176,106.1314,40.5797l12.95042,15.42476A71.04821,71.04821,0,0,0,107.32192,83.464L87.65719,85.18117v24.03876l19.66473,1.71446a71.07009,71.07009,0,0,0,11.7599,27.46316L106.1314,153.82231,123.133,170.82025,139.06219,157.446a70.94179,70.94179,0,0,0,26.78751,10.24333l1.88474,21.60517h24.03875l1.96625-22.55162a70.97421,70.97421,0,0,0,24.63967-11.02855l17.996,15.106,16.99749-16.99794L237.83282,135.311a70.9317,70.9317,0,0,0,9.62293-23.96087Z"/><path class="cls-1" d="M223.42288,97.19964A43.67066,43.67066,0,1,1,179.752,53.52921,43.67079,43.67079,0,0,1,223.42288,97.19964Z"/></svg>