<svg id="Layer_1" data-name="Layer 1" xmlns="http://www.w3.org/2000/svg" viewBox="0 0 315.06 354.28">
  <defs>
    <style>
      .cls-1 {
        fill: #076798;
      }
    </style>
  </defs>
  <title>FAMILY AND FRIENDS</title>
  <path class="cls-1" d="M98.7692,103.95385a4.45347,4.45347,0,0,0-6.26477.65385,8.28035,8.28035,0,0,1-13.437,0,4.45392,4.45392,0,0,0-6.91862,5.61092,17.17,17.17,0,0,0,27.27425,0A4.454,4.454,0,0,0,98.7692,103.95385Z"/>
  <path class="cls-1" d="M65.43031,77.51458a4.45416,4.45416,0,0,0-4.45406,4.45405v5.08891a4.45406,4.45406,0,0,0,8.90811,0V81.96863A4.45416,4.45416,0,0,0,65.43031,77.51458Z"/>
  <path class="cls-1" d="M106.14155,77.51458a4.45416,4.45416,0,0,0-4.454,4.45405v5.08891a4.45406,4.45406,0,0,0,8.90811,0V81.96863A4.45416,4.45416,0,0,0,106.14155,77.51458Z"/>
  <path class="cls-1" d="M246.34687,129.39778a4.45342,4.45342,0,0,0-6.26478.65385,8.28034,8.28034,0,0,1-13.437,0,4.4537,4.4537,0,1,0-6.918,5.61092,17.16877,17.16877,0,0,0,27.27308,0A4.45389,4.45389,0,0,0,246.34687,129.39778Z"/>
  <path class="cls-1" d="M213.008,102.95911a4.45415,4.45415,0,0,0-4.45406,4.45405v5.08891a4.45406,4.45406,0,0,0,8.90811,0v-5.08891A4.45415,4.45415,0,0,0,213.008,102.95911Z"/>
  <path class="cls-1" d="M253.71922,102.95911a4.45415,4.45415,0,0,0-4.454,4.45405v5.08891a4.45406,4.45406,0,0,0,8.90811,0v-5.08891A4.45415,4.45415,0,0,0,253.71922,102.95911Z"/>
  <path class="cls-1" d="M296.66522,191.03893,261.771,177.08111a5.83843,5.83843,0,0,1-.54042-.26427c24.10119-5.48384,35.51544-14.65443,36.022-15.06955a4.45462,4.45462,0,0,0,1.58623-4.07517c-.05048-.35275-5.04436-35.7126-5.04436-70.614a60.43172,60.43172,0,1,0-120.86344,0c0,9.13022-.41452,20.29743-1.08917,30.869l-9.72349,4.862L133.57676,108.519c-.082-.041-.16807-.07067-.2518-.1063a49.89375,49.89375,0,0,0,2.57148-12.45947,14.62157,14.62157,0,0,0,5.23143-25.06148V41.2574a24.78772,24.78772,0,0,0-10.91955-20.44886,19.58031,19.58031,0,0,0-18.979-14.53863H70.51805A40.122,40.122,0,0,0,30.44166,46.3463V70.89112A14.62157,14.62157,0,0,0,35.67309,95.9526a50.23416,50.23416,0,0,0,20.2131,36.547v12.311L19.05172,155.8608A19.59926,19.59926,0,0,0,4.99829,174.74955v49.70783a4.45416,4.45416,0,0,0,4.45406,4.45406h.63485v51.52391a4.45406,4.45406,0,0,0,8.90811,0V228.91144H35.53173v51.52391a4.45405,4.45405,0,0,0,8.9081,0V203.63557a19.65958,19.65958,0,0,0-3.312-10.93917l-7.61346-11.4202a4.45379,4.45379,0,1,0-7.41155,4.941L33.71625,197.638a10.77817,10.77817,0,0,1,1.81607,5.99753v16.36776H13.9064V174.74953A10.74576,10.74576,0,0,1,21.61251,164.393L36.903,159.80589a50.26117,50.26117,0,0,0,72.69967,32.571,14.61772,14.61772,0,0,0,11.805,6.00111h.63485v.63485a40.0953,40.0953,0,0,0,20.35563,34.86753v7.26486a.63476.63476,0,0,1-.43413.60219l-16.61481,5.53846a19.69567,19.69567,0,0,0-13.4845,18.70881v14.44064a4.45406,4.45406,0,0,0,8.90811,0V265.99472a10.79792,10.79792,0,0,1,7.39314-10.25739l4.8858-1.629a34.98642,34.98642,0,0,0,58.13433.00059l4.88462,1.62841a10.79847,10.79847,0,0,1,7.39314,10.25739v14.44065a4.45406,4.45406,0,0,0,8.90811,0V265.99472a19.69436,19.69436,0,0,0-13.4845-18.70822L182.27266,241.748a.63418.63418,0,0,1-.43411-.6022V233.881a40.23824,40.23824,0,0,0,18.85727-24.0406A45.16039,45.16039,0,0,0,276.353,192.51l17.002,6.80044a10.76065,10.76065,0,0,1,6.79689,10.03884v20.83251H283.61547V224.458a4.45406,4.45406,0,0,0-8.90811,0v55.978a4.45406,4.45406,0,0,0,8.90811,0v-41.3461H295.063V280.436a4.45406,4.45406,0,0,0,8.90811,0v-41.3461h.63485a4.45367,4.45367,0,0,0,4.45406-4.45406V209.34923A19.62138,19.62138,0,0,0,296.66522,191.03893ZM181.83969,87.05754a51.52361,51.52361,0,1,1,103.04722,0c0,29.90926,3.60185,60.144,4.77238,69.17383-3.99143,2.61127-14.2108,8.36233-31.486,12.14176v-7.08789a49.86863,49.86863,0,0,0,6.76066-4.59243,50.14012,50.14012,0,0,0,18.68387-39.10124c0-25.17491-18.2064-28.78923-35.81357-32.28476-11.20342-2.22406-22.78813-4.52413-32.01337-11.90421a4.45408,4.45408,0,0,0-7.23635,3.47832c0,.11819-.19419,11.83769-16.98182,16.0346a4.4543,4.4543,0,0,0,2.16051,8.64264c14.05106-3.51276,19.78313-11.39525,22.12062-17.31737,9.65877,5.72376,20.47856,7.87121,30.21571,9.80427,18.81927,3.73606,28.64018,6.48035,28.64018,23.5471a41.231,41.231,0,0,1-15.376,32.17371,41.33841,41.33841,0,0,1-50.03329,1.44251,50.32872,50.32872,0,0,0-12.194-18.79552V112.50323a4.45385,4.45385,0,0,0-6.44591-3.98371l-9.6166,4.808C181.57126,104.05183,181.83969,95.2328,181.83969,87.05754Zm6.35861,32.65118v16.11952l-16.12012-8.05946Zm-52.15876,0,16.11952,8.06006-16.11952,8.05946Zm-24.17483,48.77072v4.23015a14.63263,14.63263,0,0,0-5.0889,11.036,41.34769,41.34769,0,0,1-61.32046-26.50518L56.45924,153.939a29.88849,29.88849,0,0,0,55.83781,7.98227A50.08429,50.08429,0,0,0,111.86471,168.47944ZM64.79546,148.11668V137.7993a50.1869,50.1869,0,0,0,41.98095.00059V148.1232a20.98992,20.98992,0,0,1-41.97977.057C64.79664,148.15885,64.79546,148.13746,64.79546,148.11668Zm20.99047-14.62474a41.39216,41.39216,0,0,1-41.3461-41.34551,4.45415,4.45415,0,0,0-4.45405-4.454,5.72376,5.72376,0,1,1,0-11.44752H50.16359A4.45367,4.45367,0,0,0,54.389,73.19948l4.08823-12.26469c10.23542-.231,41.96551-1.67,59.83339-10.60421a4.45392,4.45392,0,1,0-3.9837-7.96742c-19.17084,9.58512-58.6789,9.70746-59.07561,9.70746a4.45369,4.45369,0,0,0-4.22481,3.046L46.95311,67.33734H39.98578c-.21261,0-.424.00712-.63485.016V46.34629A31.20376,31.20376,0,0,1,70.51921,15.178h40.71125a10.73244,10.73244,0,0,1,10.62619,9.11419,4.45388,4.45388,0,0,0,2.211,3.18079,15.89989,15.89989,0,0,1,8.15329,13.78381V67.3522c-.21082-.0095-.42165-.016-.63485-.016h-5.0889a4.45406,4.45406,0,1,0,0,8.90811h5.0889a5.72376,5.72376,0,1,1,0,11.44751,4.45416,4.45416,0,0,0-4.45405,4.45405A41.39267,41.39267,0,0,1,85.78593,133.49194Zm29.898,14.63246V132.49958a50.65961,50.65961,0,0,0,11.44751-11.83472v11.74742a50.32407,50.32407,0,0,0-11.479,16.95095C115.66966,148.95167,115.68392,148.53952,115.68392,148.1244Zm66.61424,103.0211a26.05783,26.05783,0,0,1-40.35551-.0006l2.83871-.946a9.53063,9.53063,0,0,0,6.5255-9.053v-3.55018a39.86984,39.86984,0,0,0,21.62532,0v3.55018a9.52837,9.52837,0,0,0,6.52489,9.05243Zm15.4437-61.67559a4.45416,4.45416,0,0,0-4.45406,4.45406v4.42852c0,.0386-.00059.0772,0,.11581v.54457a31.16829,31.16829,0,1,1-62.33657,0V193.924a4.45416,4.45416,0,0,0-4.45405-4.45406h-5.08891a5.73016,5.73016,0,0,1-5.72375-5.72375,5.658,5.658,0,0,1,2.87494-4.91668,4.42733,4.42733,0,0,0,1.05472-.86528c11.01043-.3189,46.70166-2.39093,70.15908-15.79527a4.45413,4.45413,0,0,0-4.41962-7.73461c-20.54922,11.74208-52.83934,14.09322-64.58023,14.563v-.51786a41.38657,41.38657,0,0,1,7.054-23.07022,4.4412,4.4412,0,0,0,5.75048,1.6094l28.54159-14.27079,28.54158,14.27079a4.42829,4.42829,0,0,0,5.74989-1.6094,41.38672,41.38672,0,0,1,7.054,23.07022V174.98a4.45277,4.45277,0,0,0,2.214,3.84949,5.65808,5.65808,0,0,1,2.87554,4.91668,5.73055,5.73055,0,0,1-5.72376,5.72375Zm35.62174,25.44451a36.30543,36.30543,0,0,1-30.43129-16.53879,14.59217,14.59217,0,0,0,9.44082-25.66544V168.48a50.08168,50.08168,0,0,0-.28625-5.3419,50.22135,50.22135,0,0,0,37.17829,2.10588v6.52251a14.56191,14.56191,0,0,0,9.19732,13.58547l9.60473,3.84176A36.23663,36.23663,0,0,1,233.3636,214.91442Z"/>
  <path class="cls-1" d="M175.10279,205.73136a4.45342,4.45342,0,0,0-6.26478.65387,8.28035,8.28035,0,0,1-13.437,0,4.45393,4.45393,0,1,0-6.91863,5.61092,17.17042,17.17042,0,0,0,27.27426.00059A4.45577,4.45577,0,0,0,175.10279,205.73136Z"/>
  <circle class="cls-1" cx="146.93416" cy="188.85525" r="4.45405"/>
  <circle class="cls-1" cx="177.22173" cy="188.85525" r="4.45405"/>
</svg>
