<svg id="Layer_1" data-name="Layer 1" xmlns="http://www.w3.org/2000/svg" viewBox="0 0 315.06 354.28"><defs><style>.cls-1{fill:#fff;}</style></defs><title>find_doctor_icon</title><path class="cls-1" d="M283.65,244.83A42.79,42.79,0,0,0,198.21,247l-.16,49a46.53,46.53,0,0,1-93,.22L105,200.7h9.2v-9h20.19c27.81,0,34-26.11,36-34.7L196.32,47.65a7.17,7.17,0,0,0,.17-1.53A36.23,36.23,0,0,0,161.78,10a18,18,0,1,0,1,13.51,22.86,22.86,0,0,1,20.34,21.91L157.43,154c-5.1,21.47-14.11,24.44-23.08,24.44H62.15c-10.74,0-17.26-7-23.08-24.44L13.34,45.39A22.86,22.86,0,0,1,33.68,23.48a18,18,0,1,0,1-13.51A36.24,36.24,0,0,0,0,46.12a6.6,6.6,0,0,0,.18,1.53l26.09,110c5.27,15.89,14.12,34.13,35.88,34.13H82v9h9.66l.09,95.72a59.86,59.86,0,0,0,119.66-.19l.16-49a29.43,29.43,0,0,1,58.65-2.44,38.2,38.2,0,1,0,13.46,0m-6.76,62.39a24.85,24.85,0,1,1,24.85-24.86,24.89,24.89,0,0,1-24.85,24.86"/></svg>