<svg id="Layer_1" data-name="Layer 1" xmlns="http://www.w3.org/2000/svg" viewBox="0 0 315.06 354.28">
  <defs>
    <style>
      .cls-1 {
        fill: #076798;
      }
    </style>
  </defs>
  <title>HEALTH AND SAFETY-01</title>
  <g id="Page-1">
    <g>
      <path id="Shape" class="cls-1" d="M236.54916,41.85239,158.93782,7.87932a5.1741,5.1741,0,0,0-4.13926,0L77.18723,41.85239a5.17409,5.17409,0,0,0-3.10445,4.73946V127.825a56.98743,56.98743,0,0,0,23.59384,46.09078l53.63977,38.68666a9.46858,9.46858,0,0,0,11.1036,0L216.05975,173.921a56.98737,56.98737,0,0,0,23.59385-46.09078V46.59185A5.1741,5.1741,0,0,0,236.54916,41.85239Zm-7.24373,85.97782a46.61342,46.61342,0,0,1-19.29935,37.69841l-53.13789,38.32447L103.7303,165.52862A46.61335,46.61335,0,0,1,84.431,127.83021V49.97571l72.43723-31.70682,72.43724,31.70682Z"/>
      <path class="cls-1" d="M154.79856,30.46939,97.88359,55.3878a5.17409,5.17409,0,0,0-3.10446,4.73947v67.70294a36.21864,36.21864,0,0,0,15.00486,29.306l44.05736,31.77926a5.17412,5.17412,0,0,0,6.05368,0l44.05736-31.77926a36.21864,36.21864,0,0,0,15.00486-29.306V60.12727a5.1741,5.1741,0,0,0-3.10444-4.73947l-56.915-24.91841A5.1741,5.1741,0,0,0,154.79856,30.46939ZM208.60907,63.506v64.32426a25.87045,25.87045,0,0,1-10.71036,20.91367l-41.03052,29.59578-41.03052-29.59578a25.87045,25.87045,0,0,1-10.71036-20.91367V63.506l51.74088-22.647Z"/>
      <path class="cls-1" d="M44.51286,179.22444,33.32131,153.07459A16.49523,16.49523,0,0,0,3.14085,166.39787l20.27726,44.60581a54.95411,54.95411,0,0,0,11.23294,16.21561L66.539,259.11235a10.28612,10.28612,0,0,0-2.80436,7.03677v41.3927A10.34818,10.34818,0,0,0,74.08278,317.89h56.915a10.34818,10.34818,0,0,0,10.34818-10.34818v-41.3927a10.34818,10.34818,0,0,0-10.34818-10.34818v-9.629a54.214,54.214,0,0,0-11.3416-33.89027,37.25328,37.25328,0,0,0-17.24524-12.57821,102.35422,102.35422,0,0,1-29.62165-19.0096A23.8008,23.8008,0,0,0,44.51286,179.22444Zm86.48489,128.31738h-56.915v-41.3927h56.915ZM111.5794,218.74413a43.90213,43.90213,0,0,1,9.07017,27.42783v9.629H77.865L41.96721,219.90312A44.751,44.751,0,0,1,32.835,206.72471L12.55769,162.11889a6.14859,6.14859,0,1,1,11.24847-4.96712L35.3806,184.145a61.05429,61.05429,0,0,0,13.04905,19.27347l23.63523,23.64041a5.17409,5.17409,0,1,0,7.31617-7.31617L55.74581,196.10232a51.03305,51.03305,0,0,1-6.37965-7.76113,13.45262,13.45262,0,0,1,16.75887.27938,110.31616,110.31616,0,0,0,33.01068,20.90332A27.17945,27.17945,0,0,1,111.5794,218.74413Z"/>
      <path class="cls-1" d="M115.47548,281.67138H110.3014a5.17409,5.17409,0,1,0,0,10.34818h5.17408a5.17409,5.17409,0,0,0,0-10.34818Z"/>
      <path class="cls-1" d="M290.31828,211.00368l20.27724-44.60581a16.495,16.495,0,1,0-30.17527-13.32328l-11.16568,26.05153a23.86292,23.86292,0,0,0-28.30744,1.55223,102.35366,102.35366,0,0,1-29.62165,19.0096,37.25341,37.25341,0,0,0-17.24524,12.5782A54.21426,54.21426,0,0,0,182.73863,246.172v9.629a10.34818,10.34818,0,0,0-10.34817,10.34818v41.3927A10.34818,10.34818,0,0,0,182.73863,317.89h56.915a10.34818,10.34818,0,0,0,10.34818-10.34818v-41.3927a10.28606,10.28606,0,0,0-2.80435-7.03677l31.88789-31.89306A54.95417,54.95417,0,0,0,290.31828,211.00368ZM239.6536,307.54182h-56.915v-41.3927h56.915Zm-3.78225-51.74088H193.08681v-9.629A43.90221,43.90221,0,0,1,202.157,218.7493a27.195,27.195,0,0,1,12.41782-9.22541,110.27031,110.27031,0,0,0,33.01586-20.90332,13.4526,13.4526,0,0,1,16.78991-.326,50.73888,50.73888,0,0,1-6.41069,7.81288L234.33464,219.7479a5.17409,5.17409,0,0,0,7.31617,7.31615L265.286,203.42364a61.0544,61.0544,0,0,0,13.04907-19.27347l11.57443-26.9984a6.14957,6.14957,0,1,1,11.24847,4.9723l-20.27727,44.60581a44.75034,44.75034,0,0,1-9.13226,13.17841Z"/>
      <path class="cls-1" d="M203.435,281.67138H198.2609a5.17409,5.17409,0,1,0,0,10.34818H203.435a5.17409,5.17409,0,0,0,0-10.34818Z"/>
      <path class="cls-1" d="M128.92812,117.13538a5.17409,5.17409,0,1,0-6.20891,8.27853l20.69635,15.52227A5.1741,5.1741,0,0,0,146.52,141.971a5.53724,5.53724,0,0,0,.87443-.07244,5.1741,5.1741,0,0,0,3.43042-2.23l41.39271-62.08906a5.17474,5.17474,0,0,0-8.60969-5.74324l-38.36069,57.541Z"/>
    </g>
  </g>
</svg>
