<svg id="Layer_1" data-name="Layer 1" xmlns="http://www.w3.org/2000/svg" viewBox="0 0 315.06 354.28">
  <defs>
    <style>
      .cls-1 {
        fill: #076798;
      }
    </style>
  </defs>
  <title>appointment_icon-04</title>
  <path class="cls-1" d="M203.35224,309.73434V273.42339a15.08186,15.08186,0,0,1,1.31409-6.18613l16.80792-37.81843a25.3108,25.3108,0,0,0,2.18931-10.3193v-10.9218h66.0118V30.45365H254.13055V5.0645H198.27441a45.7523,45.7523,0,0,0-40.62264,24.77426A45.75231,45.75231,0,0,0,117.02912,5.0645H61.173V30.45365H25.62817V208.17773H91.64v9.97218A25.47332,25.47332,0,0,0,94.83345,230.48L115.115,266.9794a15.26532,15.26532,0,0,1,1.9141,7.3936v35.36134H.239V319.89h314.8255V309.73434Zm76.16746-269.125V198.02207H172.88526v5.07783a15.25333,15.25333,0,0,1-15.23349,15.23349,14.6405,14.6405,0,0,1-1.8794-.238,65.79614,65.79614,0,0,0-16.441-30.229H254.13055V40.60932ZM71.32865,15.22016h45.70047A35.58794,35.58794,0,0,1,152.57394,50.765V91.38762H162.7296V50.765a35.58793,35.58793,0,0,1,35.54481-35.54482h45.70048V177.71074H162.7296V101.54328H152.57394v76.16746H132.26261V152.32159a30.4971,30.4971,0,0,0-30.467-30.467A10.1657,10.1657,0,0,0,91.64,132.01027v45.70047H71.32865ZM35.78383,198.02207V40.60932H61.173V187.8664H91.64v10.15567Zm67.9259,27.5264a15.29842,15.29842,0,0,1-1.9141-7.39856V132.01027A20.33141,20.33141,0,0,1,122.107,152.32159v32.56952l8.92588,8.92588a55.84144,55.84144,0,0,1,16.46328,39.74989h10.15566c0-1.71079-.12149-3.40175-.24794-5.09271.0843,0,.16612.01488.24794.01488a25.42825,25.42825,0,0,0,24.87591-20.31132H213.5079v10.9218a15.08184,15.08184,0,0,1-1.31408,6.18612L195.3859,263.10408a25.36261,25.36261,0,0,0-1.743,6.00761h-67.0581a25.45663,25.45663,0,0,0-2.59347-7.06879Zm23.47505,74.03021h45.70048V289.423H127.18478V279.26736h66.0118V289.423H183.04092v10.15566h10.15566v10.15566h-66.0118Z"/>
  <path class="cls-1" d="M198.27441,137.0881h10.15566v10.15566H198.27441Z"/>
  <path class="cls-1" d="M218.58573,137.0881H228.7414v10.15566H218.58573Z"/>
  <path class="cls-1" d="M177.96309,137.0881h10.15566v10.15566H177.96309Z"/>
  <path class="cls-1" d="M172.88526,157.39942h60.934v10.15566h-60.934Z"/>
  <path class="cls-1" d="M172.88526,116.77678h60.934v10.15566h-60.934Z"/>
  <path class="cls-1" d="M172.88526,81.232h60.934V91.38762h-60.934Z"/>
  <path class="cls-1" d="M172.88526,60.92064h60.934V71.0763h-60.934Z"/>
  <path class="cls-1" d="M172.88526,40.60932h60.934V50.765h-60.934Z"/>
  <path class="cls-1" d="M106.87346,60.92064h10.15566V71.0763H106.87346Z"/>
  <path class="cls-1" d="M127.18478,60.92064h10.15566V71.0763H127.18478Z"/>
  <path class="cls-1" d="M86.56214,60.92064H96.7178V71.0763H86.56214Z"/>
  <path class="cls-1" d="M81.48431,40.60932h60.934V50.765h-60.934Z"/>
  <path class="cls-1" d="M81.48431,81.232h60.934V91.38762h-60.934Z"/>
  <path class="cls-1" d="M81.48431,101.54328h60.934v10.15566h-60.934Z"/>
</svg>
