<svg id="Layer_1" data-name="Layer 1" xmlns="http://www.w3.org/2000/svg" viewBox="0 0 315.06 354.28">
  <defs>
    <style>
      .cls-1 {
        fill: #076798;
      }
    </style>
  </defs>
  <title>INSURANCE AND FINANCIAL </title>
  <path class="cls-1" d="M162.718,187.93293a5.20563,5.20563,0,0,0-1.87431-.06408,12.43144,12.43144,0,0,1-10.99484-12.32715,5.46806,5.46806,0,0,0-10.93611,0,23.39264,23.39264,0,0,0,17.1998,22.52369v5.46805a5.46806,5.46806,0,0,0,10.93611,0v-5.137A23.3497,23.3497,0,0,0,162.2641,152.193a12.41526,12.41526,0,1,1,12.41526-12.41526,5.46806,5.46806,0,0,0,10.93611,0,23.39306,23.39306,0,0,0-18.56682-22.85743v-4.97678a5.46806,5.46806,0,0,0-10.93611,0v5.31053a23.34838,23.34838,0,0,0,6.15156,45.87238,12.40736,12.40736,0,0,1,.4539,24.80648Z"/>
  <path class="cls-1" d="M82.972,158.08024A79.29212,79.29212,0,1,0,162.2641,78.78813,79.29127,79.29127,0,0,0,82.972,158.08024Zm79.29211-68.356a68.356,68.356,0,1,1-68.356,68.356A68.35463,68.35463,0,0,1,162.2641,89.72423Z"/>
  <path class="cls-1" d="M268.512,250.85293l-42.834,20.23821a34.88818,34.88818,0,0,0-29.74322-18.35323l-39.54193-1.08667a41.76189,41.76189,0,0,1-17.97142-4.64036l-4.02361-2.08523a70.97071,70.97071,0,0,0-65.7368.06941l.251-9.1152a5.46815,5.46815,0,0,0-5.31587-5.61757l-43.35995-1.19347a5.46582,5.46582,0,0,0-5.61491,5.31587L12.0021,329.5363a5.46814,5.46814,0,0,0,5.31586,5.61757l43.36,1.19347h.14952a5.46772,5.46772,0,0,0,5.468-5.31854l.12549-4.55226,11.26451-6.03141a19.322,19.322,0,0,1,14.42039-1.57794l67.26667,18.8792c.11748.03471.235.06141.3551.08811a72.00644,72.00644,0,0,0,14.78351,1.52454,72.95686,72.95686,0,0,0,30.47745-6.65084,5.07834,5.07834,0,0,0,.67817-.37379l97.53054-63.08554a5.47059,5.47059,0,0,0,1.79153-7.28362A27.62155,27.62155,0,0,0,268.512,250.85293Zm-245.427,73.51969,2.31752-84.22084,32.42651.89176-2.31751,84.22351Zm176.97751-1.43109a61.9967,61.9967,0,0,1-37.91326,4.23187L95.06418,308.34225a30.23531,30.23531,0,0,0-22.5397,2.46436l-5.75641,3.0838,1.54056-55.99683a60.10625,60.10625,0,0,1,61.06171-3.25733l4.02362,2.08523a52.81213,52.81213,0,0,0,22.69989,5.8632l39.54461,1.08667a23.98346,23.98346,0,0,1,22.79334,19.11149l-58.90172-1.626a5.4688,5.4688,0,0,0-.30171,10.93344l65.00256,1.78886h.15219a5.4684,5.4684,0,0,0,5.46271-5.31853,34.70269,34.70269,0,0,0-.52865-7.094l43.934-20.75885c.04272-.01869.08544-.04005.12815-.06141a16.70712,16.70712,0,0,1,18.89256,2.64592Z"/>
  <path class="cls-1" d="M167.73216,63.41456V11.46805a5.46806,5.46806,0,0,0-10.93611,0V63.41456a5.46806,5.46806,0,1,0,10.93611,0Z"/>
  <path class="cls-1" d="M208.74256,63.41456V38.80832a5.46806,5.46806,0,0,0-10.93611,0V63.41456a5.46806,5.46806,0,1,0,10.93611,0Z"/>
  <path class="cls-1" d="M126.72176,63.41456V38.80832a5.46806,5.46806,0,0,0-10.93611,0V63.41456a5.46806,5.46806,0,1,0,10.93611,0Z"/>
</svg>
