<svg id="Layer_1" data-name="Layer 1" xmlns="http://www.w3.org/2000/svg" viewBox="0 0 310.9317 311">
  <defs>
    <style>
      .cls-1 {
        fill: #fff;
      }
    </style>
  </defs>
  <title>insurance_icon</title>
  <g id="Page-1">
    <g>
      <path id="Shape" class="cls-1" d="M236.3905,34.4668,158.64.4327a5.184,5.184,0,0,0-4.1467,0L76.7424,34.4668a5.1835,5.1835,0,0,0-3.11,4.748v81.379a57.09,57.09,0,0,0,23.6362,46.1735l53.7361,38.7561a9.4855,9.4855,0,0,0,11.1235,0l53.7361-38.7509a57.09,57.09,0,0,0,23.6362-46.1735V39.2148A5.1835,5.1835,0,0,0,236.3905,34.4668Zm-7.2568,86.1322A46.6971,46.6971,0,0,1,209.8,158.3651l-53.2332,38.3932-53.2333-38.3932a46.6971,46.6971,0,0,1-19.334-37.7661V42.6047L156.5665,10.841l72.5672,31.7637Z" transform="translate(-1.1555 0)"/>
      <path class="cls-1" d="M154.4931,23.0634,97.4759,48.0265a5.1835,5.1835,0,0,0-3.11,4.748V120.599a36.2834,36.2834,0,0,0,15.0318,29.3586l44.1365,31.8364a5.1836,5.1836,0,0,0,6.0645,0l44.1365-31.8364A36.2834,36.2834,0,0,0,218.767,120.599V52.7745a5.1835,5.1835,0,0,0-3.11-4.748L158.64,23.0634A5.1832,5.1832,0,0,0,154.4931,23.0634ZM208.4,56.1592v64.44a25.9165,25.9165,0,0,1-10.73,20.9512l-41.1041,29.6489L115.4623,141.55a25.9165,25.9165,0,0,1-10.73-20.9512v-64.44l51.8338-22.6876Z" transform="translate(-1.1555 0)"/>
      <path class="cls-1" d="M44.0094,172.0855,32.7978,145.8887A16.5249,16.5249,0,0,0,2.5631,159.2359l20.3137,44.6859A55.0513,55.0513,0,0,0,34.13,220.1665l31.9451,31.95a10.3044,10.3044,0,0,0-2.8093,7.0494v41.467A10.3667,10.3667,0,0,0,73.6324,311H130.65a10.3667,10.3667,0,0,0,10.3667-10.3668v-41.467A10.3667,10.3667,0,0,0,130.65,248.8v-9.6463a54.3119,54.3119,0,0,0-11.362-33.9511,37.32,37.32,0,0,0-17.2762-12.6008,102.5382,102.5382,0,0,1-29.6748-19.0437A23.8434,23.8434,0,0,0,44.0094,172.0855Zm86.64,128.5477H73.6324v-41.467H130.65Zm-19.4533-88.9571a43.9807,43.9807,0,0,1,9.0865,27.4771V248.8H77.4215L41.4592,212.8372A44.83,44.83,0,0,1,32.31,199.6351L11.9969,154.9492a6.16,6.16,0,1,1,11.2686-4.976l11.5952,27.0417a61.1655,61.1655,0,0,0,13.0725,19.308l23.6777,23.6829a5.1834,5.1834,0,1,0,7.3293-7.3293L55.2625,188.9937a51.1291,51.1291,0,0,1-6.3911-7.7751,13.4769,13.4769,0,0,1,16.789.28,110.5121,110.5121,0,0,0,33.07,20.9408A27.2286,27.2286,0,0,1,111.1963,211.6761Z" transform="translate(-1.1555 0)"/>
      <path class="cls-1" d="M115.0994,274.7164h-5.1833a5.1834,5.1834,0,1,0,0,10.3667h5.1833a5.1834,5.1834,0,1,0,0-10.3667Z" transform="translate(-1.1555 0)"/>
      <path class="cls-1" d="M290.2561,203.9218,310.57,159.2359A16.5246,16.5246,0,1,0,280.34,145.8887L269.1546,171.987a23.9057,23.9057,0,0,0-28.3583,1.555,102.5361,102.5361,0,0,1-29.6748,19.0437,37.3212,37.3212,0,0,0-17.2762,12.6008,54.3119,54.3119,0,0,0-11.362,33.9667V248.8a10.3667,10.3667,0,0,0-10.3667,10.3667v41.467A10.3667,10.3667,0,0,0,182.4833,311h57.0172a10.3668,10.3668,0,0,0,10.3668-10.3668v-41.467a10.305,10.305,0,0,0-2.8094-7.0494l31.9451-31.95A55.0513,55.0513,0,0,0,290.2561,203.9218Zm-50.7556,96.7114H182.4833v-41.467h57.0172ZM235.7115,248.8H192.85v-9.6463a43.9814,43.9814,0,0,1,9.0865-27.4719,27.2435,27.2435,0,0,1,12.44-9.242,110.4672,110.4672,0,0,0,33.0751-20.9408,13.4768,13.4768,0,0,1,16.82-.3266,50.8372,50.8372,0,0,1-6.4222,7.8269L234.172,212.6817a5.1834,5.1834,0,0,0,7.3293,7.3293l23.6776-23.6829a61.1621,61.1621,0,0,0,13.0725-19.308l11.5953-27.0469a6.1606,6.1606,0,1,1,11.2686,4.9812L280.8016,199.64a44.8319,44.8319,0,0,1-9.1486,13.2021Z" transform="translate(-1.1555 0)"/>
      <path class="cls-1" d="M203.2169,274.7164h-5.1834a5.1834,5.1834,0,1,0,0,10.3667h5.1834a5.1834,5.1834,0,0,0,0-10.3667Z" transform="translate(-1.1555 0)"/>
      <path class="cls-1" d="M128.5762,109.8849a5.1834,5.1834,0,1,0-6.22,8.2934l20.7335,15.55a5.1834,5.1834,0,0,0,3.11,1.0367,5.5517,5.5517,0,0,0,.876-.0726,5.1837,5.1837,0,0,0,3.4366-2.234l41.467-62.2006a5.184,5.184,0,0,0-8.6252-5.7535l-38.4295,57.6443Z" transform="translate(-1.1555 0)"/>
    </g>
  </g>
</svg>
