<svg id="Layer_1" data-name="Layer 1" xmlns="http://www.w3.org/2000/svg" viewBox="0 0 312.73 312.23"><defs><style>.cls-1,.cls-2{fill:#00b5cb;}.cls-2{stroke:#a7dce6;stroke-miterlimit:10;}</style></defs><title>international_patients-04</title><path class="cls-1" d="M156.61.77C70.81.77,1,70.58,1,156.39S70.81,312,156.61,312a155.62,155.62,0,1,0,0-311.23m6.23,18.06a154.85,154.85,0,0,1,50,56.09,189.93,189.93,0,0,1-50,8.19ZM150.39,83.11a190.07,190.07,0,0,1-50-8.19,154.88,154.88,0,0,1,50-56.09ZM94.88,86.22a202.07,202.07,0,0,0,55.51,9.34v54.6H80.53A175.74,175.74,0,0,1,94.88,86.22m55.51,76.39v54.6a202.07,202.07,0,0,0-55.51,9.34,175.64,175.64,0,0,1-14.35-63.94Zm0,67V294a155,155,0,0,1-50-56.09,190.08,190.08,0,0,1,50-8.2m12.45,0a190.08,190.08,0,0,1,50,8.2,155,155,0,0,1-50,56.09Zm55.51-3.11a202.07,202.07,0,0,0-55.51-9.34v-54.6H232.7a175.64,175.64,0,0,1-14.35,63.94m-55.51-76.39V95.56a202.07,202.07,0,0,0,55.51-9.34,175.74,175.74,0,0,1,14.35,63.94ZM224.78,70.8a166.42,166.42,0,0,0-46-55.85,142.89,142.89,0,0,1,78.14,39.4A167.92,167.92,0,0,1,224.78,70.8m-136.33,0A168.54,168.54,0,0,1,56.32,54.35a142.88,142.88,0,0,1,78.25-39.43A169.46,169.46,0,0,0,88.45,70.81M83.11,82.1a188.54,188.54,0,0,0-15,68.06H13.61A142.48,142.48,0,0,1,47.73,63.59,180.31,180.31,0,0,0,83.11,82.1m-15,80.51a188.17,188.17,0,0,0,15,68.07,180.27,180.27,0,0,0-35.38,18.5,142.45,142.45,0,0,1-34.12-86.57ZM88.45,242a169.42,169.42,0,0,0,46.12,55.88,142.82,142.82,0,0,1-78.25-39.43A169.07,169.07,0,0,1,88.45,242m136.33,0a169.07,169.07,0,0,1,32.13,16.45,142.84,142.84,0,0,1-78.14,39.41,166.36,166.36,0,0,0,46-55.86m5.34-11.29a188.59,188.59,0,0,0,15-68.07h54.46a142.45,142.45,0,0,1-34.12,86.57,180.27,180.27,0,0,0-35.38-18.5m15-80.52a188.12,188.12,0,0,0-15-68.06A180.31,180.31,0,0,0,265.5,63.59a142.48,142.48,0,0,1,34.12,86.57Z" transform="translate(-1 -0.27)"/><path class="cls-2" d="M157.61.77C71.81.77,2,70.58,2,156.39S71.81,312,157.61,312a155.62,155.62,0,1,0,0-311.23Zm6.23,18.06a154.85,154.85,0,0,1,50,56.09,189.93,189.93,0,0,1-50,8.19ZM151.39,83.11a190.07,190.07,0,0,1-50-8.19,154.88,154.88,0,0,1,50-56.09ZM95.88,86.22a202.07,202.07,0,0,0,55.51,9.34v54.6H81.53A175.74,175.74,0,0,1,95.88,86.22Zm55.51,76.39v54.6a202.07,202.07,0,0,0-55.51,9.34,175.64,175.64,0,0,1-14.35-63.94Zm0,67V294a155,155,0,0,1-50-56.09,190.08,190.08,0,0,1,50-8.2Zm12.45,0a190.08,190.08,0,0,1,50,8.2,155,155,0,0,1-50,56.09Zm55.51-3.11a202.07,202.07,0,0,0-55.51-9.34v-54.6H233.7a175.64,175.64,0,0,1-14.35,63.94Zm-55.51-76.39V95.56a202.07,202.07,0,0,0,55.51-9.34,175.74,175.74,0,0,1,14.35,63.94ZM225.78,70.8a166.42,166.42,0,0,0-46-55.85,142.89,142.89,0,0,1,78.14,39.4A167.92,167.92,0,0,1,225.78,70.8Zm-136.33,0A168.54,168.54,0,0,1,57.32,54.35a142.88,142.88,0,0,1,78.25-39.43A169.46,169.46,0,0,0,89.45,70.81ZM84.11,82.1a188.54,188.54,0,0,0-15,68.06H14.61A142.48,142.48,0,0,1,48.73,63.59,180.31,180.31,0,0,0,84.11,82.1Zm-15,80.51a188.17,188.17,0,0,0,15,68.07,180.27,180.27,0,0,0-35.38,18.5,142.45,142.45,0,0,1-34.12-86.57ZM89.45,242a169.42,169.42,0,0,0,46.12,55.88,142.82,142.82,0,0,1-78.25-39.43A169.07,169.07,0,0,1,89.45,242Zm136.33,0a169.07,169.07,0,0,1,32.13,16.45,142.84,142.84,0,0,1-78.14,39.41,166.36,166.36,0,0,0,46-55.86Zm5.34-11.29a188.59,188.59,0,0,0,15-68.07h54.46a142.45,142.45,0,0,1-34.12,86.57,180.27,180.27,0,0,0-35.38-18.5Zm15-80.52a188.12,188.12,0,0,0-15-68.06A180.31,180.31,0,0,0,266.5,63.59a142.48,142.48,0,0,1,34.12,86.57Z" transform="translate(-1 -0.27)"/></svg>