<svg id="Layer_1" data-name="Layer 1" xmlns="http://www.w3.org/2000/svg" viewBox="0 0 315.10001 315.10001">
  <defs>
    <style>
      .cls-1 {
        fill: #00b5cb;
      }
    </style>
  </defs>
  <title>join_team_icon-06</title>
  <g>
    <path class="cls-1" d="M157.53141,74.03747a37.01874,37.01874,0,1,0-37.01873-37.01874A36.945,36.945,0,0,0,157.53141,74.03747Zm0-59.23a22.21124,22.21124,0,0,1,0,44.42248,22.61651,22.61651,0,0,1-22.21124-22.21124A22.6165,22.6165,0,0,1,157.53141,14.80749Z"/>
    <path class="cls-1" d="M91.46722,122.44658a3.42412,3.42412,0,0,0,2.27808.56952,7.15788,7.15788,0,0,0,6.83423-5.12567c4.55615-13.66845,17.65509-22.78076,32.46257-22.78076h48.97863a35.00067,35.00067,0,0,1,32.46258,22.78076c1.139,2.8476,3.98664,5.12567,6.83423,5.12567a3.42417,3.42417,0,0,0,2.27809-.56952c3.98664-1.139,5.69519-5.69519,4.55615-9.68183a49.193,49.193,0,0,0-46.13105-32.46258H133.04209a49.193,49.193,0,0,0-46.131,32.46258C85.772,117.32091,88.05011,121.30754,91.46722,122.44658Z"/>
    <path class="cls-1" d="M120.51268,173.70329a7.40374,7.40374,0,1,0,0,14.80748h74.03747a7.40374,7.40374,0,1,0,0-14.80748Z"/>
    <path class="cls-1" d="M75.52068,198.1926A37.01874,37.01874,0,1,0,38.502,161.17387,36.945,36.945,0,0,0,75.52068,198.1926Zm0-59.23a22.23856,22.23856,0,0,1,22.21124,22.21124,22.61651,22.61651,0,0,1-22.21124,22.21124,22.21124,22.21124,0,0,1,0-44.42248Z"/>
    <path class="cls-1" d="M100.01,204.45732H51.03137A49.34526,49.34526,0,0,0,2.05274,253.43594h0v45.56152h0a12.888,12.888,0,0,0,13.09894,13.09893h120.738a12.888,12.888,0,0,0,13.09893-13.09893V253.43594h0A48.9755,48.9755,0,0,0,100.01,204.45732ZM51.03137,219.2648H100.01a34.27161,34.27161,0,0,1,34.17114,34.17114v43.853h-15.377V254.00548a6.26471,6.26471,0,0,0-12.52942,0v43.28343H43.62763V254.00548a6.26472,6.26472,0,0,0-12.52943,0v43.28343h-14.238v-43.853h0A34.27161,34.27161,0,0,1,51.03137,219.2648Z"/>
    <path class="cls-1" d="M202.52342,161.17387a37.01874,37.01874,0,1,0,37.01874-37.01874A36.945,36.945,0,0,0,202.52342,161.17387Zm37.58825-22.21124a22.23856,22.23856,0,0,1,22.21124,22.21124,22.61651,22.61651,0,0,1-22.21124,22.21124,22.21124,22.21124,0,1,1,0-44.42248Z"/>
    <path class="cls-1" d="M313.57962,253.43594A48.61612,48.61612,0,0,0,264.601,204.45732H215.62235a49.34528,49.34528,0,0,0-48.97863,48.97862v45.56152a12.888,12.888,0,0,0,13.09894,13.09893h120.738a12.888,12.888,0,0,0,13.09893-13.09893V253.43594ZM215.62235,219.2648H264.601a34.0439,34.0439,0,0,1,24.48931,10.25134,34.41574,34.41574,0,0,1,10.25134,24.48931v43.853H284.53414V254.575a6.2647,6.2647,0,1,0-12.5294,0v43.28343H208.78812V254.575a6.2647,6.2647,0,1,0-12.5294,0v43.28343h-15.377V253.43594A34.39672,34.39672,0,0,1,215.62235,219.2648Z"/>
  </g>
</svg>
