<svg id="Layer_1" data-name="Layer 1" xmlns="http://www.w3.org/2000/svg" viewBox="0 0 315.06 354.28">
  <defs>
    <style>
      .cls-1 {
        fill: #fff;
      }
    </style>
  </defs>
  <title>jordan-info</title>
  <g>
    <path class="cls-1" d="M292.8,10.24H19.20055A15.06419,15.06419,0,0,0,9.314,13.9901l-.08669.07184A15.10055,15.10055,0,0,0,4.00058,25.44V207.83961a15.12754,15.12754,0,0,0,4.70368,10.947c.05878.0564.12528.10034.18644.15378a15.09985,15.09985,0,0,0,10.30985,4.09924H70.28848c4.19484,25.945,40.32565,45.59992,85.71181,45.59992s81.51756-19.65487,85.7118-45.59991H292.8a15.21634,15.21634,0,0,0,15.2-15.2V25.44A15.21633,15.21633,0,0,0,292.8,10.24ZM14.16022,207.97024c-.00119-.04632-.02672-.08431-.02672-.13063V25.44c0-.04631.02553-.0849.02672-.13062l147.41893,91.33045ZM156.00029,258.506c-41.19607,0-75.99985-18.5594-75.99985-40.53345s34.80378-40.53286,75.99985-40.53286,75.99986,18.5594,75.99986,40.53345S197.19637,258.506,156.00029,258.506ZM297.8665,207.83961A5.07114,5.07114,0,0,1,292.8,212.90606H241.71211c-4.19424-25.945-40.32564-45.59992-85.7118-45.59992S74.48275,186.961,70.28851,212.90605H25.429L131.748,147.03971H297.86709v60.7999Zm0-70.9334H148.10462l25.76514-15.96175a5.06385,5.06385,0,0,0,0-8.60936L148.10462,96.37335H297.8665Zm0-50.66638H131.74744L25.429,20.37349H292.8A5.07114,5.07114,0,0,1,297.86648,25.44V86.23983Z"/>
    <path class="cls-1" d="M108.1192,120.75149,91.9051,110.0741l9.75-16.318a5.0655,5.0655,0,0,0-5.78193-7.4563l-19.1015,5.62577L69.48811,74.182a5.06864,5.06864,0,0,0-9.37648,0l-7.28351,17.7436L33.72781,86.29921a5.0655,5.0655,0,0,0-5.78193,7.4563l9.75,16.318L21.48174,120.7509a5.06577,5.06577,0,0,0,2.04843,9.24289l19.60856,2.87968L41.709,151.72025a5.06356,5.06356,0,0,0,8.41639,4.17108l14.6751-13.03754,14.67569,13.03754a5.06356,5.06356,0,0,0,8.41639-4.17108L86.4628,132.87347l19.60855-2.87968a5.06514,5.06514,0,0,0,2.04785-9.2423Zm-27.80467,2.78587a5.06358,5.06358,0,0,0-4.31477,5.39836l.839,11.05857-8.67348-7.70389a5.057,5.057,0,0,0-6.729,0l-8.67408,7.70389.839-11.05857a5.06349,5.06349,0,0,0-4.31418-5.39836L38.159,121.8998l9.16035-6.03189a5.06376,5.06376,0,0,0,1.56334-6.82812L43.289,99.67816l11.05857,3.25552a5.04837,5.04837,0,0,0,6.12036-2.9343l4.33259-10.5533L69.13246,100a5.03564,5.03564,0,0,0,6.12036,2.93431l11.05857-3.25552-5.59371,9.36163A5.06376,5.06376,0,0,0,82.281,115.8685l9.161,6.0313Z"/>
    <path class="cls-1" d="M145.86678,192.63964H125.60035a5.06645,5.06645,0,1,0,0,10.1329h10.13351V228.106a5.06646,5.06646,0,0,1-10.13292,0,5.06646,5.06646,0,0,0-10.13292,0,15.2,15.2,0,0,0,30.39994,0V202.77254a5.06645,5.06645,0,1,0-.00118-10.1329Z"/>
    <path class="cls-1" d="M181.33377,192.63964h-5.06645a15.21635,15.21635,0,0,0-15.2,15.2V228.106a15.21635,15.21635,0,0,0,15.2,15.2h5.06645a15.21634,15.21634,0,0,0,15.2-15.2V207.83961A15.21669,15.21669,0,0,0,181.33377,192.63964Zm5.06647,35.4664a5.07112,5.07112,0,0,1-5.06645,5.06645h-5.06646a5.07151,5.07151,0,0,1-5.06645-5.06645V207.83961a5.07112,5.07112,0,0,1,5.06645-5.06645h5.06646a5.07112,5.07112,0,0,1,5.06645,5.06645Z"/>
  </g>
</svg>
