<svg id="Layer_1" data-name="Layer 1" xmlns="http://www.w3.org/2000/svg" viewBox="0 0 256.11 256.23">
  <defs>
    <style>
      .cls-1 {
        fill: #096798;
      }
    </style>
  </defs>
  <title>notfound_0</title>
  <g>
    <path class="cls-1" d="M128.52077,256.23A127.62015,127.62015,0,0,1,78.854,11.08259,127.61949,127.61949,0,0,1,178.18739,246.1991,126.799,126.799,0,0,1,128.52077,256.23Zm0-233.862a106.27282,106.27282,0,1,0,106.2729,106.27273A106.39317,106.39317,0,0,0,128.52077,22.368Z"/>
    <g>
      <path class="cls-1" d="M156.90815,67.43112q0,7.58716-4.6854,12.32656a15.79037,15.79037,0,0,1-11.71265,4.74079A15.26635,15.26635,0,0,1,124.78092,68.6583q0-7.807,4.68519-12.32656a16.34569,16.34569,0,0,1,11.82473-4.51793A15.63241,15.63241,0,0,1,152.50189,55.997Q156.907,60.18036,156.90815,67.43112Z"/>
      <path class="cls-1" d="M100.54588,105.1574a2.86381,2.86381,0,0,1,2.14652-2.40679q18.67006-4.65042,30.5667-4.65186,7.47234,0,11.65726,2.62141,4.18269,2.62228,4.18291,8.199a23.32706,23.32706,0,0,1-.44619,4.57374l-14.6132,70.278a25.16823,25.16823,0,0,0-.55788,4.23875q0,4.46274,3.68133,5.85652,3.06018,1.16063,10.43576,1.35483a2.86263,2.86263,0,0,1,2.76743,3.22168l-.01339.10509a2.86266,2.86266,0,0,1-2.1758,2.42129q-17.74632,4.21962-28.86256,4.21981-8.25651,0-12.8842-3.2351-4.63027-3.234-4.62937-9.8166a43.06127,43.06127,0,0,1,.89244-7.80885l13.38623-64.70019a39.24652,39.24652,0,0,0,.89242-5.80071,4.32585,4.32585,0,0,0-2.56582-4.23875q-2.19451-1.04829-11.06939-1.20129a2.86238,2.86238,0,0,1-2.7912-3.23Z"/>
    </g>
  </g>
</svg>
