<svg id="Layer_1" data-name="Layer 1" xmlns="http://www.w3.org/2000/svg" viewBox="0 0 315.06 315.06">
  <defs>
    <style>
      .cls-1 {
        fill: #00b5cb;
      }
    </style>
  </defs>
  <title>patients_information_icon</title>
  <path class="cls-1" d="M0,315.06,18.48,296.6"/>
  <path class="cls-1" d="M308.88724,302.753H279.28547l-11.247-20.10469v-54.848a29.22256,29.22256,0,0,0-20.65755-28.037l-47.20659-14.65306V135.12735a23.1,23.1,0,0,0-3.77865-12.68922A34.14358,34.14358,0,0,0,188.336,56.13881V30.806A30.84021,30.84021,0,0,0,157.53,0a6.15305,6.15305,0,0,0-6.15351,6.15352V55.26866c-.02885,0-.05529-.0048-.08413-.0048A20.02786,20.02786,0,0,0,130.904,74.92626,20.05255,20.05255,0,0,0,150.56643,95.317l.35815.00721a82.44962,82.44962,0,0,1-8.7976,29.1643,23.20834,23.20834,0,0,0-2.58881,10.63885v52.925l-14.82372,26.7101-79.41881,49.93A25.657,25.657,0,0,0,33.229,286.53027V302.753H6.15352a6.15352,6.15352,0,1,0,0,12.307H308.88965a6.15352,6.15352,0,1,0-.00241-12.307ZM207.1379,90.149A21.87812,21.87812,0,0,1,188.336,111.78245V68.51555A21.87812,21.87812,0,0,1,207.1379,90.149ZM163.68351,13.35986A18.5285,18.5285,0,0,1,176.029,30.806v88.13468a6.14988,6.14988,0,0,0,4.293,5.86507,10.789,10.789,0,0,1,7.54527,10.32156v48.36519h-36.0197V135.12735a10.72179,10.72179,0,0,1,1.20426-4.97329A94.13155,94.13155,0,0,0,163.68351,87.017ZM145.36959,80.64951a7.72315,7.72315,0,0,1,5.555-13.08343c.08653,0,.17307.0024.2596.0024.0649,0,.1274-.00721.1923-.00961V83.022l-.58651-.00962A7.68082,7.68082,0,0,1,145.36959,80.64951ZM93.08634,275.99A6.15275,6.15275,0,0,0,84.8488,273.18l-27.26295,13.3911a6.17128,6.17128,0,0,0-1.14177.72833L45.536,296.06582v-9.53555a13.419,13.419,0,0,1,6.30976-11.42006L132.601,224.3389a6.15657,6.15657,0,0,0,2.10565-2.221l14.60739-26.3183h33.20975l-17.77548,26.68126a75.97939,75.97939,0,0,1-29.70273,26.03947l-12.7397,6.25927a6.1533,6.1533,0,1,0,5.42759,11.04508l12.73729-6.25687a88.31129,88.31129,0,0,0,34.51978-30.2652l4.83147-7.252,50.31942,18.53507v56.884a17.52368,17.52368,0,0,0,.81,5.28337H56.85992l6.76406-5.43721L90.2764,284.22511A6.15278,6.15278,0,0,0,93.08634,275.99Zm154.64554,26.763a5.2893,5.2893,0,0,1-5.28337-5.28337V236.295a6.15386,6.15386,0,0,0-4.02623-5.77373l-51.58136-19.00138,6.69435-10.04994,3.05512-4.58389,47.1441,14.629a16.974,16.974,0,0,1,11.997,16.28519v56.45369a6.168,6.168,0,0,0,.7812,3.00465l8.67021,15.49436Z"/>
</svg>
