<svg id="Layer_1" data-name="Layer 1" xmlns="http://www.w3.org/2000/svg" viewBox="0 0 315.06 354.28">
  <defs>
    <style>
      .cls-1 {
        fill: #fff;
      }
    </style>
  </defs>
  <title>tips-01</title>
  <g>
    <path class="cls-1" d="M157.19443,56.33444A102.92307,102.92307,0,0,0,120.8611,255.56223v55.10555a6.05,6.05,0,0,0,6.05555,6.05555h6.05556v12.11111a6.05,6.05,0,0,0,6.05555,6.05556H175.3611a6.05,6.05,0,0,0,6.05555-6.05556V316.72333h6.05556a6.05,6.05,0,0,0,6.05555-6.05555V255.56223A102.92307,102.92307,0,0,0,157.19443,56.33444ZM175.3611,304.61222a6.05,6.05,0,0,0-6.05556,6.05556v12.11111H145.08332V310.66778a6.05,6.05,0,0,0-6.05556-6.05556h-6.05555V274.33444h48.44444v30.27778Zm10.22177-59.09011a6.05821,6.05821,0,0,0-4.16622,5.75279v10.94843H132.97221V251.2749a6.05257,6.05257,0,0,0-4.16622-5.75279,90.83334,90.83334,0,1,1,56.77688,0Z"/>
    <path class="cls-1" d="M157.19443,44.22333A6.05,6.05,0,0,0,163.25,38.16778V13.94556a6.05556,6.05556,0,1,0-12.11111,0V38.16778A6.05,6.05,0,0,0,157.19443,44.22333Z"/>
    <path class="cls-1" d="M302.52776,153.22333H278.30554a6.05556,6.05556,0,0,0,0,12.11111h24.22222a6.05556,6.05556,0,1,0,0-12.11111Z"/>
    <path class="cls-1" d="M36.08332,153.22333H11.8611a6.05556,6.05556,0,1,0,0,12.11111H36.08332a6.05556,6.05556,0,1,0,0-12.11111Z"/>
    <path class="cls-1" d="M255.682,52.22878,238.55688,69.35389a6.05464,6.05464,0,1,0,8.56256,8.56255l17.12511-17.12511a6.05464,6.05464,0,1,0-8.56256-8.56255Z"/>
    <path class="cls-1" d="M67.26943,240.64134l-17.12511,17.1251a6.05464,6.05464,0,1,0,8.56255,8.56257L75.832,249.2039a6.05464,6.05464,0,1,0-8.56255-8.56256Z"/>
    <path class="cls-1" d="M247.11942,240.64134a6.05464,6.05464,0,0,0-8.56256,8.56256L255.682,266.329a6.05465,6.05465,0,1,0,8.56257-8.56257Z"/>
    <path class="cls-1" d="M67.26943,77.91645A6.05464,6.05464,0,0,0,75.832,69.35389L58.70687,52.22878a6.05464,6.05464,0,0,0-8.56256,8.56255Z"/>
    <path class="cls-1" d="M157.19443,86.61222a72.74758,72.74758,0,0,0-72.66667,72.66667,6.05556,6.05556,0,0,0,12.11112,0,60.62429,60.62429,0,0,1,60.55555-60.55556,6.05556,6.05556,0,1,0,0-12.11111Z"/>
  </g>
</svg>
