<svg id="Layer_1" data-name="Layer 1" xmlns="http://www.w3.org/2000/svg" viewBox="0 0 70 70"><defs><style>.cls-1{fill:#00b5cb;}</style></defs><g id="Page-1"><g id="_004---Pregnant-Woman" data-name="004---Pregnant-Woman"><path id="Shape" class="cls-1" d="M21.60163,58.30933a24.56066,24.56066,0,0,0-1.919,8.86948A1.11437,1.11437,0,0,0,20.792,68.2982l33.43035.15136a1.11436,1.11436,0,0,0,1.10463-1.29324c-.08886-.55759-2.24494-13.65-6.68515-22.63076a17.258,17.258,0,0,1-1.49393-7.23567A68.78222,68.78222,0,0,0,54.275,38.35852l.08356.00372a1.11436,1.11436,0,0,0,1.08473-.83866c1.82771-7.16937,1.54732-17.10858,1.362-23.6853-.04891-1.74978-.09664-3.26776-.09145-4.41331a8.46916,8.46916,0,0,0-2.36252-5.89456,6.02757,6.02757,0,0,0-4.33938-1.962L36.8816,1.509a3.32189,3.32189,0,0,0-2.86784,1.604,20.33477,20.33477,0,0,1-5.9194,6.3719,10.30442,10.30442,0,0,1-1.881.971,6.58584,6.58584,0,0,0-4.21266,6.47546,7.85063,7.85063,0,0,0,2.52577,5.52644,6.11075,6.11075,0,0,0-.6833.28776,5.02573,5.02573,0,0,0-2.72427,3.36754A17.67366,17.67366,0,0,0,13.11263,41.5186C13.07075,50.76766,17.5114,55.71439,21.60163,58.30933ZM35.91406,4.27491a1.11436,1.11436,0,0,1,.95745-.53725l5.311.024c-.24156,2.15744-1.25606,6.68052-5.52734,6.66118A28.93,28.93,0,0,1,31.244,9.88467a24.73887,24.73887,0,0,0,4.67008-5.60976ZM24.22863,16.86562a4.346,4.346,0,0,1,2.79551-4.33338,12.48106,12.48106,0,0,0,1.83061-.91886,30.83519,30.83519,0,0,0,7.79587,1.03822c5.5617.02519,7.45344-5.28958,7.78506-8.87969l1.99579.009A59.38857,59.38857,0,0,0,45.26672,26.2313a38.6546,38.6546,0,0,0-5.22114-.66663,19.78316,19.78316,0,0,1-4.21293-.60189c-.93463-.31626-1.89119-.714-2.80769-1.09811a25.6529,25.6529,0,0,0-4.49162-1.56485,6.0242,6.0242,0,0,1-4.30471-5.4342Zm.60177,7.87351a4.74486,4.74486,0,0,1,3.07588-.297,1.1831,1.1831,0,0,0,.28167.05811,25.07306,25.07306,0,0,1,3.97186,1.421c.95656.39881,1.94536.81226,2.95343,1.15337a21.01965,21.01965,0,0,0,4.75067.7113c3.1737.25173,6.77293.53659,9.405,2.52985a1.11435,1.11435,0,0,0,1.34529-1.77689,11.79673,11.79673,0,0,0-2.97258-1.59921A56.33059,56.33059,0,0,1,48.71366,3.79128l1.28818.00584a3.90019,3.90019,0,0,1,2.75336,1.284,6.35187,6.35187,0,0,1,1.73451,4.30819c-.00539,1.19012.03777,2.73372.091,4.51138.17379,6.16547.432,15.34123-1.07084,22.13652-3.37364-.393-15.11027-2.09322-25.19368-7.61822A9.8398,9.8398,0,0,0,23.476,26.07581a2.86726,2.86726,0,0,1,1.35442-1.33111Zm-2.75919,3.44762.01672.00007a7.4829,7.4829,0,0,1,4.77527,1.92385,1.149,1.149,0,0,0,.25321.1917,69.02725,69.02725,0,0,0,17.777,6.50816,19.75856,19.75856,0,0,0,1.7436,8.7c3.50384,7.07649,5.59335,17.152,6.25815,20.70431l-30.922-.14a22.28075,22.28075,0,0,1,1.59035-6.679,25.7014,25.7014,0,0,0,11.01448,2.44576,27.82172,27.82172,0,0,0,3.08752-.15763,1.11456,1.11456,0,0,0-.23736-2.21644A23.70787,23.70787,0,0,1,23.59712,56.9098c-3.79033-2.13446-8.29587-6.53209-8.25581-15.38111.02627-5.80239,2.30758-10.27628,6.7299-13.34194Z"/><path id="Shape-2" data-name="Shape" class="cls-1" d="M24.8185,50.74953c.63055.53107,1.30107,1.09686,2.00593,1.70627a1.11437,1.11437,0,0,0,1.44865.00655c.71036-.603,1.386-1.16269,2.02131-1.688,3.74042-3.08769,6.20127-5.127,6.21566-8.3051a5.10933,5.10933,0,0,0-4.99055-5.32475,5.35666,5.35666,0,0,0-3.9078,1.65943,5.35667,5.35667,0,0,0-3.89262-1.69475,5.10932,5.10932,0,0,0-5.03855,5.27935c-.01439,3.17812,2.42788,5.23961,6.138,8.361ZM23.709,39.33784a3.44559,3.44559,0,0,1,2.89808,1.80948,1.11438,1.11438,0,0,0,.98456.61179l.00669,0a1.12107,1.12107,0,0,0,.99452-.60283,3.44445,3.44445,0,0,1,2.91657-1.78315,2.87615,2.87615,0,0,1,2.772,3.086c-.00967,2.13509-2.03986,3.81528-5.40447,6.59822-.4217.34912-.86129.71153-1.31656,1.09281-.4518-.38539-.88809-.75176-1.30661-1.10468-3.33928-2.8133-5.35417-4.51181-5.3445-6.64689A2.87615,2.87615,0,0,1,23.709,39.33784Z"/></g></g></svg>