<svg id="Layer_1" data-name="Layer 1" xmlns="http://www.w3.org/2000/svg" viewBox="0 0 70 70">
  <defs>
    <style>
      .cls-1 {
        fill: #00b5cb;
      }
    </style>
  </defs>
  <title>BONE AND MUSCULOSKELETAL DISEASES_0-01_0-01_0-01</title>
  <g>
    <path class="cls-1" d="M33.13328,26.43672a8.62928,8.62928,0,0,1-4.47119-1.28315,7.01886,7.01886,0,0,1-7.51372-2.21136c-3.09742-.27895-4.51546-1.76648-5.27363-3.19839a5.43,5.43,0,0,1-4.56244-3.58806c-1.87409-.9437-3.067-2.806-3.55239-5.54967a16.48419,16.48419,0,0,1-.86017-2.46825l-.01346-.05631a4.39679,4.39679,0,0,1,3.219-5.21807c3.21872-1.06687,5.779-.26631,7.09583,2.19379a5.17725,5.17725,0,0,1,2.289,2.79567,5.2607,5.2607,0,0,1,2.81728,2.15745A5.23366,5.23366,0,0,1,26.1981,12.031a5.98729,5.98729,0,0,1,4.88983,1.42253,6.85512,6.85512,0,0,1,4.855.52948,6.74543,6.74543,0,0,1,4.53446-.38147,8.24293,8.24293,0,0,1,4.75075-1.512,7.16073,7.16073,0,0,1,3.64363-2.20209,6.231,6.231,0,0,1,3.40388-3.52152,5.16443,5.16443,0,0,1,2.43467-3.40313,5.12261,5.12261,0,0,1,3.20525-3.248A5.94919,5.94919,0,0,1,63.4363.62345l.07823.06828c2.47625,2.31233,2.73008,5.29038.70118,7.84913-.41491,3.05725-1.42045,4.74438-3.4299,5.66639a5.67349,5.67349,0,0,1-3.77735,3.93881,5.69772,5.69772,0,0,1-3.44128,2.63765,5.92162,5.92162,0,0,1-4.99005,2.78377c-1.31112,1.61384-3.4682,2.25332-6.00428,1.76258a6.60761,6.60761,0,0,1-6.17881.35956A7.26636,7.26636,0,0,1,33.13328,26.43672Zm-4.0364-4.73257.69684.52073a4.91673,4.91673,0,0,0,5.69826.44227l.8874-.63784.89172.6317a3.61516,3.61516,0,0,0,4.19988-.2417l.57016-.374.65944.1735c1.04728.27536,2.92347.5235,3.71932-.91109l.44961-.81014.92627.02214c2.32056.05676,2.861-.83,3.4857-1.85548l.33653-.5525.63072-.144a2.72869,2.72869,0,0,0,2.26238-1.691l.32831-.84888.90263-.11741a2.5582,2.5582,0,0,0,2.12193-2.26l.0344-1.093,1.04489-.32239c1.15691-.35711,1.9411-.82136,2.28555-3.89858L61.261,7.449,61.3959,7.193A1.81326,1.81326,0,0,1,61.66,6.824a2.44724,2.44724,0,0,0-.19355-3.85341,2.963,2.963,0,0,0-2.5491-.36114,2.22822,2.22822,0,0,0-1.433,1.77367l-.18606.82771-.80034.28141a2.08846,2.08846,0,0,0-1.26446,1.992L55.26,8.71937l-1.20149.28732c-1.35165.32321-1.95246.95462-2.67861,2.815l-.35089.89906-.96247.07149a3.94465,3.94465,0,0,0-2.80471,1.67979l-.55011.94341L45.6405,15.2027a5.01523,5.01523,0,0,0-3.8955,1.28757l-.76236.66408-.91042-.4401a3.70476,3.70476,0,0,0-3.37876.3307l-.94152.60971-.86525-.7136a3.46427,3.46427,0,0,0-3.36261-.38557l-1.08556.65936-.8488-.94482c-1.28585-1.43129-2.17922-1.31717-3.96-1.08954l-1.05924.13537-.49327-.94723A2.27792,2.27792,0,0,0,21.69878,13.1l-1.00524.16655-.542-.86285c-.07808-.12415-.14538-.24888-.21044-.36945a2.49674,2.49674,0,0,0-2.00542-1.4467l-.89023-.20489L16.80267,9.502a2.43914,2.43914,0,0,0-1.27359-1.8492l-.51691-.19257-.27534-.47786a2.86686,2.86686,0,0,1-.13238-.26782c-.26878-.59751-.82906-1.84073-3.5349-.94362-.95156.31574-1.35433.86286-1.19715,1.62642a13.45873,13.45873,0,0,0,.75967,2.1285l.08465.18636.03276.202c.43883,2.713,1.52753,3.38862,2.30829,3.66083l.76727.26743.20867.78538a2.49417,2.49417,0,0,0,2.72214,2.08371l1.14449-.09033.40773,1.07307c.4143,1.09014,1.038,2.16007,3.65919,2.228l.77387.02.44287.635a4.05156,4.05156,0,0,0,5.10866,1.45876Z"/>
    <path class="cls-1" d="M14.259,47.26218a5.703,5.703,0,0,1-2.65829-.58706c-2.93185-1.55918-4.49469-3.791-5.33825-7.65507a8.857,8.857,0,0,1-1.044-7.80193,7.14782,7.14782,0,0,1,.1883-6.902c-.77686-2.55522-.402-3.9483.35044-5.18584a6.72761,6.72761,0,0,1,.0537-6.2388A8.72928,8.72928,0,0,1,7.0336,5.87084L9.57028,7.588a5.61776,5.61776,0,0,0-.65735,4.91175l.32621.78823-.49851.69228c-.57419.79749-1.18578,2.13508.12608,4.533l.46276.846-.58436.8129c-.73035,1.01581-1.06373,1.47947-.20086,3.87279l.2909.80676-.53591.66962C7.2216,26.86785,7.209,28.48693,8.26081,30.471l.38573.72773-.39455.72308a5.643,5.643,0,0,0,.64509,5.50906l.22405.28559.07209.35576c.63791,3.14812,1.68039,4.74677,3.846,5.89853a4.66246,4.66246,0,0,0,4.39282-.91043c.58586-.624,1.28241-2.06307,1.27359-5.37332l-.00076-.2865.10276-.26735c1.05161-2.7347.15075-4.02481-.38754-4.79569l-.41968-.60111.20491-.70387c.80676-2.7706-.15989-3.95384-.79946-4.73675l-.544-.6759.11636-.67951A7.17087,7.17087,0,0,0,15.39851,19.142l2.48911-1.78525A10.20154,10.20154,0,0,1,20.095,24.75534,7.25487,7.25487,0,0,1,21.3295,31.181c.74066,1.19985,1.66155,3.36613.43854,6.779-.02737,3.36357-.71629,5.71987-2.10279,7.197A7.72093,7.72093,0,0,1,14.259,47.26218Z"/>
    <path class="cls-1" d="M36.01369,68.6978a10.04439,10.04439,0,0,1-1.58-.12092c-1.37843-.22444-1.98779-1.624-2.43259-2.646-.0733-.16841-.17979-.41311-.24021-.52581-2.40267-2.5544-3.78887-8.76627-3.83059-12.13165-.10949-8.96183,1.30872-14.75215,4.463-18.22281,3.7102-4.08389,8.354-2.89767,16.78428-.74477a2.5226,2.5226,0,0,0,1.742-.03253,3.01933,3.01933,0,0,0-.08317-.643A4.22065,4.22065,0,0,1,52.15451,29.356a6.82525,6.82525,0,0,1,.17409-6.23722,8.45615,8.45615,0,0,1-.391-4.19218l3.0111.56238a5.328,5.328,0,0,0,.4671,3.03914l.475.88112-.61653.78875a3.81875,3.81875,0,0,0,.08855,4.62922l.79346,1.18024-1.11833.87863c-1.39861,1.0989-1.3343,1.43332-1.19354,2.16606a4.44688,4.44688,0,0,1-.057,2.40027c-.40668,1.22168-2.34,2.59375-5.36772,1.82138-9.00432-2.29963-11.53127-2.61573-13.75954-.16318-2.5657,2.823-3.7651,8.09748-3.66713,16.12511.03544,2.8549,1.32338,8.35528,3.03,10.103a4.42635,4.42635,0,0,1,.78658,1.3696,9.30526,9.30526,0,0,0,.42359.8859,7.85151,7.85151,0,0,0,2.53608-.15878c.11815-.25613.25919-.68525.3434-.94137a4.41716,4.41716,0,0,1,.65213-1.43848c1.59888-1.97094,1.10246-7.83267.9155-10.03934l-.01959-.23288a12.78559,12.78559,0,0,0-1.11892-3.63847,9.43561,9.43561,0,0,1-1.00316-3.61081,5.77309,5.77309,0,0,1,.54607-2.83057l.06178-.09245.07433-.08263a1.54475,1.54475,0,0,1,1.08124-.51294,1.80607,1.80607,0,0,1,1.35643.59027c1.627,1.48956,4.29216,2.37731,7.92144,2.63869A9.98643,9.98643,0,0,0,56.80489,42.2l.21583-.24012.29419-.13267c2.55658-1.15228,2.83866-2.71512,2.473-5.37788l-.1047-.76258.54951-.53911c1.811-1.77659.17365-4.47248.10306-4.58638l-.62355-.98221.74574-.81448c.19594-.254,1.47461-2.09733-.16392-5.02347l-.35029-.62573L60.2,22.44564c1.11727-2.92077.60425-3.79875.10828-4.64784l-.414-.70859.36046-.73752a4.78247,4.78247,0,0,0,.01735-4.03236l2.71047-1.4268a7.9623,7.9623,0,0,1,.34385,6.05175c.63463,1.30783.97968,2.97537-.0281,5.93944a7.56118,7.56118,0,0,1,.09827,6.92158,6.6905,6.6905,0,0,1-.48879,6.94c.28372,2.84158-.15,5.85314-4.04644,7.74009a13.04994,13.04994,0,0,1-9.41279,3.85386q-.53081.00011-1.08886-.03956a19.0223,19.0223,0,0,1-7.59583-1.897c.15227.47421.388,1.04085.60635,1.56575a15.27232,15.27232,0,0,1,1.34312,4.5605l.0193.22891c.25308,2.98725.77656,9.17056-1.51692,12.13673-.05025.12205-.13461.37864-.193.55587-.35955,1.09409-.80691,2.45577-2.04474,2.82977A10.39423,10.39423,0,0,1,36.01369,68.6978ZM31.8304,65.47774l.00223.00232Zm6.25839-.12885-.00329.001Z"/>
  </g>
</svg>
