<svg id="Layer_1" data-name="Layer 1" xmlns="http://www.w3.org/2000/svg" viewBox="0 0 70 70">
  <defs>
    <style>
      .cls-1 {
        fill: #00a3b9;
      }
    </style>
  </defs>
  <title>CARDIOVASCULAR AND PERIPHERAL VASCULAR CENTER-01_0-01</title>
  <g id="NewGroupe0">
    <g id="NewGroup33-0">
      <path class="cls-1" d="M60.252,14.38212a7.65049,7.65049,0,0,0,4.335-4.4813,1.82464,1.82464,0,1,0-3.49244-1.05838c-.55816,1.84178-4.03088,3.175-6.09974,3.175-1.43882,0-3.09449.78924-5.06162,2.41289-.74665.61627-1.38607,1.22972-1.80128,1.647a16.55039,16.55039,0,0,0-4.02823.13467c-.424.0604-.835.131-1.22634.20637L41.19582,6.16607a3.1931,3.1931,0,1,0-6.302,1.03366L36.91707,19.536a35.00376,35.00376,0,0,1-1.68032,17.6971q-.3194.86967-.59738,1.75092c-1.02024.15728-2.30478.36757-3.63256.61654-5.96062,1.11759-7.08659,1.92754-7.67413,2.599-.05484.06267-.12445.143-.208.23921-1.21858,1.40449-2.35013,2.64215-3.40038,3.73429-.66371-.43928-1.54128-1.00428-2.534-1.6035.48726-1.78312,1.92782-7.76006.44147-11.32485L16.17209,29.744a1.82461,1.82461,0,1,0-3.36818,1.40432l1.4597,3.50082c.74674,1.79115.25034,5.48238-.36747,8.07738a26.61684,26.61684,0,0,0-3.12678-1.37568C8.752,40.63755,7.26872,40.52926,6.101,41.01a1.82454,1.82454,0,1,0,1.381,3.37767c.01259-.00393,1.32951-.3704,6.26442,2.39765,1.2401.69555,2.40924,1.4223,3.32055,2.01139-5.34216,4.97266-7.96945,5.46093-8.78268,5.46093a1.82464,1.82464,0,0,0,0,3.64927c3.22249,0,7.51447-2.65539,12.79833-7.90768.02417.22562.05063.45424.07964.6845a25.083,25.083,0,0,0,.4963,2.80019c-.34358.16758-.71881.36309-1.1018.58451-2.08418,1.2048-3.364,2.5679-3.8039,4.05132a1.82464,1.82464,0,1,0,3.49873,1.0374c.22223-.74965,1.56051-1.67328,2.88583-2.33891a3.53527,3.53527,0,0,0,1.05182.86223,4.67463,4.67463,0,0,1-.10885,2.55339,17.56051,17.56051,0,0,1-.70713,2.38689,1.82462,1.82462,0,1,0,3.39528,1.33755,20.687,20.687,0,0,0,.98785-3.50567c.679-3.78657-.59712-5.33924-1.81423-5.97421-.10875-.12132-.78249-1.00317-1.19595-4.55372-.16413-1.4089-.228-2.7459-.2528-3.523q.6845-.76086,1.38781-1.57146l.12927-.1489c.22926-.13711,1.40149-.71169,6.01025-1.55731.5462-.10018,1.08384-.1936,1.59519-.27917a41.3269,41.3269,0,0,0,.7563,20.25341l.60843,2.07606a3.1931,3.1931,0,0,0,6.12848-1.79589l-.60843-2.07615a35.1744,35.1744,0,0,1,.731-21.86794,41.41234,41.41234,0,0,0,2.20716-19.40725c.39075-.07762.80495-.15,1.23173-.20973a10.49778,10.49778,0,0,1,4.07814.07252,12.15034,12.15034,0,0,0,.54867,7.80933c.19869.47541.37979.98467.54429,1.51381l.0134.04389a30.36336,30.36336,0,0,1,1.29357,9.182,1.82482,1.82482,0,0,0,3.11638,1.86032c.27581-.36767.92144-1.22863.32853-6.05916-.09452-.77027-.25052-1.84862-.49429-3.053.22889.06659.46327.13758.70011.21274,2.90974.92409,3.60958,1.65905,3.7238,1.80248a39.8869,39.8869,0,0,0,2.68567,6.81817,1.82462,1.82462,0,0,0,3.26409-1.63177,35.29237,35.29237,0,0,1-2.40542-6.05749c-.38636-1.73851-2.2162-3.09787-5.75861-4.27776-1.26074-.41985-2.48689-.73286-3.31938-.92654-.10273-.28255-.21093-.56181-.32542-.8356a8.52236,8.52236,0,0,1-.64775-3.974l.87618.75384a1.8249,1.8249,0,0,0,.46456.29111,20.29221,20.29221,0,0,0,7.15775,1.62037,8.26664,8.26664,0,0,0,2.98729-.49921,1.82463,1.82463,0,0,0-1.32268-3.40112c-1.79259.6972-5.21005-.18793-7.12582-.96578L52.17071,17.636c-.06322-.05428-.12819-.10684-.19406-.15847a7.099,7.099,0,0,1,3.01813-1.81086A13.10029,13.10029,0,0,0,60.252,14.38212Z"/>
    </g>
  </g>
</svg>
