<svg id="Layer_1" data-name="Layer 1" xmlns="http://www.w3.org/2000/svg" viewBox="0 0 70 70">
  <defs>
    <style>
      .cls-1 {
        fill: #00a3b9;
        stroke: #16becf;
        stroke-miterlimit: 10;
        stroke-width: 0.25px;
      }
    </style>
  </defs>
  <title>WOMEN’S HEALTH CENTER-01_0</title>
  <g>
    <path class="cls-1" d="M37.488,42.70382c-1.28479-3.81241-2.32-7.22566-3.24745-10.00942-.46434-1.3925-.901-2.62694-1.335-3.68277a14.25347,14.25347,0,0,0-1.34094-2.63149l-.05414-.07228A28.02226,28.02226,0,0,1,26.84723,18.256a25.08047,25.08047,0,0,1-.84875-2.69923c-.081-.32442-.1358-.57789-.16967-.74692-.01713-.08445-.02866-.14766-.03615-.18829l-.00738-.04386-.001-.00536v-.00044a11.42112,11.42112,0,0,1-.09251-1.52541,10.8341,10.8341,0,0,1,.52081-3.44993,6.242,6.242,0,0,1,.84621-1.66017,4.7366,4.7366,0,0,1,1.39315-1.27963.99056.99056,0,0,0-1.0191-1.69891,6.71015,6.71015,0,0,0-1.9733,1.8092,8.85949,8.85949,0,0,0-1.43471,3.29711,13.713,13.713,0,0,0-.31443,2.98233,13.08235,13.08235,0,0,0,.11578,1.8279l.00064.00391a28.91479,28.91479,0,0,0,6.1163,12.641,12.63081,12.63081,0,0,1,1.13,2.24432c.71012,1.728,1.479,4.10208,2.37613,6.918a172.24733,172.24733,0,0,0,8.22408,21.965c-.00286.01975-.00923.03821-.01093.05837-.17934,2.10645-.25738,4.02718-.25738,5.77374,0,1.70019.07349,3.23648.19934,4.6206a.99083.99083,0,0,0,1.97354-.1793c-.11993-1.32216-.19152-2.79791-.19152-4.4413,0-.72512.01713-1.48953.0468-2.28052,1.24815,2.405,2.61969,4.82244,4.14873,7.21591a.9905.9905,0,1,0,1.66923-1.06679A115.91729,115.91729,0,0,1,37.488,42.70382Z"/>
    <path class="cls-1" d="M64.72212,60.50965c-1.74789-5.908-5.58614-16.96543-8.99418-26.57165-.64026-1.80428-1.26512-3.55664-1.85786-5.213.17088-2.14535.24929-4.15074.24929-6.01862.00068-7.98609-1.40669-13.5-2.8418-17.03638A17.24086,17.24086,0,0,0,48.3062.49921a.99008.99008,0,0,0-1.43329,1.36626l-.00049.00044.00323.00387.00008-.00008c.076.09312,5.25393,5.67147,5.26227,20.83666,0,.37977-.00544.76945-.01217,1.16135-1.65533-4.594-2.77823-7.6667-2.77864-7.66791a.991.991,0,0,0-1.86143.68049v-.00068c.00068.002.18579.50828.51727,1.41959,1.161,3.19073,4.11107,11.33161,7.149,19.95364,3.03715,8.61941,6.16593,17.73166,7.67,22.81919a.99081.99081,0,0,0,1.90014-.56238Z"/>
    <path class="cls-1" d="M28.15589,1.98136A.9907.9907,0,0,0,28.14782,0h-.0087c-1.16128.00967-4.6477,2.02716-5.5297,2.84757-1.36348,1.2706-2.33836,2.91786-3.48674,5.9041a16.46483,16.46483,0,0,1-.89812,2.30256c-.16641.34635-.40924.85266-.83428,1.79239a23.90676,23.90676,0,0,1-3.59477,5.661l-.04612.05869c-.33667.46051-8.27342,11.3793-10.61887,19.63111C1.89507,42.54451,1.2401,48.75691,5.13446,53.66582a7.57424,7.57424,0,0,0,4.3816,2.815,44.664,44.664,0,0,1,.38767,6.125,59.04444,59.04444,0,0,1-.33442,6.20079.99074.99074,0,1,0,1.97044.209,61.06029,61.06029,0,0,0,.34534-6.40976,47.96673,47.96673,0,0,0-.33889-5.88242c.101.00242.19514.01314.29826.01314A24.74734,24.74734,0,0,0,18.758,55.50142a.99039.99039,0,1,0-.56822-1.89752c-7.09312,2.12261-9.72849,1.06743-11.50282-1.17-3.37289-4.25038-2.7592-9.7933-1.65049-13.69476,2.19131-7.71,9.8333-18.34245,10.29187-18.97517a25.90119,25.90119,0,0,0,3.86728-6.10082c.41536-.91845.653-1.41314.81524-1.75176a17.88976,17.88976,0,0,0,.971-2.47541c1.02035-2.65149,1.85527-4.09237,2.97752-5.13787A16.44617,16.44617,0,0,1,28.15589,1.98136Z"/>
  </g>
</svg>
