<svg id="Layer_1" data-name="Layer 1" xmlns="http://www.w3.org/2000/svg" viewBox="0 0 426.66599 426.66599"><defs><style>.cls-1{fill:#fff;}</style></defs><rect class="cls-1" x="192" y="298.66699" width="42.66699" height="42.66699"/><path class="cls-1" d="M381.333,19C263.513,19,168,114.513,168,232.333s95.513,213.333,213.333,213.333,213.333-95.513,213.333-213.333S499.154,19,381.333,19Zm0,388.053a174.72,174.72,0,1,1,174.72-174.72A174.72025,174.72025,0,0,1,381.333,407.053Z" transform="translate(-168 -19)"/><path class="cls-1" d="M464.32,169.4A85.33335,85.33335,0,0,0,296,189.667h42.667A42.82035,42.82035,0,1,1,424,196.92a44.37269,44.37269,0,0,1-45.013,35.413A18.9873,18.9873,0,0,0,360,251.32h0v45.013h42.667v-24.32A85.33254,85.33254,0,0,0,464.32,169.4Z" transform="translate(-168 -19)"/></svg>